{"glyphs":{"0":{"ha":997,"x_min":57,"x_max":938,"o":"m 497 -14 q 314 13 393 -14 q 181 88 235 40 q 97 201 126 136 q 61 342 67 265 q 58 433 58 379 q 58 542 57 488 q 61 636 58 597 q 98 776 67 713 q 185 887 129 840 q 319 960 240 933 q 497 986 397 986 q 676 960 597 986 q 810 887 754 933 q 897 776 865 840 q 933 636 928 713 q 937 542 936 597 q 937 433 938 488 q 933 342 936 379 q 898 201 928 265 q 814 88 868 136 q 681 13 760 40 q 497 -14 601 -14 m 497 258 q 554 284 538 258 q 572 349 571 310 q 576 439 575 389 q 576 540 576 489 q 572 628 575 590 q 555 690 571 664 q 497 718 539 717 q 440 690 456 717 q 422 628 425 664 q 420 540 421 590 q 420 439 419 489 q 422 349 421 389 q 442 284 425 310 q 497 258 458 258 z "},"1":{"ha":774,"x_min":11,"x_max":696,"o":"m 386 0 q 360 11 371 0 q 349 38 349 22 l 349 599 l 193 479 q 165 473 179 469 q 140 490 151 476 l 18 649 q 14 678 11 663 q 31 703 17 694 l 365 963 q 379 970 372 968 q 396 972 386 972 l 658 972 q 685 961 674 972 q 696 935 696 950 l 696 38 q 685 11 696 22 q 658 0 674 0 l 386 0 z "},"2":{"ha":978,"x_min":49,"x_max":924,"o":"m 86 0 q 60 11 71 0 q 49 38 49 22 l 49 182 q 53 215 49 190 q 83 257 57 239 l 99 268 q 342 446 244 374 q 490 570 440 518 q 539 663 539 622 q 532 700 539 682 q 489 718 525 718 q 446 705 461 718 q 424 675 431 692 q 413 647 417 658 q 391 622 406 628 q 357 615 376 615 l 96 615 q 74 624 83 615 q 65 646 65 633 q 99 788 67 725 q 189 897 132 851 q 322 967 246 943 q 488 992 399 992 q 707 955 614 992 q 851 849 800 918 q 903 681 903 779 q 865 539 903 604 q 760 415 828 474 q 603 293 693 356 l 593 286 l 886 286 q 913 275 901 286 q 924 249 924 264 l 924 38 q 913 11 924 22 q 886 0 901 0 l 86 0 z "},"3":{"ha":985,"x_min":32,"x_max":938,"o":"m 483 -14 q 272 15 358 -14 q 134 90 186 44 q 58 184 82 135 q 32 275 33 233 q 41 297 32 288 q 63 306 50 306 l 342 306 q 370 299 361 306 q 389 283 379 293 q 408 269 397 276 q 438 259 419 263 q 485 256 456 256 q 555 277 533 256 q 576 329 576 299 q 553 376 576 361 q 485 390 531 390 l 311 390 q 285 401 296 390 q 274 428 274 413 l 274 540 q 283 576 274 561 q 301 596 292 590 l 494 701 l 129 701 q 103 713 114 701 q 92 739 92 724 l 92 935 q 103 961 92 950 q 129 972 114 972 l 840 972 q 867 961 856 972 q 878 935 878 950 l 878 758 q 869 724 878 739 q 850 703 861 710 l 688 594 l 688 590 q 814 540 757 574 q 904 449 871 507 q 938 304 938 392 q 878 137 938 208 q 717 26 819 65 q 483 -14 615 -14 z "},"4":{"ha":1021,"x_min":36,"x_max":982,"o":"m 526 0 q 500 11 511 0 q 489 38 489 22 l 489 156 l 74 156 q 47 167 58 156 q 36 193 36 178 l 36 392 q 42 419 36 410 q 51 435 47 429 l 444 949 q 496 972 464 972 l 785 972 q 811 961 800 972 q 822 935 822 950 l 822 438 l 943 438 q 972 426 961 438 q 982 400 982 415 l 982 193 q 971 167 982 178 q 944 156 960 156 l 822 156 l 822 38 q 811 11 822 22 q 785 0 800 0 l 526 0 m 353 422 l 499 422 l 499 622 l 353 422 z "},"5":{"ha":958,"x_min":32,"x_max":922,"o":"m 478 -17 q 232 26 331 -17 q 84 140 133 69 q 32 294 35 211 q 41 316 32 307 q 63 325 50 325 l 343 325 q 377 317 365 325 q 393 303 389 308 q 417 276 406 288 q 442 260 428 265 q 479 254 457 254 q 521 264 501 254 q 552 293 540 274 q 564 340 564 313 q 554 381 564 363 q 526 413 544 400 q 479 425 507 425 q 444 420 457 425 q 422 408 431 415 q 406 397 413 401 q 390 392 399 392 l 114 392 q 92 401 101 392 q 83 422 83 410 l 139 925 q 158 960 142 949 q 193 972 174 972 l 814 972 q 840 961 829 972 q 851 935 851 950 l 851 739 q 840 713 851 724 q 814 701 829 701 l 408 701 l 397 603 q 476 640 436 629 q 583 650 515 650 q 708 626 647 650 q 817 560 768 603 q 894 458 865 517 q 922 331 922 400 q 872 160 922 239 q 724 32 822 81 q 478 -17 625 -17 z "},"6":{"ha":961,"x_min":28,"x_max":932,"o":"m 486 -14 q 252 28 356 -14 q 88 151 149 71 q 28 346 28 232 q 43 436 28 390 q 81 524 58 482 q 126 598 104 565 q 163 649 149 631 l 389 944 q 408 962 394 951 q 443 972 421 972 l 722 972 q 744 963 735 972 q 753 942 753 954 q 751 931 753 936 q 747 924 750 926 l 572 692 q 578 692 575 692 q 582 692 581 692 q 692 664 632 688 q 808 599 753 640 q 897 496 863 557 q 932 353 932 435 q 875 165 932 249 q 717 34 818 82 q 486 -14 617 -14 m 482 257 q 530 267 508 257 q 565 298 551 278 q 578 347 578 318 q 565 397 578 376 q 531 427 553 417 q 482 438 510 438 q 433 427 456 438 q 399 397 411 417 q 386 347 386 376 q 399 298 386 318 q 434 267 413 278 q 482 257 456 257 z "},"7":{"ha":868,"x_min":39,"x_max":832,"o":"m 186 0 q 165 9 174 0 q 156 31 156 18 q 158 43 156 38 l 458 688 l 76 688 q 50 699 61 688 q 39 725 39 710 l 39 935 q 50 961 39 950 q 76 972 61 972 l 794 972 q 822 961 811 972 q 832 935 832 950 l 832 751 q 826 711 832 728 q 814 681 821 694 l 511 32 q 494 13 507 25 q 454 0 481 0 l 186 0 z "},"8":{"ha":989,"x_min":50,"x_max":939,"o":"m 493 -14 q 286 13 371 -14 q 149 85 201 40 q 74 187 97 131 q 50 303 50 243 q 85 428 50 372 q 171 514 119 483 q 106 592 128 546 q 85 694 85 638 q 124 835 85 768 q 252 944 163 901 q 493 986 342 986 q 733 944 644 986 q 859 837 821 903 q 897 697 897 771 q 878 594 897 640 q 815 514 858 547 q 906 428 872 486 q 939 300 939 369 q 895 150 939 222 q 753 32 851 78 q 493 -14 656 -14 m 493 219 q 543 229 521 219 q 578 258 565 239 q 590 301 590 276 q 578 346 590 328 q 543 374 565 364 q 493 383 521 383 q 443 374 465 383 q 408 346 421 364 q 396 301 396 328 q 408 258 396 276 q 443 229 421 239 q 493 219 465 219 m 493 601 q 541 612 521 601 q 572 639 561 622 q 582 676 582 656 q 572 715 582 697 q 541 742 561 732 q 493 751 521 751 q 446 742 465 751 q 416 715 426 732 q 406 676 406 697 q 416 639 406 656 q 446 612 426 622 q 493 601 465 601 z "},"9":{"ha":949,"x_min":29,"x_max":919,"o":"m 219 0 q 198 9 207 0 q 189 31 189 18 q 191 42 189 38 q 194 49 193 46 l 376 292 q 365 293 369 292 q 257 321 315 299 q 147 383 199 343 q 62 483 94 422 q 29 624 29 543 q 57 760 29 694 q 140 876 85 825 q 278 956 196 926 q 468 986 360 986 q 660 961 576 986 q 802 890 744 936 q 890 779 860 843 q 919 638 919 715 q 892 509 919 569 q 822 392 864 449 q 736 272 781 335 l 553 28 q 535 10 547 21 q 499 0 522 0 l 219 0 m 472 535 q 519 545 500 535 q 550 576 539 556 q 561 625 561 596 q 550 674 561 654 q 519 705 539 694 q 472 715 499 715 q 426 705 446 715 q 394 674 406 694 q 383 625 383 654 q 394 576 383 596 q 426 545 406 556 q 472 535 446 535 z "},"A":{"ha":1049,"x_min":0,"x_max":1049,"o":"m 31 0 q 9 9 18 0 q 0 31 0 18 q 1 40 0 36 l 311 926 q 331 957 315 942 q 374 972 346 972 l 675 972 q 718 957 703 972 q 738 926 733 942 l 1047 40 q 1049 31 1049 36 q 1040 9 1049 18 q 1018 0 1031 0 l 761 0 q 723 12 735 0 q 707 35 711 24 l 674 126 l 375 126 l 342 35 q 326 12 338 24 q 288 0 315 0 l 31 0 m 446 397 l 603 397 l 524 656 l 446 397 z "},"Á":{"ha":1049,"x_min":0,"x_max":1049,"o":"m 31 0 q 9 9 18 0 q 0 31 0 18 q 1 40 0 36 l 311 926 q 331 957 315 942 q 374 972 346 972 l 675 972 q 718 957 703 972 q 738 926 733 942 l 1047 40 q 1049 31 1049 36 q 1040 9 1049 18 q 1018 0 1031 0 l 761 0 q 723 12 735 0 q 707 35 711 24 l 674 126 l 375 126 l 342 35 q 326 12 338 24 q 288 0 315 0 l 31 0 m 446 397 l 603 397 l 524 656 l 446 397 m 396 1042 q 374 1064 374 1042 q 381 1082 374 1075 l 519 1251 q 545 1274 535 1269 q 571 1278 556 1278 l 843 1278 q 869 1250 869 1278 q 863 1233 869 1240 l 658 1065 q 635 1049 647 1056 q 600 1042 622 1042 l 396 1042 z "},"Ă":{"ha":1049,"x_min":0,"x_max":1049,"o":"m 31 0 q 9 9 18 0 q 0 31 0 18 q 1 40 0 36 l 311 926 q 331 957 315 942 q 374 972 346 972 l 675 972 q 718 957 703 972 q 738 926 733 942 l 1047 40 q 1049 31 1049 36 q 1040 9 1049 18 q 1018 0 1031 0 l 761 0 q 723 12 735 0 q 707 35 711 24 l 674 126 l 375 126 l 342 35 q 326 12 338 24 q 288 0 315 0 l 31 0 m 446 397 l 603 397 l 524 656 l 446 397 m 525 1035 q 387 1063 442 1035 q 306 1140 332 1092 q 279 1251 279 1189 q 286 1270 279 1263 q 306 1278 293 1278 l 443 1278 q 463 1270 456 1278 q 469 1251 469 1263 q 481 1198 469 1221 q 525 1175 492 1175 q 569 1198 558 1175 q 581 1253 581 1221 q 588 1270 581 1263 q 607 1278 594 1278 l 744 1278 q 764 1270 757 1278 q 771 1251 771 1263 q 744 1140 771 1189 q 663 1063 718 1092 q 525 1035 608 1035 z "},"Â":{"ha":1049,"x_min":0,"x_max":1049,"o":"m 31 0 q 9 9 18 0 q 0 31 0 18 q 1 40 0 36 l 311 926 q 331 957 315 942 q 374 972 346 972 l 675 972 q 718 957 703 972 q 738 926 733 942 l 1047 40 q 1049 31 1049 36 q 1040 9 1049 18 q 1018 0 1031 0 l 761 0 q 723 12 735 0 q 707 35 711 24 l 674 126 l 375 126 l 342 35 q 326 12 338 24 q 288 0 315 0 l 31 0 m 446 397 l 603 397 l 524 656 l 446 397 m 243 1042 q 221 1064 221 1042 q 228 1082 221 1075 l 383 1251 q 408 1272 397 1267 q 435 1278 419 1278 l 615 1278 q 642 1272 631 1278 q 667 1251 653 1267 l 822 1082 q 829 1064 829 1075 q 807 1042 829 1042 l 708 1042 q 681 1043 694 1042 q 653 1051 668 1044 l 525 1110 l 397 1051 q 369 1043 383 1044 q 342 1042 356 1042 l 243 1042 z "},"Ä":{"ha":1049,"x_min":0,"x_max":1049,"o":"m 31 0 q 9 9 18 0 q 0 31 0 18 q 1 40 0 36 l 311 926 q 331 957 315 942 q 374 972 346 972 l 675 972 q 718 957 703 972 q 738 926 733 942 l 1047 40 q 1049 31 1049 36 q 1040 9 1049 18 q 1018 0 1031 0 l 761 0 q 723 12 735 0 q 707 35 711 24 l 674 126 l 375 126 l 342 35 q 326 12 338 24 q 288 0 315 0 l 31 0 m 446 397 l 603 397 l 524 656 l 446 397 m 625 1042 q 602 1051 611 1042 q 593 1074 593 1060 l 593 1246 q 602 1269 593 1260 q 625 1278 611 1278 l 797 1278 q 820 1269 811 1278 q 829 1246 829 1260 l 829 1074 q 820 1051 829 1060 q 797 1042 811 1042 l 625 1042 m 251 1042 q 228 1051 238 1042 q 219 1074 219 1060 l 219 1246 q 228 1269 219 1260 q 251 1278 238 1278 l 424 1278 q 447 1269 438 1278 q 456 1246 456 1260 l 456 1074 q 447 1051 456 1060 q 424 1042 438 1042 l 251 1042 z "},"À":{"ha":1049,"x_min":0,"x_max":1049,"o":"m 31 0 q 9 9 18 0 q 0 31 0 18 q 1 40 0 36 l 311 926 q 331 957 315 942 q 374 972 346 972 l 675 972 q 718 957 703 972 q 738 926 733 942 l 1047 40 q 1049 31 1049 36 q 1040 9 1049 18 q 1018 0 1031 0 l 761 0 q 723 12 735 0 q 707 35 711 24 l 674 126 l 375 126 l 342 35 q 326 12 338 24 q 288 0 315 0 l 31 0 m 446 397 l 603 397 l 524 656 l 446 397 m 449 1042 q 414 1049 426 1042 q 390 1065 401 1056 l 186 1233 q 179 1250 179 1240 q 206 1278 179 1278 l 478 1278 q 503 1274 493 1278 q 529 1251 514 1269 l 668 1082 q 675 1064 675 1075 q 653 1042 675 1042 l 449 1042 z "},"Ā":{"ha":1049,"x_min":0,"x_max":1049,"o":"m 31 0 q 9 9 18 0 q 0 31 0 18 q 1 40 0 36 l 311 926 q 331 957 315 942 q 374 972 346 972 l 675 972 q 718 957 703 972 q 738 926 733 942 l 1047 40 q 1049 31 1049 36 q 1040 9 1049 18 q 1018 0 1031 0 l 761 0 q 723 12 735 0 q 707 35 711 24 l 674 126 l 375 126 l 342 35 q 326 12 338 24 q 288 0 315 0 l 31 0 m 446 397 l 603 397 l 524 656 l 446 397 m 263 1042 q 240 1051 249 1042 q 231 1074 231 1060 l 231 1218 q 240 1241 231 1232 q 263 1250 249 1250 l 786 1250 q 809 1241 800 1250 q 818 1218 818 1232 l 818 1074 q 809 1051 818 1060 q 786 1042 800 1042 l 263 1042 z "},"Ą":{"ha":1049,"x_min":0,"x_max":1049,"o":"m 978 -306 q 842 -274 894 -306 q 764 -187 789 -242 q 739 -68 739 -133 q 741 -32 739 -49 q 746 0 743 -15 q 719 14 728 3 q 707 35 710 25 l 674 126 l 375 126 l 342 35 q 326 12 338 24 q 288 0 315 0 l 31 0 q 9 9 18 0 q 0 31 0 18 q 1 40 0 36 l 311 926 q 331 957 315 942 q 374 972 346 972 l 675 972 q 718 957 703 972 q 738 926 733 942 l 1047 40 q 1049 31 1049 36 q 1040 9 1049 18 q 1018 0 1031 0 l 975 0 q 927 -24 940 -1 q 914 -68 914 -47 q 928 -113 914 -90 q 983 -136 943 -136 l 997 -136 q 1024 -147 1013 -136 q 1035 -174 1035 -158 l 1035 -268 q 1024 -294 1035 -283 q 997 -306 1013 -306 l 978 -306 m 446 397 l 603 397 l 524 656 l 446 397 z "},"Å":{"ha":1049,"x_min":0,"x_max":1049,"o":"m 31 0 q 9 9 18 0 q 0 31 0 18 q 1 40 0 36 l 311 926 q 331 957 315 942 q 374 972 346 972 l 675 972 q 718 957 703 972 q 738 926 733 942 l 1047 40 q 1049 31 1049 36 q 1040 9 1049 18 q 1018 0 1031 0 l 761 0 q 723 12 735 0 q 707 35 711 24 l 674 126 l 375 126 l 342 35 q 326 12 338 24 q 288 0 315 0 l 31 0 m 446 397 l 603 397 l 524 656 l 446 397 m 525 1028 q 427 1065 468 1028 q 386 1160 386 1103 q 427 1254 386 1217 q 525 1292 468 1292 q 623 1254 582 1292 q 664 1160 664 1217 q 623 1065 664 1103 q 525 1028 582 1028 m 525 1118 q 555 1130 543 1118 q 567 1160 567 1142 q 555 1190 567 1178 q 525 1201 543 1201 q 495 1190 507 1201 q 483 1160 483 1178 q 495 1130 483 1142 q 525 1118 507 1118 z "},"Ã":{"ha":1049,"x_min":0,"x_max":1049,"o":"m 31 0 q 9 9 18 0 q 0 31 0 18 q 1 40 0 36 l 311 926 q 331 957 315 942 q 374 972 346 972 l 675 972 q 718 957 703 972 q 738 926 733 942 l 1047 40 q 1049 31 1049 36 q 1040 9 1049 18 q 1018 0 1031 0 l 761 0 q 723 12 735 0 q 707 35 711 24 l 674 126 l 375 126 l 342 35 q 326 12 338 24 q 288 0 315 0 l 31 0 m 446 397 l 603 397 l 524 656 l 446 397 m 618 1035 q 550 1047 576 1035 q 503 1072 524 1060 q 454 1085 482 1085 q 424 1074 433 1085 q 407 1053 414 1064 q 385 1042 400 1042 l 268 1042 q 250 1049 258 1042 q 242 1067 242 1057 q 250 1127 242 1090 q 279 1200 258 1164 q 337 1260 300 1236 q 431 1285 374 1285 q 499 1272 472 1285 q 547 1247 525 1260 q 594 1235 568 1235 q 624 1246 615 1235 q 641 1267 633 1257 q 664 1278 649 1278 l 781 1278 q 800 1270 793 1278 q 807 1251 807 1263 q 799 1192 807 1228 q 769 1119 790 1156 q 712 1059 749 1083 q 618 1035 675 1035 z "},"Æ":{"ha":1396,"x_min":6,"x_max":1344,"o":"m 36 0 q 15 9 24 0 q 6 31 6 18 q 7 40 6 36 q 59 188 33 114 q 110 336 85 263 q 162 483 136 410 q 213 631 188 557 q 265 778 239 704 q 317 926 292 853 q 336 957 321 942 q 379 972 351 972 l 1296 972 q 1322 961 1311 972 q 1333 935 1333 950 l 1333 739 q 1322 713 1333 724 q 1296 701 1311 701 l 921 701 l 921 614 l 1265 614 q 1292 603 1281 614 q 1303 576 1303 592 l 1303 396 q 1292 369 1303 381 q 1265 358 1281 358 l 921 358 l 921 271 l 1307 271 q 1333 260 1322 271 q 1344 233 1344 249 l 1344 38 q 1333 11 1344 22 q 1307 0 1322 0 l 625 0 q 599 11 610 0 q 588 38 588 22 l 588 126 l 381 126 q 372 103 376 115 q 364 81 368 92 q 356 58 360 69 q 347 35 351 46 q 332 12 343 24 q 293 0 321 0 l 36 0 m 451 397 l 588 397 l 588 701 l 543 701 l 451 397 z "},"Ǽ":{"ha":1396,"x_min":6,"x_max":1344,"o":"m 36 0 q 15 9 24 0 q 6 31 6 18 q 7 40 6 36 q 59 188 33 114 q 110 336 85 263 q 162 483 136 410 q 213 631 188 557 q 265 778 239 704 q 317 926 292 853 q 336 957 321 942 q 379 972 351 972 l 1296 972 q 1322 961 1311 972 q 1333 935 1333 950 l 1333 739 q 1322 713 1333 724 q 1296 701 1311 701 l 921 701 l 921 614 l 1265 614 q 1292 603 1281 614 q 1303 576 1303 592 l 1303 396 q 1292 369 1303 381 q 1265 358 1281 358 l 921 358 l 921 271 l 1307 271 q 1333 260 1322 271 q 1344 233 1344 249 l 1344 38 q 1333 11 1344 22 q 1307 0 1322 0 l 625 0 q 599 11 610 0 q 588 38 588 22 l 588 126 l 381 126 q 372 103 376 115 q 364 81 368 92 q 356 58 360 69 q 347 35 351 46 q 332 12 343 24 q 293 0 321 0 l 36 0 m 451 397 l 588 397 l 588 701 l 543 701 l 451 397 m 569 1042 q 547 1064 547 1042 q 554 1082 547 1075 l 693 1251 q 719 1274 708 1269 q 744 1278 729 1278 l 1017 1278 q 1043 1250 1043 1278 q 1036 1233 1043 1240 l 832 1065 q 808 1049 821 1056 q 774 1042 796 1042 l 569 1042 z "},"B":{"ha":1019,"x_min":76,"x_max":981,"o":"m 114 0 q 88 11 99 0 q 76 38 76 22 l 76 935 q 88 961 76 950 q 114 972 99 972 l 575 972 q 793 940 708 972 q 919 842 878 907 q 960 681 960 778 q 941 601 960 636 q 897 542 922 565 q 849 507 871 518 q 941 430 901 485 q 981 306 981 375 q 935 134 981 201 q 802 33 889 67 q 589 0 715 0 l 114 0 m 424 239 l 553 239 q 602 262 588 239 q 617 307 617 285 q 601 353 617 332 q 553 375 585 375 l 424 375 l 424 239 m 424 607 l 540 607 q 584 627 571 607 q 597 669 597 647 q 584 713 597 692 q 540 733 571 733 l 424 733 l 424 607 z "},"C":{"ha":1018,"x_min":50,"x_max":985,"o":"m 517 -14 q 281 25 383 -14 q 117 147 178 64 q 51 363 57 231 q 50 485 50 419 q 51 610 50 550 q 119 822 57 739 q 284 946 181 906 q 517 986 388 986 q 688 966 606 986 q 838 903 771 946 q 944 792 904 860 q 985 631 983 725 q 976 609 985 618 q 954 600 967 600 l 671 600 q 638 609 649 600 q 619 640 628 618 q 578 700 604 685 q 515 715 551 715 q 442 691 469 715 q 413 603 415 667 q 413 369 408 489 q 442 281 415 306 q 515 257 469 257 q 578 274 551 257 q 619 332 606 290 q 638 364 626 356 q 671 372 649 372 l 954 372 q 976 363 967 372 q 985 342 985 354 q 944 180 983 247 q 838 69 904 113 q 688 6 771 26 q 517 -14 606 -14 z "},"Ć":{"ha":1018,"x_min":50,"x_max":985,"o":"m 517 -14 q 281 25 383 -14 q 117 147 178 64 q 51 363 57 231 q 50 485 50 419 q 51 610 50 550 q 119 822 57 739 q 284 946 181 906 q 517 986 388 986 q 688 966 606 986 q 838 903 771 946 q 944 792 904 860 q 985 631 983 725 q 976 609 985 618 q 954 600 967 600 l 671 600 q 638 609 649 600 q 619 640 628 618 q 578 700 604 685 q 515 715 551 715 q 442 691 469 715 q 413 603 415 667 q 413 369 408 489 q 442 281 415 306 q 515 257 469 257 q 578 274 551 257 q 619 332 606 290 q 638 364 626 356 q 671 372 649 372 l 954 372 q 976 363 967 372 q 985 342 985 354 q 944 180 983 247 q 838 69 904 113 q 688 6 771 26 q 517 -14 606 -14 m 381 1042 q 358 1064 358 1042 q 365 1082 358 1075 l 504 1251 q 530 1274 519 1269 q 556 1278 540 1278 l 828 1278 q 854 1250 854 1278 q 847 1233 854 1240 l 643 1065 q 619 1049 632 1056 q 585 1042 607 1042 l 381 1042 z "},"Č":{"ha":1018,"x_min":50,"x_max":985,"o":"m 517 -14 q 281 25 383 -14 q 117 147 178 64 q 51 363 57 231 q 50 485 50 419 q 51 610 50 550 q 119 822 57 739 q 284 946 181 906 q 517 986 388 986 q 688 966 606 986 q 838 903 771 946 q 944 792 904 860 q 985 631 983 725 q 976 609 985 618 q 954 600 967 600 l 671 600 q 638 609 649 600 q 619 640 628 618 q 578 700 604 685 q 515 715 551 715 q 442 691 469 715 q 413 603 415 667 q 413 369 408 489 q 442 281 415 306 q 515 257 469 257 q 578 274 551 257 q 619 332 606 290 q 638 364 626 356 q 671 372 649 372 l 954 372 q 976 363 967 372 q 985 342 985 354 q 944 180 983 247 q 838 69 904 113 q 688 6 771 26 q 517 -14 606 -14 m 419 1042 q 393 1048 404 1042 q 368 1068 382 1054 l 213 1238 q 206 1256 206 1244 q 228 1278 206 1278 l 326 1278 q 354 1276 340 1278 q 382 1268 368 1275 l 510 1210 l 638 1268 q 666 1276 653 1275 q 693 1278 679 1278 l 792 1278 q 814 1256 814 1278 q 807 1238 814 1244 l 651 1068 q 626 1048 638 1054 q 600 1042 615 1042 l 419 1042 z "},"Ç":{"ha":1018,"x_min":50,"x_max":985,"o":"m 508 -306 q 442 -294 472 -306 q 399 -265 411 -282 q 401 -235 386 -249 l 431 -210 q 451 -201 443 -199 q 472 -208 460 -203 q 508 -214 485 -214 q 538 -203 528 -214 q 547 -181 547 -193 q 538 -158 547 -168 q 508 -147 529 -147 q 482 -151 496 -147 q 456 -155 468 -154 q 433 -147 443 -156 l 404 -118 q 393 -100 394 -108 q 401 -72 392 -92 l 429 -8 q 236 45 319 3 q 105 166 153 88 q 51 363 57 244 q 50 485 50 419 q 51 610 50 550 q 119 822 57 739 q 284 946 181 906 q 517 986 388 986 q 688 966 606 986 q 838 903 771 946 q 944 792 904 860 q 985 631 983 725 q 976 609 985 618 q 954 600 967 600 l 671 600 q 638 609 649 600 q 619 640 628 618 q 578 700 604 685 q 515 715 551 715 q 442 691 469 715 q 413 603 415 667 q 413 369 408 489 q 442 281 415 306 q 515 257 469 257 q 578 274 551 257 q 619 332 606 290 q 638 364 626 356 q 671 372 649 372 l 954 372 q 976 363 967 372 q 985 342 985 354 q 944 180 983 247 q 838 69 904 113 q 688 6 771 26 q 517 -14 606 -14 l 492 -62 q 515 -58 500 -60 q 533 -56 529 -56 q 616 -90 586 -56 q 646 -181 646 -125 q 608 -271 646 -236 q 508 -306 571 -306 z "},"Ĉ":{"ha":1018,"x_min":50,"x_max":985,"o":"m 517 -14 q 281 25 383 -14 q 117 147 178 64 q 51 363 57 231 q 50 485 50 419 q 51 610 50 550 q 119 822 57 739 q 284 946 181 906 q 517 986 388 986 q 688 966 606 986 q 838 903 771 946 q 944 792 904 860 q 985 631 983 725 q 976 609 985 618 q 954 600 967 600 l 671 600 q 638 609 649 600 q 619 640 628 618 q 578 700 604 685 q 515 715 551 715 q 442 691 469 715 q 413 603 415 667 q 413 369 408 489 q 442 281 415 306 q 515 257 469 257 q 578 274 551 257 q 619 332 606 290 q 638 364 626 356 q 671 372 649 372 l 954 372 q 976 363 967 372 q 985 342 985 354 q 944 180 983 247 q 838 69 904 113 q 688 6 771 26 q 517 -14 606 -14 m 228 1042 q 206 1064 206 1042 q 213 1082 206 1075 l 368 1251 q 393 1272 382 1267 q 419 1278 404 1278 l 600 1278 q 626 1272 615 1278 q 651 1251 638 1267 l 807 1082 q 814 1064 814 1075 q 792 1042 814 1042 l 693 1042 q 666 1043 679 1042 q 638 1051 653 1044 l 510 1110 l 382 1051 q 354 1043 368 1044 q 326 1042 340 1042 l 228 1042 z "},"Ċ":{"ha":1018,"x_min":50,"x_max":985,"o":"m 517 -14 q 281 25 383 -14 q 117 147 178 64 q 51 363 57 231 q 50 485 50 419 q 51 610 50 550 q 119 822 57 739 q 284 946 181 906 q 517 986 388 986 q 688 966 606 986 q 838 903 771 946 q 944 792 904 860 q 985 631 983 725 q 976 609 985 618 q 954 600 967 600 l 671 600 q 638 609 649 600 q 619 640 628 618 q 578 700 604 685 q 515 715 551 715 q 442 691 469 715 q 413 603 415 667 q 413 369 408 489 q 442 281 415 306 q 515 257 469 257 q 578 274 551 257 q 619 332 606 290 q 638 364 626 356 q 671 372 649 372 l 954 372 q 976 363 967 372 q 985 342 985 354 q 944 180 983 247 q 838 69 904 113 q 688 6 771 26 q 517 -14 606 -14 m 415 1042 q 392 1051 401 1042 q 383 1074 383 1060 l 383 1263 q 392 1285 383 1276 q 415 1294 401 1294 l 604 1294 q 627 1285 618 1294 q 636 1263 636 1276 l 636 1074 q 627 1051 636 1060 q 604 1042 618 1042 l 415 1042 z "},"D":{"ha":1028,"x_min":76,"x_max":981,"o":"m 114 0 q 88 11 99 0 q 76 38 76 22 l 76 935 q 88 961 76 950 q 114 972 99 972 l 514 972 q 747 928 644 972 q 912 800 850 885 q 978 590 974 715 q 981 485 981 531 q 978 383 981 440 q 914 167 972 253 q 755 41 856 82 q 521 0 654 0 l 114 0 m 424 271 l 514 271 q 569 283 544 271 q 608 319 593 294 q 625 383 624 344 q 628 456 628 424 q 628 520 629 488 q 625 590 628 553 q 588 675 622 649 q 507 701 554 701 l 424 701 l 424 271 z "},"Ð":{"ha":1064,"x_min":19,"x_max":1013,"o":"m 147 0 q 121 11 132 0 q 110 38 110 22 l 110 381 l 57 381 q 31 392 42 381 q 19 418 19 403 l 19 558 q 31 585 19 574 q 57 596 42 596 l 110 596 l 110 935 q 121 961 110 950 q 147 972 132 972 l 547 972 q 783 928 678 972 q 950 800 888 885 q 1013 590 1013 715 q 1013 488 1013 539 q 1013 383 1013 436 q 952 167 1013 253 q 787 41 892 82 q 549 0 682 0 l 147 0 m 457 271 l 547 271 q 601 283 578 271 q 638 319 625 294 q 651 383 651 344 q 651 452 651 418 q 651 521 651 486 q 651 590 651 556 q 623 675 651 649 q 547 701 594 701 l 457 701 l 457 596 l 535 596 q 561 585 550 596 q 572 558 572 574 l 572 418 q 561 392 572 403 q 535 381 550 381 l 457 381 l 457 271 z "},"Ď":{"ha":1028,"x_min":76,"x_max":981,"o":"m 114 0 q 88 11 99 0 q 76 38 76 22 l 76 935 q 88 961 76 950 q 114 972 99 972 l 514 972 q 747 928 644 972 q 912 800 850 885 q 978 590 974 715 q 981 485 981 531 q 978 383 981 440 q 914 167 972 253 q 755 41 856 82 q 521 0 654 0 l 114 0 m 424 271 l 514 271 q 569 283 544 271 q 608 319 593 294 q 625 383 624 344 q 628 456 628 424 q 628 520 629 488 q 625 590 628 553 q 588 675 622 649 q 507 701 554 701 l 424 701 l 424 271 m 415 1042 q 389 1048 400 1042 q 364 1068 378 1054 l 208 1238 q 201 1256 201 1244 q 224 1278 201 1278 l 322 1278 q 350 1276 336 1278 q 378 1268 364 1275 l 506 1210 l 633 1268 q 662 1276 649 1275 q 689 1278 675 1278 l 788 1278 q 810 1256 810 1278 q 803 1238 810 1244 l 647 1068 q 622 1048 633 1054 q 596 1042 611 1042 l 415 1042 z "},"Đ":{"ha":1061,"x_min":19,"x_max":1014,"o":"m 147 0 q 121 11 132 0 q 110 38 110 22 l 110 382 l 57 382 q 31 393 42 382 q 19 419 19 404 l 19 560 q 31 586 19 575 q 57 597 42 597 l 110 597 l 110 935 q 121 961 110 950 q 147 972 132 972 l 547 972 q 781 928 678 972 q 945 800 883 885 q 1011 590 1007 715 q 1014 485 1014 531 q 1011 383 1014 440 q 946 167 1006 253 q 784 41 886 82 q 549 0 682 0 l 147 0 m 457 271 l 547 271 q 602 283 578 271 q 642 319 626 294 q 658 383 657 344 q 662 456 661 424 q 662 520 663 488 q 658 590 661 553 q 625 675 656 649 q 547 701 594 701 l 457 701 l 457 597 l 535 597 q 561 586 550 597 q 572 560 572 575 l 572 419 q 561 393 572 404 q 535 382 550 382 l 457 382 l 457 271 z "},"E":{"ha":926,"x_min":76,"x_max":875,"o":"m 114 0 q 88 11 99 0 q 76 38 76 22 l 76 935 q 88 961 76 950 q 114 972 99 972 l 826 972 q 853 961 842 972 q 864 935 864 950 l 864 739 q 853 713 864 724 q 826 701 842 701 l 410 701 l 410 614 l 796 614 q 822 603 811 614 q 833 576 833 592 l 833 396 q 822 369 833 381 q 796 358 811 358 l 410 358 l 410 271 l 838 271 q 864 260 853 271 q 875 233 875 249 l 875 38 q 864 11 875 22 q 838 0 853 0 l 114 0 z "},"É":{"ha":926,"x_min":76,"x_max":875,"o":"m 114 0 q 88 11 99 0 q 76 38 76 22 l 76 935 q 88 961 76 950 q 114 972 99 972 l 826 972 q 853 961 842 972 q 864 935 864 950 l 864 739 q 853 713 864 724 q 826 701 842 701 l 410 701 l 410 614 l 796 614 q 822 603 811 614 q 833 576 833 592 l 833 396 q 822 369 833 381 q 796 358 811 358 l 410 358 l 410 271 l 838 271 q 864 260 853 271 q 875 233 875 249 l 875 38 q 864 11 875 22 q 838 0 853 0 l 114 0 m 335 1042 q 313 1064 313 1042 q 319 1082 313 1075 l 458 1251 q 484 1274 474 1269 q 510 1278 494 1278 l 782 1278 q 808 1250 808 1278 q 801 1233 808 1240 l 597 1065 q 574 1049 586 1056 q 539 1042 561 1042 l 335 1042 z "},"Ĕ":{"ha":926,"x_min":76,"x_max":875,"o":"m 114 0 q 88 11 99 0 q 76 38 76 22 l 76 935 q 88 961 76 950 q 114 972 99 972 l 826 972 q 853 961 842 972 q 864 935 864 950 l 864 739 q 853 713 864 724 q 826 701 842 701 l 410 701 l 410 614 l 796 614 q 822 603 811 614 q 833 576 833 592 l 833 396 q 822 369 833 381 q 796 358 811 358 l 410 358 l 410 271 l 838 271 q 864 260 853 271 q 875 233 875 249 l 875 38 q 864 11 875 22 q 838 0 853 0 l 114 0 m 464 1035 q 326 1063 381 1035 q 244 1140 271 1092 q 218 1251 218 1189 q 225 1270 218 1263 q 244 1278 232 1278 l 382 1278 q 401 1270 394 1278 q 408 1251 408 1263 q 419 1198 408 1221 q 464 1175 431 1175 q 508 1198 497 1175 q 519 1253 519 1221 q 526 1270 519 1263 q 546 1278 533 1278 l 683 1278 q 703 1270 696 1278 q 710 1251 710 1263 q 683 1140 710 1189 q 602 1063 657 1092 q 464 1035 547 1035 z "},"Ě":{"ha":926,"x_min":76,"x_max":875,"o":"m 114 0 q 88 11 99 0 q 76 38 76 22 l 76 935 q 88 961 76 950 q 114 972 99 972 l 826 972 q 853 961 842 972 q 864 935 864 950 l 864 739 q 853 713 864 724 q 826 701 842 701 l 410 701 l 410 614 l 796 614 q 822 603 811 614 q 833 576 833 592 l 833 396 q 822 369 833 381 q 796 358 811 358 l 410 358 l 410 271 l 838 271 q 864 260 853 271 q 875 233 875 249 l 875 38 q 864 11 875 22 q 838 0 853 0 l 114 0 m 374 1042 q 347 1048 358 1042 q 322 1068 336 1054 l 167 1238 q 160 1256 160 1244 q 182 1278 160 1278 l 281 1278 q 308 1276 294 1278 q 336 1268 322 1275 l 464 1210 l 592 1268 q 620 1276 607 1275 q 647 1278 633 1278 l 746 1278 q 768 1256 768 1278 q 761 1238 768 1244 l 606 1068 q 581 1048 592 1054 q 554 1042 569 1042 l 374 1042 z "},"Ê":{"ha":926,"x_min":76,"x_max":875,"o":"m 114 0 q 88 11 99 0 q 76 38 76 22 l 76 935 q 88 961 76 950 q 114 972 99 972 l 826 972 q 853 961 842 972 q 864 935 864 950 l 864 739 q 853 713 864 724 q 826 701 842 701 l 410 701 l 410 614 l 796 614 q 822 603 811 614 q 833 576 833 592 l 833 396 q 822 369 833 381 q 796 358 811 358 l 410 358 l 410 271 l 838 271 q 864 260 853 271 q 875 233 875 249 l 875 38 q 864 11 875 22 q 838 0 853 0 l 114 0 m 182 1042 q 160 1064 160 1042 q 167 1082 160 1075 l 322 1251 q 347 1272 336 1267 q 374 1278 358 1278 l 554 1278 q 581 1272 569 1278 q 606 1251 592 1267 l 761 1082 q 768 1064 768 1075 q 746 1042 768 1042 l 647 1042 q 620 1043 633 1042 q 592 1051 607 1044 l 464 1110 l 336 1051 q 308 1043 322 1044 q 281 1042 294 1042 l 182 1042 z "},"Ë":{"ha":926,"x_min":76,"x_max":875,"o":"m 114 0 q 88 11 99 0 q 76 38 76 22 l 76 935 q 88 961 76 950 q 114 972 99 972 l 826 972 q 853 961 842 972 q 864 935 864 950 l 864 739 q 853 713 864 724 q 826 701 842 701 l 410 701 l 410 614 l 796 614 q 822 603 811 614 q 833 576 833 592 l 833 396 q 822 369 833 381 q 796 358 811 358 l 410 358 l 410 271 l 838 271 q 864 260 853 271 q 875 233 875 249 l 875 38 q 864 11 875 22 q 838 0 853 0 l 114 0 m 564 1042 q 541 1051 550 1042 q 532 1074 532 1060 l 532 1246 q 541 1269 532 1260 q 564 1278 550 1278 l 736 1278 q 759 1269 750 1278 q 768 1246 768 1260 l 768 1074 q 759 1051 768 1060 q 736 1042 750 1042 l 564 1042 m 190 1042 q 167 1051 176 1042 q 158 1074 158 1060 l 158 1246 q 167 1269 158 1260 q 190 1278 176 1278 l 363 1278 q 385 1269 376 1278 q 394 1246 394 1260 l 394 1074 q 385 1051 394 1060 q 363 1042 376 1042 l 190 1042 z "},"Ė":{"ha":926,"x_min":76,"x_max":875,"o":"m 114 0 q 88 11 99 0 q 76 38 76 22 l 76 935 q 88 961 76 950 q 114 972 99 972 l 826 972 q 853 961 842 972 q 864 935 864 950 l 864 739 q 853 713 864 724 q 826 701 842 701 l 410 701 l 410 614 l 796 614 q 822 603 811 614 q 833 576 833 592 l 833 396 q 822 369 833 381 q 796 358 811 358 l 410 358 l 410 271 l 838 271 q 864 260 853 271 q 875 233 875 249 l 875 38 q 864 11 875 22 q 838 0 853 0 l 114 0 m 369 1042 q 347 1051 356 1042 q 338 1074 338 1060 l 338 1263 q 347 1285 338 1276 q 369 1294 356 1294 l 558 1294 q 581 1285 572 1294 q 590 1263 590 1276 l 590 1074 q 581 1051 590 1060 q 558 1042 572 1042 l 369 1042 z "},"È":{"ha":926,"x_min":76,"x_max":875,"o":"m 114 0 q 88 11 99 0 q 76 38 76 22 l 76 935 q 88 961 76 950 q 114 972 99 972 l 826 972 q 853 961 842 972 q 864 935 864 950 l 864 739 q 853 713 864 724 q 826 701 842 701 l 410 701 l 410 614 l 796 614 q 822 603 811 614 q 833 576 833 592 l 833 396 q 822 369 833 381 q 796 358 811 358 l 410 358 l 410 271 l 838 271 q 864 260 853 271 q 875 233 875 249 l 875 38 q 864 11 875 22 q 838 0 853 0 l 114 0 m 388 1042 q 353 1049 365 1042 q 329 1065 340 1056 l 125 1233 q 118 1250 118 1240 q 144 1278 118 1278 l 417 1278 q 442 1274 432 1278 q 468 1251 453 1269 l 607 1082 q 614 1064 614 1075 q 592 1042 614 1042 l 388 1042 z "},"Ē":{"ha":926,"x_min":76,"x_max":875,"o":"m 114 0 q 88 11 99 0 q 76 38 76 22 l 76 935 q 88 961 76 950 q 114 972 99 972 l 826 972 q 853 961 842 972 q 864 935 864 950 l 864 739 q 853 713 864 724 q 826 701 842 701 l 410 701 l 410 614 l 796 614 q 822 603 811 614 q 833 576 833 592 l 833 396 q 822 369 833 381 q 796 358 811 358 l 410 358 l 410 271 l 838 271 q 864 260 853 271 q 875 233 875 249 l 875 38 q 864 11 875 22 q 838 0 853 0 l 114 0 m 201 1042 q 178 1051 188 1042 q 169 1074 169 1060 l 169 1218 q 178 1241 169 1232 q 201 1250 188 1250 l 725 1250 q 748 1241 739 1250 q 757 1218 757 1232 l 757 1074 q 748 1051 757 1060 q 725 1042 739 1042 l 201 1042 z "},"Ę":{"ha":926,"x_min":76,"x_max":875,"o":"m 818 -306 q 682 -274 735 -306 q 604 -187 629 -242 q 579 -68 579 -133 q 581 -33 579 -49 q 586 0 583 -17 l 114 0 q 88 11 99 0 q 76 38 76 22 l 76 935 q 88 961 76 950 q 114 972 99 972 l 826 972 q 853 961 842 972 q 864 935 864 950 l 864 739 q 853 713 864 724 q 826 701 842 701 l 410 701 l 410 614 l 796 614 q 822 603 811 614 q 833 576 833 592 l 833 396 q 822 369 833 381 q 796 358 811 358 l 410 358 l 410 271 l 838 271 q 864 260 853 271 q 875 233 875 249 l 875 38 q 864 11 875 22 q 838 0 853 0 l 824 0 q 769 -23 783 0 q 754 -68 754 -46 q 769 -113 754 -90 q 824 -136 783 -136 l 838 -136 q 864 -147 853 -136 q 875 -174 875 -158 l 875 -268 q 864 -294 875 -283 q 838 -306 853 -306 l 818 -306 z "},"F":{"ha":897,"x_min":76,"x_max":851,"o":"m 114 0 q 88 11 99 0 q 76 38 76 22 l 76 935 q 88 961 76 950 q 114 972 99 972 l 814 972 q 840 961 829 972 q 851 935 851 950 l 851 724 q 840 697 851 708 q 814 686 829 686 l 417 686 l 417 583 l 786 583 q 813 572 801 583 q 824 546 824 561 l 824 336 q 813 310 824 321 q 786 299 801 299 l 417 299 l 417 38 q 406 11 417 22 q 379 0 394 0 l 114 0 z "},"G":{"ha":1046,"x_min":50,"x_max":997,"o":"m 519 -14 q 276 28 379 -14 q 115 154 174 69 q 51 368 57 239 q 50 492 50 425 q 51 618 50 558 q 116 823 57 742 q 279 945 175 904 q 519 986 383 986 q 717 962 629 986 q 867 894 804 938 q 963 795 929 851 q 997 676 996 739 q 988 655 997 664 q 967 646 979 646 l 660 646 q 635 650 644 646 q 619 661 626 654 q 603 681 614 668 q 574 705 593 694 q 519 715 554 715 q 442 690 468 715 q 413 611 415 664 q 413 375 408 496 q 444 285 415 313 q 525 257 474 257 q 586 267 560 257 q 628 299 613 276 q 643 356 643 321 l 643 357 l 578 357 q 551 368 563 357 q 540 394 540 379 l 540 549 q 551 575 540 564 q 578 586 563 586 l 960 586 q 986 575 975 586 q 997 549 997 564 l 997 368 q 936 158 997 243 q 767 30 875 74 q 519 -14 660 -14 z "},"Ğ":{"ha":1046,"x_min":50,"x_max":997,"o":"m 519 -14 q 276 28 379 -14 q 115 154 174 69 q 51 368 57 239 q 50 492 50 425 q 51 618 50 558 q 116 823 57 742 q 279 945 175 904 q 519 986 383 986 q 717 962 629 986 q 867 894 804 938 q 963 795 929 851 q 997 676 996 739 q 988 655 997 664 q 967 646 979 646 l 660 646 q 635 650 644 646 q 619 661 626 654 q 603 681 614 668 q 574 705 593 694 q 519 715 554 715 q 442 690 468 715 q 413 611 415 664 q 413 375 408 496 q 444 285 415 313 q 525 257 474 257 q 586 267 560 257 q 628 299 613 276 q 643 356 643 321 l 643 357 l 578 357 q 551 368 563 357 q 540 394 540 379 l 540 549 q 551 575 540 564 q 578 586 563 586 l 960 586 q 986 575 975 586 q 997 549 997 564 l 997 368 q 936 158 997 243 q 767 30 875 74 q 519 -14 660 -14 m 524 1035 q 385 1063 440 1035 q 304 1140 331 1092 q 278 1251 278 1189 q 285 1270 278 1263 q 304 1278 292 1278 l 442 1278 q 461 1270 454 1278 q 468 1251 468 1263 q 479 1198 468 1221 q 524 1175 490 1175 q 568 1198 557 1175 q 579 1253 579 1221 q 586 1270 579 1263 q 606 1278 593 1278 l 743 1278 q 763 1270 756 1278 q 769 1251 769 1263 q 743 1140 769 1189 q 662 1063 717 1092 q 524 1035 607 1035 z "},"Ĝ":{"ha":1046,"x_min":50,"x_max":997,"o":"m 519 -14 q 276 28 379 -14 q 115 154 174 69 q 51 368 57 239 q 50 492 50 425 q 51 618 50 558 q 116 823 57 742 q 279 945 175 904 q 519 986 383 986 q 717 962 629 986 q 867 894 804 938 q 963 795 929 851 q 997 676 996 739 q 988 655 997 664 q 967 646 979 646 l 660 646 q 635 650 644 646 q 619 661 626 654 q 603 681 614 668 q 574 705 593 694 q 519 715 554 715 q 442 690 468 715 q 413 611 415 664 q 413 375 408 496 q 444 285 415 313 q 525 257 474 257 q 586 267 560 257 q 628 299 613 276 q 643 356 643 321 l 643 357 l 578 357 q 551 368 563 357 q 540 394 540 379 l 540 549 q 551 575 540 564 q 578 586 563 586 l 960 586 q 986 575 975 586 q 997 549 997 564 l 997 368 q 936 158 997 243 q 767 30 875 74 q 519 -14 660 -14 m 242 1042 q 219 1064 219 1042 q 226 1082 219 1075 l 382 1251 q 407 1272 396 1267 q 433 1278 418 1278 l 614 1278 q 640 1272 629 1278 q 665 1251 651 1267 l 821 1082 q 828 1064 828 1075 q 806 1042 828 1042 l 707 1042 q 680 1043 693 1042 q 651 1051 667 1044 l 524 1110 l 396 1051 q 368 1043 382 1044 q 340 1042 354 1042 l 242 1042 z "},"Ģ":{"ha":1046,"x_min":50,"x_max":997,"o":"m 519 -14 q 276 28 379 -14 q 115 154 174 69 q 51 368 57 239 q 50 492 50 425 q 51 618 50 558 q 116 823 57 742 q 279 945 175 904 q 519 986 383 986 q 717 962 629 986 q 867 894 804 938 q 963 795 929 851 q 997 676 996 739 q 988 655 997 664 q 967 646 979 646 l 660 646 q 635 650 644 646 q 619 661 626 654 q 603 681 614 668 q 574 705 593 694 q 519 715 554 715 q 442 690 468 715 q 413 611 415 664 q 413 375 408 496 q 444 285 415 313 q 525 257 474 257 q 586 267 560 257 q 628 299 613 276 q 643 356 643 321 l 643 357 l 578 357 q 551 368 563 357 q 540 394 540 379 l 540 549 q 551 575 540 564 q 578 586 563 586 l 960 586 q 986 575 975 586 q 997 549 997 564 l 997 368 q 936 158 997 243 q 767 30 875 74 q 519 -14 660 -14 m 369 -347 q 348 -338 357 -347 q 339 -317 339 -329 l 368 -124 q 385 -87 371 -104 q 428 -69 400 -69 l 638 -69 q 659 -78 650 -69 q 668 -100 668 -87 q 667 -110 668 -106 l 590 -303 q 572 -332 585 -317 q 531 -347 558 -347 l 369 -347 z "},"Ġ":{"ha":1046,"x_min":50,"x_max":997,"o":"m 519 -14 q 276 28 379 -14 q 115 154 174 69 q 51 368 57 239 q 50 492 50 425 q 51 618 50 558 q 116 823 57 742 q 279 945 175 904 q 519 986 383 986 q 717 962 629 986 q 867 894 804 938 q 963 795 929 851 q 997 676 996 739 q 988 655 997 664 q 967 646 979 646 l 660 646 q 635 650 644 646 q 619 661 626 654 q 603 681 614 668 q 574 705 593 694 q 519 715 554 715 q 442 690 468 715 q 413 611 415 664 q 413 375 408 496 q 444 285 415 313 q 525 257 474 257 q 586 267 560 257 q 628 299 613 276 q 643 356 643 321 l 643 357 l 578 357 q 551 368 563 357 q 540 394 540 379 l 540 549 q 551 575 540 564 q 578 586 563 586 l 960 586 q 986 575 975 586 q 997 549 997 564 l 997 368 q 936 158 997 243 q 767 30 875 74 q 519 -14 660 -14 m 429 1042 q 406 1051 415 1042 q 397 1074 397 1060 l 397 1263 q 406 1285 397 1276 q 429 1294 415 1294 l 618 1294 q 641 1285 632 1294 q 650 1263 650 1276 l 650 1074 q 641 1051 650 1060 q 618 1042 632 1042 l 429 1042 z "},"H":{"ha":1072,"x_min":76,"x_max":996,"o":"m 114 0 q 88 10 99 0 q 76 38 76 21 l 76 935 q 88 961 76 950 q 114 972 99 972 l 386 972 q 413 961 401 972 q 424 935 424 950 l 424 643 l 649 643 l 649 935 q 660 961 649 950 q 686 972 671 972 l 958 972 q 985 961 974 972 q 996 935 996 950 l 996 38 q 985 11 996 22 q 958 0 974 0 l 686 0 q 660 11 671 0 q 649 38 649 22 l 649 338 l 424 338 l 424 38 q 413 11 424 22 q 386 0 401 0 l 114 0 z "},"Ħ":{"ha":1072,"x_min":76,"x_max":996,"o":"m 122 724 q 96 735 107 724 q 85 761 85 746 l 85 856 q 96 882 85 871 q 122 893 107 893 l 947 893 q 974 882 963 893 q 985 856 985 871 l 985 761 q 974 735 985 746 q 947 724 963 724 l 122 724 m 114 0 q 88 10 99 0 q 76 38 76 21 l 76 935 q 88 961 76 950 q 114 972 99 972 l 386 972 q 413 961 401 972 q 424 935 424 950 l 424 643 l 649 643 l 649 935 q 660 961 649 950 q 686 972 671 972 l 958 972 q 985 961 974 972 q 996 935 996 950 l 996 38 q 985 11 996 22 q 958 0 974 0 l 686 0 q 660 11 671 0 q 649 38 649 22 l 649 338 l 424 338 l 424 38 q 413 11 424 22 q 386 0 401 0 l 114 0 z "},"Ĥ":{"ha":1072,"x_min":76,"x_max":996,"o":"m 114 0 q 88 10 99 0 q 76 38 76 21 l 76 935 q 88 961 76 950 q 114 972 99 972 l 386 972 q 413 961 401 972 q 424 935 424 950 l 424 643 l 649 643 l 649 935 q 660 961 649 950 q 686 972 671 972 l 958 972 q 985 961 974 972 q 996 935 996 950 l 996 38 q 985 11 996 22 q 958 0 974 0 l 686 0 q 660 11 671 0 q 649 38 649 22 l 649 338 l 424 338 l 424 38 q 413 11 424 22 q 386 0 401 0 l 114 0 m 254 1042 q 232 1064 232 1042 q 239 1082 232 1075 l 394 1251 q 419 1272 408 1267 q 446 1278 431 1278 l 626 1278 q 653 1272 642 1278 q 678 1251 664 1267 l 833 1082 q 840 1064 840 1075 q 818 1042 840 1042 l 719 1042 q 692 1043 706 1042 q 664 1051 679 1044 l 536 1110 l 408 1051 q 381 1043 394 1044 q 353 1042 367 1042 l 254 1042 z "},"I":{"ha":511,"x_min":76,"x_max":435,"o":"m 114 0 q 88 11 99 0 q 76 38 76 22 l 76 935 q 88 961 76 950 q 114 972 99 972 l 397 972 q 424 961 413 972 q 435 935 435 950 l 435 38 q 424 11 435 22 q 397 0 413 0 l 114 0 z "},"Ĳ":{"ha":1121,"x_min":76,"x_max":1053,"o":"m 583 -14 q 557 -3 568 -14 q 546 24 546 8 l 546 247 q 557 274 546 263 q 583 285 568 285 q 667 313 642 285 q 693 414 693 340 l 693 935 q 704 961 693 950 q 731 972 715 972 l 1015 972 q 1042 961 1031 972 q 1053 935 1053 950 l 1053 358 q 996 130 1053 211 q 833 17 939 49 q 583 -14 728 -14 m 114 0 q 88 11 99 0 q 76 38 76 22 l 76 935 q 88 961 76 950 q 114 972 99 972 l 397 972 q 424 961 413 972 q 435 935 435 950 l 435 38 q 424 11 435 22 q 397 0 413 0 l 114 0 z "},"Í":{"ha":511,"x_min":76,"x_max":600,"o":"m 114 0 q 88 11 99 0 q 76 38 76 22 l 76 935 q 88 961 76 950 q 114 972 99 972 l 397 972 q 424 961 413 972 q 435 935 435 950 l 435 38 q 424 11 435 22 q 397 0 413 0 l 114 0 m 126 1042 q 104 1064 104 1042 q 111 1082 104 1075 l 250 1251 q 276 1274 265 1269 q 301 1278 286 1278 l 574 1278 q 600 1250 600 1278 q 593 1233 600 1240 l 389 1065 q 365 1049 378 1056 q 331 1042 353 1042 l 126 1042 z "},"Ĭ":{"ha":511,"x_min":10,"x_max":501,"o":"m 114 0 q 88 11 99 0 q 76 38 76 22 l 76 935 q 88 961 76 950 q 114 972 99 972 l 397 972 q 424 961 413 972 q 435 935 435 950 l 435 38 q 424 11 435 22 q 397 0 413 0 l 114 0 m 256 1035 q 117 1063 172 1035 q 36 1140 63 1092 q 10 1251 10 1189 q 17 1270 10 1263 q 36 1278 24 1278 l 174 1278 q 193 1270 186 1278 q 200 1251 200 1263 q 211 1198 200 1221 q 256 1175 222 1175 q 300 1198 289 1175 q 311 1253 311 1221 q 318 1270 311 1263 q 338 1278 325 1278 l 475 1278 q 494 1270 488 1278 q 501 1251 501 1263 q 475 1140 501 1189 q 394 1063 449 1092 q 256 1035 339 1035 z "},"Î":{"ha":511,"x_min":-49,"x_max":560,"o":"m 114 0 q 88 11 99 0 q 76 38 76 22 l 76 935 q 88 961 76 950 q 114 972 99 972 l 397 972 q 424 961 413 972 q 435 935 435 950 l 435 38 q 424 11 435 22 q 397 0 413 0 l 114 0 m -26 1042 q -49 1064 -49 1042 q -42 1082 -49 1075 l 114 1251 q 139 1272 128 1267 q 165 1278 150 1278 l 346 1278 q 372 1272 361 1278 q 397 1251 383 1267 l 553 1082 q 560 1064 560 1075 q 538 1042 560 1042 l 439 1042 q 412 1043 425 1042 q 383 1051 399 1044 l 256 1110 l 128 1051 q 100 1043 114 1044 q 72 1042 86 1042 l -26 1042 z "},"Ï":{"ha":511,"x_min":-50,"x_max":560,"o":"m 114 0 q 88 11 99 0 q 76 38 76 22 l 76 935 q 88 961 76 950 q 114 972 99 972 l 397 972 q 424 961 413 972 q 435 935 435 950 l 435 38 q 424 11 435 22 q 397 0 413 0 l 114 0 m 356 1042 q 333 1051 342 1042 q 324 1074 324 1060 l 324 1246 q 333 1269 324 1260 q 356 1278 342 1278 l 528 1278 q 551 1269 542 1278 q 560 1246 560 1260 l 560 1074 q 551 1051 560 1060 q 528 1042 542 1042 l 356 1042 m -18 1042 q -41 1051 -32 1042 q -50 1074 -50 1060 l -50 1246 q -41 1269 -50 1260 q -18 1278 -32 1278 l 154 1278 q 177 1269 168 1278 q 186 1246 186 1260 l 186 1074 q 177 1051 186 1060 q 154 1042 168 1042 l -18 1042 z "},"İ":{"ha":511,"x_min":76,"x_max":435,"o":"m 114 0 q 88 11 99 0 q 76 38 76 22 l 76 935 q 88 961 76 950 q 114 972 99 972 l 397 972 q 424 961 413 972 q 435 935 435 950 l 435 38 q 424 11 435 22 q 397 0 413 0 l 114 0 m 161 1042 q 138 1051 147 1042 q 129 1074 129 1060 l 129 1263 q 138 1285 129 1276 q 161 1294 147 1294 l 350 1294 q 373 1285 364 1294 q 382 1263 382 1276 l 382 1074 q 373 1051 382 1060 q 350 1042 364 1042 l 161 1042 z "},"Ì":{"ha":511,"x_min":-90,"x_max":435,"o":"m 114 0 q 88 11 99 0 q 76 38 76 22 l 76 935 q 88 961 76 950 q 114 972 99 972 l 397 972 q 424 961 413 972 q 435 935 435 950 l 435 38 q 424 11 435 22 q 397 0 413 0 l 114 0 m 179 1042 q 144 1049 157 1042 q 121 1065 132 1056 l -83 1233 q -90 1250 -90 1240 q -64 1278 -90 1278 l 208 1278 q 234 1274 224 1278 q 260 1251 244 1269 l 399 1082 q 406 1064 406 1075 q 383 1042 406 1042 l 179 1042 z "},"Ī":{"ha":511,"x_min":-39,"x_max":549,"o":"m 114 0 q 88 11 99 0 q 76 38 76 22 l 76 935 q 88 961 76 950 q 114 972 99 972 l 397 972 q 424 961 413 972 q 435 935 435 950 l 435 38 q 424 11 435 22 q 397 0 413 0 l 114 0 m -7 1042 q -30 1051 -21 1042 q -39 1074 -39 1060 l -39 1218 q -30 1241 -39 1232 q -7 1250 -21 1250 l 517 1250 q 540 1241 531 1250 q 549 1218 549 1232 l 549 1074 q 540 1051 549 1060 q 517 1042 531 1042 l -7 1042 z "},"Į":{"ha":511,"x_min":76,"x_max":435,"o":"m 378 -308 q 242 -276 294 -308 q 164 -190 189 -244 q 139 -69 139 -135 q 141 -33 139 -50 q 146 0 143 -17 l 114 0 q 88 11 99 0 q 76 38 76 22 l 76 935 q 88 961 76 950 q 114 972 99 972 l 397 972 q 424 961 413 972 q 435 935 435 950 l 435 38 q 424 11 435 22 q 397 0 413 0 l 383 0 q 328 -24 343 0 q 314 -69 314 -47 q 328 -115 314 -92 q 383 -139 343 -139 l 397 -139 q 424 -150 413 -139 q 435 -176 435 -161 l 435 -271 q 424 -297 435 -286 q 397 -308 413 -308 l 378 -308 z "},"Ĩ":{"ha":511,"x_min":-28,"x_max":538,"o":"m 114 0 q 88 11 99 0 q 76 38 76 22 l 76 935 q 88 961 76 950 q 114 972 99 972 l 397 972 q 424 961 413 972 q 435 935 435 950 l 435 38 q 424 11 435 22 q 397 0 413 0 l 114 0 m 349 1035 q 281 1047 307 1035 q 233 1072 254 1060 q 185 1085 213 1085 q 154 1074 164 1085 q 138 1053 144 1064 q 115 1042 131 1042 l -1 1042 q -19 1049 -11 1042 q -28 1067 -28 1057 q -19 1127 -28 1090 q 10 1200 -11 1164 q 67 1260 31 1236 q 161 1285 104 1285 q 229 1272 203 1285 q 277 1247 256 1260 q 325 1235 299 1235 q 355 1246 346 1235 q 372 1267 364 1257 q 394 1278 379 1278 l 511 1278 q 531 1270 524 1278 q 538 1251 538 1263 q 529 1192 538 1228 q 500 1119 521 1156 q 442 1059 479 1083 q 349 1035 406 1035 z "},"J":{"ha":975,"x_min":14,"x_max":907,"o":"m 454 -14 q 290 8 368 -14 q 149 74 211 31 q 51 181 88 118 q 14 326 15 244 q 23 348 14 339 q 44 357 32 357 l 328 357 q 363 347 351 357 q 385 313 375 336 q 404 282 394 294 q 428 263 414 269 q 465 257 443 257 q 525 281 503 257 q 547 369 547 306 l 547 690 l 135 690 q 108 701 119 690 q 97 728 97 713 l 97 935 q 108 961 97 950 q 135 972 119 972 l 869 972 q 896 961 885 972 q 907 935 907 950 l 907 358 q 847 148 907 231 q 683 26 786 65 q 454 -14 581 -14 z "},"Ĵ":{"ha":975,"x_min":14,"x_max":907,"o":"m 454 -14 q 290 8 368 -14 q 149 74 211 31 q 51 181 88 118 q 14 326 15 244 q 23 348 14 339 q 44 357 32 357 l 328 357 q 363 347 351 357 q 385 313 375 336 q 404 282 394 294 q 428 263 414 269 q 465 257 443 257 q 525 281 503 257 q 547 369 547 306 l 547 690 l 135 690 q 108 701 119 690 q 97 728 97 713 l 97 935 q 108 961 97 950 q 135 972 119 972 l 869 972 q 896 961 885 972 q 907 935 907 950 l 907 358 q 847 148 907 231 q 683 26 786 65 q 454 -14 581 -14 m 233 1042 q 211 1064 211 1042 q 218 1082 211 1075 l 374 1251 q 399 1272 388 1267 q 425 1278 410 1278 l 606 1278 q 632 1272 621 1278 q 657 1251 643 1267 l 813 1082 q 819 1064 819 1075 q 797 1042 819 1042 l 699 1042 q 672 1043 685 1042 q 643 1051 658 1044 l 515 1110 l 388 1051 q 360 1043 374 1044 q 332 1042 346 1042 l 233 1042 z "},"K":{"ha":993,"x_min":76,"x_max":990,"o":"m 114 0 q 88 11 99 0 q 76 38 76 22 l 76 935 q 88 961 76 950 q 114 972 99 972 l 379 972 q 406 961 394 972 q 417 935 417 950 l 417 660 l 574 942 q 594 963 581 953 q 629 972 607 972 l 936 972 q 958 963 949 972 q 967 942 967 954 q 963 926 967 933 l 713 507 l 986 46 q 990 31 990 40 q 981 9 990 18 q 960 0 972 0 l 643 0 q 602 13 615 0 q 586 32 589 26 l 417 335 l 417 38 q 406 11 417 22 q 379 0 394 0 l 114 0 z "},"Ķ":{"ha":993,"x_min":76,"x_max":990,"o":"m 114 0 q 88 11 99 0 q 76 38 76 22 l 76 935 q 88 961 76 950 q 114 972 99 972 l 379 972 q 406 961 394 972 q 417 935 417 950 l 417 660 l 574 942 q 594 963 581 953 q 629 972 607 972 l 936 972 q 958 963 949 972 q 967 942 967 954 q 963 926 967 933 l 713 507 l 986 46 q 990 31 990 40 q 981 9 990 18 q 960 0 972 0 l 643 0 q 602 13 615 0 q 586 32 589 26 l 417 335 l 417 38 q 406 11 417 22 q 379 0 394 0 l 114 0 m 343 -347 q 322 -338 331 -347 q 313 -317 313 -329 l 342 -124 q 359 -87 344 -104 q 401 -69 374 -69 l 611 -69 q 633 -78 624 -69 q 642 -100 642 -87 q 640 -110 642 -106 l 564 -303 q 545 -332 558 -317 q 504 -347 532 -347 l 343 -347 z "},"L":{"ha":869,"x_min":76,"x_max":851,"o":"m 114 0 q 88 11 99 0 q 76 38 76 22 l 76 935 q 88 961 76 950 q 114 972 99 972 l 392 972 q 418 961 407 972 q 429 935 429 950 l 429 285 l 814 285 q 840 274 829 285 q 851 247 851 263 l 851 38 q 840 11 851 22 q 814 0 829 0 l 114 0 z "},"Ĺ":{"ha":869,"x_min":76,"x_max":851,"o":"m 114 0 q 88 11 99 0 q 76 38 76 22 l 76 935 q 88 961 76 950 q 114 972 99 972 l 392 972 q 418 961 407 972 q 429 935 429 950 l 429 285 l 814 285 q 840 274 829 285 q 851 247 851 263 l 851 38 q 840 11 851 22 q 814 0 829 0 l 114 0 m 111 1042 q 89 1064 89 1042 q 96 1082 89 1075 l 235 1251 q 260 1274 250 1269 q 286 1278 271 1278 l 558 1278 q 585 1250 585 1278 q 578 1233 585 1240 l 374 1065 q 350 1049 363 1056 q 315 1042 338 1042 l 111 1042 z "},"Ľ":{"ha":869,"x_min":76,"x_max":851,"o":"m 114 0 q 88 11 99 0 q 76 38 76 22 l 76 935 q 88 961 76 950 q 114 972 99 972 l 392 972 q 418 961 407 972 q 429 935 429 950 l 429 285 l 814 285 q 840 274 829 285 q 851 247 851 263 l 851 38 q 840 11 851 22 q 814 0 829 0 l 114 0 m 549 624 q 527 633 536 624 q 518 654 518 642 l 547 847 q 565 884 550 867 q 607 901 579 901 l 801 901 q 823 892 814 901 q 832 871 832 883 q 831 861 832 865 l 754 668 q 735 639 749 654 q 694 624 722 624 l 549 624 z "},"Ļ":{"ha":869,"x_min":76,"x_max":851,"o":"m 114 0 q 88 11 99 0 q 76 38 76 22 l 76 935 q 88 961 76 950 q 114 972 99 972 l 392 972 q 418 961 407 972 q 429 935 429 950 l 429 285 l 814 285 q 840 274 829 285 q 851 247 851 263 l 851 38 q 840 11 851 22 q 814 0 829 0 l 114 0 m 281 -347 q 259 -338 268 -347 q 250 -317 250 -329 l 279 -124 q 297 -87 282 -104 q 339 -69 311 -69 l 549 -69 q 570 -78 561 -69 q 579 -100 579 -87 q 578 -110 579 -106 l 501 -303 q 483 -332 496 -317 q 442 -347 469 -347 l 281 -347 z "},"Ŀ":{"ha":874,"x_min":76,"x_max":851,"o":"m 114 0 q 88 11 99 0 q 76 38 76 22 l 76 935 q 88 961 76 950 q 114 972 99 972 l 392 972 q 418 961 407 972 q 429 935 429 950 l 429 285 l 814 285 q 840 274 829 285 q 851 247 851 263 l 851 38 q 840 11 851 22 q 814 0 829 0 l 114 0 m 596 432 q 573 441 582 432 q 564 464 564 450 l 564 646 q 573 669 564 660 q 596 678 582 678 l 778 678 q 801 669 792 678 q 810 646 810 660 l 810 464 q 801 441 810 450 q 778 432 792 432 l 596 432 z "},"Ł":{"ha":881,"x_min":18,"x_max":863,"o":"m 125 0 q 99 11 110 0 q 88 38 88 22 l 88 313 l 63 303 q 47 299 53 299 q 26 307 35 299 q 18 328 18 315 l 18 478 q 25 508 18 497 q 49 524 32 518 l 88 539 l 88 935 q 99 961 88 950 q 125 972 110 972 l 403 972 q 429 961 418 972 q 440 935 440 950 l 440 678 l 642 757 q 657 761 653 761 q 678 753 669 761 q 686 732 686 744 l 686 582 q 679 553 686 564 q 656 536 672 543 l 440 451 l 440 285 l 825 285 q 851 274 840 285 q 863 247 863 263 l 863 38 q 851 11 863 22 q 825 0 840 0 l 125 0 z "},"M":{"ha":1189,"x_min":76,"x_max":1113,"o":"m 114 0 q 88 11 99 0 q 76 38 76 22 l 76 935 q 88 961 76 950 q 114 972 99 972 l 333 972 q 375 957 361 972 q 393 935 389 942 l 594 601 l 796 935 q 814 957 800 942 q 856 972 828 972 l 1075 972 q 1101 961 1090 972 q 1113 935 1113 950 l 1113 38 q 1101 11 1113 22 q 1075 0 1090 0 l 824 0 q 797 11 808 0 q 786 38 786 22 l 786 418 l 694 268 q 676 245 688 257 q 643 233 664 233 l 546 233 q 513 245 525 233 q 494 268 501 257 l 403 418 l 403 38 q 392 11 403 22 q 365 0 381 0 l 114 0 z "},"N":{"ha":1028,"x_min":76,"x_max":951,"o":"m 114 0 q 88 11 99 0 q 76 38 76 22 l 76 935 q 88 961 76 950 q 114 972 99 972 l 333 972 q 374 960 361 972 q 390 940 386 947 l 625 556 l 625 935 q 636 961 625 950 q 663 972 647 972 l 914 972 q 940 961 929 972 q 951 935 951 950 l 951 38 q 940 11 951 22 q 914 0 929 0 l 694 0 q 654 13 667 0 q 638 32 642 26 l 403 386 l 403 38 q 392 11 403 22 q 365 0 381 0 l 114 0 z "},"Ń":{"ha":1028,"x_min":76,"x_max":951,"o":"m 114 0 q 88 11 99 0 q 76 38 76 22 l 76 935 q 88 961 76 950 q 114 972 99 972 l 333 972 q 374 960 361 972 q 390 940 386 947 l 625 556 l 625 935 q 636 961 625 950 q 663 972 647 972 l 914 972 q 940 961 929 972 q 951 935 951 950 l 951 38 q 940 11 951 22 q 914 0 929 0 l 694 0 q 654 13 667 0 q 638 32 642 26 l 403 386 l 403 38 q 392 11 403 22 q 365 0 381 0 l 114 0 m 385 1042 q 363 1064 363 1042 q 369 1082 363 1075 l 508 1251 q 534 1274 524 1269 q 560 1278 544 1278 l 832 1278 q 858 1250 858 1278 q 851 1233 858 1240 l 647 1065 q 624 1049 636 1056 q 589 1042 611 1042 l 385 1042 z "},"Ň":{"ha":1028,"x_min":76,"x_max":951,"o":"m 114 0 q 88 11 99 0 q 76 38 76 22 l 76 935 q 88 961 76 950 q 114 972 99 972 l 333 972 q 374 960 361 972 q 390 940 386 947 l 625 556 l 625 935 q 636 961 625 950 q 663 972 647 972 l 914 972 q 940 961 929 972 q 951 935 951 950 l 951 38 q 940 11 951 22 q 914 0 929 0 l 694 0 q 654 13 667 0 q 638 32 642 26 l 403 386 l 403 38 q 392 11 403 22 q 365 0 381 0 l 114 0 m 424 1042 q 397 1048 408 1042 q 372 1068 386 1054 l 217 1238 q 210 1256 210 1244 q 232 1278 210 1278 l 331 1278 q 358 1276 344 1278 q 386 1268 372 1275 l 514 1210 l 642 1268 q 670 1276 657 1275 q 697 1278 683 1278 l 796 1278 q 818 1256 818 1278 q 811 1238 818 1244 l 656 1068 q 631 1048 642 1054 q 604 1042 619 1042 l 424 1042 z "},"Ņ":{"ha":1028,"x_min":76,"x_max":951,"o":"m 114 0 q 88 11 99 0 q 76 38 76 22 l 76 935 q 88 961 76 950 q 114 972 99 972 l 333 972 q 374 960 361 972 q 390 940 386 947 l 625 556 l 625 935 q 636 961 625 950 q 663 972 647 972 l 914 972 q 940 961 929 972 q 951 935 951 950 l 951 38 q 940 11 951 22 q 914 0 929 0 l 694 0 q 654 13 667 0 q 638 32 642 26 l 403 386 l 403 38 q 392 11 403 22 q 365 0 381 0 l 114 0 m 365 -347 q 344 -338 353 -347 q 335 -317 335 -329 l 364 -124 q 381 -87 367 -104 q 424 -69 396 -69 l 633 -69 q 655 -78 646 -69 q 664 -100 664 -87 q 663 -110 664 -106 l 586 -303 q 567 -332 581 -317 q 526 -347 554 -347 l 365 -347 z "},"Ñ":{"ha":1028,"x_min":76,"x_max":951,"o":"m 114 0 q 88 11 99 0 q 76 38 76 22 l 76 935 q 88 961 76 950 q 114 972 99 972 l 333 972 q 374 960 361 972 q 390 940 386 947 l 625 556 l 625 935 q 636 961 625 950 q 663 972 647 972 l 914 972 q 940 961 929 972 q 951 935 951 950 l 951 38 q 940 11 951 22 q 914 0 929 0 l 694 0 q 654 13 667 0 q 638 32 642 26 l 403 386 l 403 38 q 392 11 403 22 q 365 0 381 0 l 114 0 m 607 1035 q 539 1047 565 1035 q 492 1072 513 1060 q 443 1085 471 1085 q 413 1074 422 1085 q 396 1053 403 1064 q 374 1042 389 1042 l 257 1042 q 239 1049 247 1042 q 231 1067 231 1057 q 239 1127 231 1090 q 268 1200 247 1164 q 326 1260 289 1236 q 419 1285 363 1285 q 488 1272 461 1285 q 535 1247 514 1260 q 583 1235 557 1235 q 613 1246 604 1235 q 630 1267 622 1257 q 653 1278 638 1278 l 769 1278 q 789 1270 782 1278 q 796 1251 796 1263 q 788 1192 796 1228 q 758 1119 779 1156 q 701 1059 738 1083 q 607 1035 664 1035 z "},"Ŋ":{"ha":1028,"x_min":76,"x_max":951,"o":"m 476 -312 q 450 -301 461 -312 q 439 -275 439 -290 l 439 -68 q 450 -42 439 -53 q 476 -31 461 -31 l 532 -31 q 583 -20 563 -31 q 614 8 603 -10 q 625 50 625 26 l 625 53 l 403 386 l 403 38 q 392 11 403 22 q 365 0 381 0 l 114 0 q 88 11 99 0 q 76 38 76 22 l 76 935 q 88 961 76 950 q 114 972 99 972 l 333 972 q 374 960 361 972 q 390 940 386 947 l 625 556 l 625 935 q 636 961 625 950 q 663 972 647 972 l 914 972 q 940 961 929 972 q 951 935 951 950 l 951 36 q 891 -160 951 -82 q 728 -275 831 -237 q 499 -312 625 -312 l 476 -312 z "},"O":{"ha":1031,"x_min":50,"x_max":982,"o":"m 515 -14 q 277 28 379 -14 q 116 153 175 69 q 51 361 57 238 q 50 482 50 418 q 51 606 50 546 q 115 813 57 728 q 276 942 174 897 q 515 986 379 986 q 754 942 651 986 q 916 813 857 897 q 979 606 975 728 q 982 482 982 546 q 979 361 982 418 q 915 153 974 238 q 753 28 856 69 q 515 -14 651 -14 m 515 257 q 589 284 561 257 q 618 369 617 311 q 621 488 621 429 q 618 603 621 546 q 603 667 617 642 q 568 703 590 692 q 515 715 546 715 q 463 703 486 715 q 427 667 440 692 q 413 603 414 642 q 411 488 411 546 q 413 369 411 429 q 442 284 415 311 q 515 257 469 257 z "},"Ó":{"ha":1031,"x_min":50,"x_max":982,"o":"m 515 -14 q 277 28 379 -14 q 116 153 175 69 q 51 361 57 238 q 50 482 50 418 q 51 606 50 546 q 115 813 57 728 q 276 942 174 897 q 515 986 379 986 q 754 942 651 986 q 916 813 857 897 q 979 606 975 728 q 982 482 982 546 q 979 361 982 418 q 915 153 974 238 q 753 28 856 69 q 515 -14 651 -14 m 515 257 q 589 284 561 257 q 618 369 617 311 q 621 488 621 429 q 618 603 621 546 q 603 667 617 642 q 568 703 590 692 q 515 715 546 715 q 463 703 486 715 q 427 667 440 692 q 413 603 414 642 q 411 488 411 546 q 413 369 411 429 q 442 284 415 311 q 515 257 469 257 m 386 1042 q 364 1064 364 1042 q 371 1082 364 1075 l 510 1251 q 535 1274 525 1269 q 561 1278 546 1278 l 833 1278 q 860 1250 860 1278 q 853 1233 860 1240 l 649 1065 q 625 1049 638 1056 q 590 1042 613 1042 l 386 1042 z "},"Ŏ":{"ha":1031,"x_min":50,"x_max":982,"o":"m 515 -14 q 277 28 379 -14 q 116 153 175 69 q 51 361 57 238 q 50 482 50 418 q 51 606 50 546 q 115 813 57 728 q 276 942 174 897 q 515 986 379 986 q 754 942 651 986 q 916 813 857 897 q 979 606 975 728 q 982 482 982 546 q 979 361 982 418 q 915 153 974 238 q 753 28 856 69 q 515 -14 651 -14 m 515 257 q 589 284 561 257 q 618 369 617 311 q 621 488 621 429 q 618 603 621 546 q 603 667 617 642 q 568 703 590 692 q 515 715 546 715 q 463 703 486 715 q 427 667 440 692 q 413 603 414 642 q 411 488 411 546 q 413 369 411 429 q 442 284 415 311 q 515 257 469 257 m 515 1035 q 377 1063 432 1035 q 296 1140 322 1092 q 269 1251 269 1189 q 276 1270 269 1263 q 296 1278 283 1278 l 433 1278 q 453 1270 446 1278 q 460 1251 460 1263 q 471 1198 460 1221 q 515 1175 482 1175 q 560 1198 549 1175 q 571 1253 571 1221 q 578 1270 571 1263 q 597 1278 585 1278 l 735 1278 q 754 1270 747 1278 q 761 1251 761 1263 q 735 1140 761 1189 q 653 1063 708 1092 q 515 1035 599 1035 z "},"Ô":{"ha":1031,"x_min":50,"x_max":982,"o":"m 515 -14 q 277 28 379 -14 q 116 153 175 69 q 51 361 57 238 q 50 482 50 418 q 51 606 50 546 q 115 813 57 728 q 276 942 174 897 q 515 986 379 986 q 754 942 651 986 q 916 813 857 897 q 979 606 975 728 q 982 482 982 546 q 979 361 982 418 q 915 153 974 238 q 753 28 856 69 q 515 -14 651 -14 m 515 257 q 589 284 561 257 q 618 369 617 311 q 621 488 621 429 q 618 603 621 546 q 603 667 617 642 q 568 703 590 692 q 515 715 546 715 q 463 703 486 715 q 427 667 440 692 q 413 603 414 642 q 411 488 411 546 q 413 369 411 429 q 442 284 415 311 q 515 257 469 257 m 233 1042 q 211 1064 211 1042 q 218 1082 211 1075 l 374 1251 q 399 1272 388 1267 q 425 1278 410 1278 l 606 1278 q 632 1272 621 1278 q 657 1251 643 1267 l 813 1082 q 819 1064 819 1075 q 797 1042 819 1042 l 699 1042 q 672 1043 685 1042 q 643 1051 658 1044 l 515 1110 l 388 1051 q 360 1043 374 1044 q 332 1042 346 1042 l 233 1042 z "},"Ö":{"ha":1031,"x_min":50,"x_max":982,"o":"m 515 -14 q 277 28 379 -14 q 116 153 175 69 q 51 361 57 238 q 50 482 50 418 q 51 606 50 546 q 115 813 57 728 q 276 942 174 897 q 515 986 379 986 q 754 942 651 986 q 916 813 857 897 q 979 606 975 728 q 982 482 982 546 q 979 361 982 418 q 915 153 974 238 q 753 28 856 69 q 515 -14 651 -14 m 515 257 q 589 284 561 257 q 618 369 617 311 q 621 488 621 429 q 618 603 621 546 q 603 667 617 642 q 568 703 590 692 q 515 715 546 715 q 463 703 486 715 q 427 667 440 692 q 413 603 414 642 q 411 488 411 546 q 413 369 411 429 q 442 284 415 311 q 515 257 469 257 m 615 1042 q 592 1051 601 1042 q 583 1074 583 1060 l 583 1246 q 592 1269 583 1260 q 615 1278 601 1278 l 788 1278 q 810 1269 801 1278 q 819 1246 819 1260 l 819 1074 q 810 1051 819 1060 q 788 1042 801 1042 l 615 1042 m 242 1042 q 219 1051 228 1042 q 210 1074 210 1060 l 210 1246 q 219 1269 210 1260 q 242 1278 228 1278 l 414 1278 q 437 1269 428 1278 q 446 1246 446 1260 l 446 1074 q 437 1051 446 1060 q 414 1042 428 1042 l 242 1042 z "},"Ò":{"ha":1031,"x_min":50,"x_max":982,"o":"m 515 -14 q 277 28 379 -14 q 116 153 175 69 q 51 361 57 238 q 50 482 50 418 q 51 606 50 546 q 115 813 57 728 q 276 942 174 897 q 515 986 379 986 q 754 942 651 986 q 916 813 857 897 q 979 606 975 728 q 982 482 982 546 q 979 361 982 418 q 915 153 974 238 q 753 28 856 69 q 515 -14 651 -14 m 515 257 q 589 284 561 257 q 618 369 617 311 q 621 488 621 429 q 618 603 621 546 q 603 667 617 642 q 568 703 590 692 q 515 715 546 715 q 463 703 486 715 q 427 667 440 692 q 413 603 414 642 q 411 488 411 546 q 413 369 411 429 q 442 284 415 311 q 515 257 469 257 m 439 1042 q 404 1049 417 1042 q 381 1065 392 1056 l 176 1233 q 169 1250 169 1240 q 196 1278 169 1278 l 468 1278 q 494 1274 483 1278 q 519 1251 504 1269 l 658 1082 q 665 1064 665 1075 q 643 1042 665 1042 l 439 1042 z "},"Ő":{"ha":1031,"x_min":50,"x_max":982,"o":"m 515 -14 q 277 28 379 -14 q 116 153 175 69 q 51 361 57 238 q 50 482 50 418 q 51 606 50 546 q 115 813 57 728 q 276 942 174 897 q 515 986 379 986 q 754 942 651 986 q 916 813 857 897 q 979 606 975 728 q 982 482 982 546 q 979 361 982 418 q 915 153 974 238 q 753 28 856 69 q 515 -14 651 -14 m 515 257 q 589 284 561 257 q 618 369 617 311 q 621 488 621 429 q 618 603 621 546 q 603 667 617 642 q 568 703 590 692 q 515 715 546 715 q 463 703 486 715 q 427 667 440 692 q 413 603 414 642 q 411 488 411 546 q 413 369 411 429 q 442 284 415 311 q 515 257 469 257 m 615 1042 q 593 1064 593 1042 q 596 1075 593 1069 q 600 1085 599 1081 l 675 1251 q 726 1278 688 1278 l 944 1278 q 972 1251 972 1278 q 964 1233 972 1242 l 806 1061 q 758 1042 789 1042 l 615 1042 m 275 1042 q 253 1064 253 1042 q 256 1075 253 1069 q 260 1085 258 1081 l 335 1251 q 386 1278 347 1278 l 604 1278 q 632 1251 632 1278 q 624 1233 632 1242 l 465 1061 q 418 1042 449 1042 l 275 1042 z "},"Ō":{"ha":1031,"x_min":50,"x_max":982,"o":"m 515 -14 q 277 28 379 -14 q 116 153 175 69 q 51 361 57 238 q 50 482 50 418 q 51 606 50 546 q 115 813 57 728 q 276 942 174 897 q 515 986 379 986 q 754 942 651 986 q 916 813 857 897 q 979 606 975 728 q 982 482 982 546 q 979 361 982 418 q 915 153 974 238 q 753 28 856 69 q 515 -14 651 -14 m 515 257 q 589 284 561 257 q 618 369 617 311 q 621 488 621 429 q 618 603 621 546 q 603 667 617 642 q 568 703 590 692 q 515 715 546 715 q 463 703 486 715 q 427 667 440 692 q 413 603 414 642 q 411 488 411 546 q 413 369 411 429 q 442 284 415 311 q 515 257 469 257 m 253 1042 q 230 1051 239 1042 q 221 1074 221 1060 l 221 1218 q 230 1241 221 1232 q 253 1250 239 1250 l 776 1250 q 799 1241 790 1250 q 808 1218 808 1232 l 808 1074 q 799 1051 808 1060 q 776 1042 790 1042 l 253 1042 z "},"Ø":{"ha":1031,"x_min":50,"x_max":982,"o":"m 515 -14 q 277 28 379 -14 q 116 153 175 69 q 51 361 57 238 q 50 482 50 418 q 51 606 50 546 q 115 813 57 728 q 276 942 174 897 q 515 986 379 986 q 754 942 651 986 q 916 813 857 897 q 979 606 975 728 q 982 482 982 546 q 979 361 982 418 q 915 153 974 238 q 753 28 856 69 q 515 -14 651 -14 m 515 257 q 589 284 561 257 q 618 369 617 311 q 621 488 621 429 q 618 603 621 546 q 603 667 617 642 q 568 703 590 692 q 515 715 546 715 q 463 703 486 715 q 427 667 440 692 q 413 603 414 642 q 411 488 411 546 q 413 369 411 429 q 442 284 415 311 q 515 257 469 257 m 104 -90 q 79 -74 86 -90 q 86 -36 72 -58 l 835 1043 q 845 1055 838 1047 q 867 1063 853 1063 l 929 1063 q 954 1044 949 1063 q 949 1011 960 1026 l 197 -69 q 187 -82 194 -74 q 163 -90 179 -90 l 104 -90 z "},"Ǿ":{"ha":1031,"x_min":50,"x_max":982,"o":"m 515 -14 q 277 28 379 -14 q 116 153 175 69 q 51 361 57 238 q 50 482 50 418 q 51 606 50 546 q 115 813 57 728 q 276 942 174 897 q 515 986 379 986 q 754 942 651 986 q 916 813 857 897 q 979 606 975 728 q 982 482 982 546 q 979 361 982 418 q 915 153 974 238 q 753 28 856 69 q 515 -14 651 -14 m 515 257 q 589 284 561 257 q 618 369 617 311 q 621 488 621 429 q 618 603 621 546 q 603 667 617 642 q 568 703 590 692 q 515 715 546 715 q 463 703 486 715 q 427 667 440 692 q 413 603 414 642 q 411 488 411 546 q 413 369 411 429 q 442 284 415 311 q 515 257 469 257 m 104 -90 q 79 -74 86 -90 q 86 -36 72 -58 l 835 1043 q 845 1055 838 1047 q 867 1063 853 1063 l 929 1063 q 954 1044 949 1063 q 949 1011 960 1026 l 197 -69 q 187 -82 194 -74 q 163 -90 179 -90 l 104 -90 m 386 1042 q 364 1064 364 1042 q 371 1082 364 1075 l 510 1251 q 535 1274 525 1269 q 561 1278 546 1278 l 833 1278 q 860 1250 860 1278 q 853 1233 860 1240 l 649 1065 q 625 1049 638 1056 q 590 1042 613 1042 l 386 1042 z "},"Õ":{"ha":1031,"x_min":50,"x_max":982,"o":"m 515 -14 q 277 28 379 -14 q 116 153 175 69 q 51 361 57 238 q 50 482 50 418 q 51 606 50 546 q 115 813 57 728 q 276 942 174 897 q 515 986 379 986 q 754 942 651 986 q 916 813 857 897 q 979 606 975 728 q 982 482 982 546 q 979 361 982 418 q 915 153 974 238 q 753 28 856 69 q 515 -14 651 -14 m 515 257 q 589 284 561 257 q 618 369 617 311 q 621 488 621 429 q 618 603 621 546 q 603 667 617 642 q 568 703 590 692 q 515 715 546 715 q 463 703 486 715 q 427 667 440 692 q 413 603 414 642 q 411 488 411 546 q 413 369 411 429 q 442 284 415 311 q 515 257 469 257 m 608 1035 q 540 1047 567 1035 q 493 1072 514 1060 q 444 1085 472 1085 q 414 1074 424 1085 q 397 1053 404 1064 q 375 1042 390 1042 l 258 1042 q 240 1049 249 1042 q 232 1067 232 1057 q 240 1127 232 1090 q 269 1200 249 1164 q 327 1260 290 1236 q 421 1285 364 1285 q 489 1272 463 1285 q 537 1247 515 1260 q 585 1235 558 1235 q 615 1246 606 1235 q 631 1267 624 1257 q 654 1278 639 1278 l 771 1278 q 790 1270 783 1278 q 797 1251 797 1263 q 789 1192 797 1228 q 760 1119 781 1156 q 702 1059 739 1083 q 608 1035 665 1035 z "},"Œ":{"ha":1392,"x_min":47,"x_max":1339,"o":"m 506 0 q 272 41 374 0 q 113 167 171 82 q 49 383 54 253 q 47 485 47 440 q 49 590 47 531 q 115 800 54 715 q 280 928 176 885 q 513 972 383 972 l 1290 972 q 1317 961 1306 972 q 1328 935 1328 950 l 1328 739 q 1317 713 1328 724 q 1290 701 1306 701 l 901 701 l 901 614 l 1260 614 q 1286 603 1275 614 q 1297 576 1297 592 l 1297 396 q 1286 369 1297 381 q 1260 358 1275 358 l 901 358 l 901 271 l 1301 271 q 1328 260 1317 271 q 1339 233 1339 249 l 1339 38 q 1328 11 1339 22 q 1301 0 1317 0 l 506 0 m 513 271 l 569 271 l 569 701 l 519 701 q 438 675 472 701 q 401 590 404 649 q 399 520 400 553 q 399 456 399 488 q 401 383 400 424 q 419 319 404 344 q 458 283 433 294 q 513 271 482 271 z "},"P":{"ha":979,"x_min":76,"x_max":953,"o":"m 114 0 q 88 11 99 0 q 76 38 76 22 l 76 935 q 88 961 76 950 q 114 972 99 972 l 535 972 q 755 935 661 972 q 901 823 849 899 q 953 632 953 747 q 901 444 953 517 q 755 337 849 371 q 535 303 661 303 l 438 303 l 438 38 q 426 11 438 22 q 400 0 415 0 l 114 0 m 431 560 l 528 560 q 571 577 550 560 q 592 635 592 594 q 578 688 592 661 q 528 714 565 714 l 431 714 l 431 560 z "},"Þ":{"ha":979,"x_min":76,"x_max":953,"o":"m 114 0 q 88 11 99 0 q 76 38 76 22 l 76 935 q 88 961 76 950 q 114 972 99 972 l 400 972 q 426 961 415 972 q 438 935 438 950 l 438 835 l 528 835 q 753 798 657 835 q 901 685 849 761 q 953 494 953 610 q 901 306 953 379 q 753 199 849 233 q 528 165 657 165 l 438 165 l 438 38 q 426 11 438 22 q 400 0 415 0 l 114 0 m 431 422 l 528 422 q 571 440 550 422 q 592 497 592 457 q 578 550 592 524 q 528 576 565 576 l 431 576 l 431 422 z "},"Q":{"ha":1031,"x_min":49,"x_max":994,"o":"m 692 -90 q 653 -78 665 -90 q 633 -58 640 -67 l 594 -10 q 514 -14 557 -14 q 276 28 378 -14 q 115 153 174 69 q 50 361 56 238 q 49 482 49 418 q 50 606 49 546 q 114 813 56 728 q 275 942 172 897 q 514 986 378 986 q 753 942 650 986 q 915 813 856 897 q 978 606 974 728 q 981 482 981 546 q 978 361 981 418 q 878 110 969 204 l 988 -47 q 990 -53 989 -49 q 992 -60 992 -57 q 985 -81 994 -72 q 964 -90 976 -90 l 692 -90 m 514 257 q 588 284 560 257 q 617 369 615 311 q 619 488 619 429 q 617 603 619 546 q 602 667 615 642 q 567 703 589 692 q 514 715 544 715 q 462 703 485 715 q 426 667 439 692 q 411 603 413 642 q 410 488 410 546 q 411 369 410 429 q 441 284 414 311 q 514 257 468 257 z "},"R":{"ha":1003,"x_min":76,"x_max":975,"o":"m 114 0 q 88 11 99 0 q 76 38 76 22 l 76 935 q 88 961 76 950 q 114 972 99 972 l 525 972 q 838 882 725 972 q 950 635 950 792 q 908 473 950 542 q 800 363 865 404 l 971 46 q 975 31 975 38 q 966 9 975 18 q 944 0 957 0 l 660 0 q 618 14 632 0 q 600 38 604 28 l 481 303 l 424 303 l 424 38 q 413 11 424 22 q 386 0 401 0 l 114 0 m 424 567 l 525 567 q 573 588 557 567 q 589 638 589 610 q 574 690 589 665 q 525 714 560 714 l 424 714 l 424 567 z "},"Ŕ":{"ha":1003,"x_min":76,"x_max":975,"o":"m 114 0 q 88 11 99 0 q 76 38 76 22 l 76 935 q 88 961 76 950 q 114 972 99 972 l 525 972 q 838 882 725 972 q 950 635 950 792 q 908 473 950 542 q 800 363 865 404 l 971 46 q 975 31 975 38 q 966 9 975 18 q 944 0 957 0 l 660 0 q 618 14 632 0 q 600 38 604 28 l 481 303 l 424 303 l 424 38 q 413 11 424 22 q 386 0 401 0 l 114 0 m 424 567 l 525 567 q 573 588 557 567 q 589 638 589 610 q 574 690 589 665 q 525 714 560 714 l 424 714 l 424 567 m 344 1042 q 322 1064 322 1042 q 329 1082 322 1075 l 468 1251 q 494 1274 483 1269 q 519 1278 504 1278 l 792 1278 q 818 1250 818 1278 q 811 1233 818 1240 l 607 1065 q 583 1049 596 1056 q 549 1042 571 1042 l 344 1042 z "},"Ř":{"ha":1003,"x_min":76,"x_max":975,"o":"m 114 0 q 88 11 99 0 q 76 38 76 22 l 76 935 q 88 961 76 950 q 114 972 99 972 l 525 972 q 838 882 725 972 q 950 635 950 792 q 908 473 950 542 q 800 363 865 404 l 971 46 q 975 31 975 38 q 966 9 975 18 q 944 0 957 0 l 660 0 q 618 14 632 0 q 600 38 604 28 l 481 303 l 424 303 l 424 38 q 413 11 424 22 q 386 0 401 0 l 114 0 m 424 567 l 525 567 q 573 588 557 567 q 589 638 589 610 q 574 690 589 665 q 525 714 560 714 l 424 714 l 424 567 m 383 1042 q 357 1048 368 1042 q 332 1068 346 1054 l 176 1238 q 169 1256 169 1244 q 192 1278 169 1278 l 290 1278 q 318 1276 304 1278 q 346 1268 332 1275 l 474 1210 l 601 1268 q 630 1276 617 1275 q 657 1278 643 1278 l 756 1278 q 778 1256 778 1278 q 771 1238 778 1244 l 615 1068 q 590 1048 601 1054 q 564 1042 579 1042 l 383 1042 z "},"Ŗ":{"ha":1003,"x_min":76,"x_max":975,"o":"m 114 0 q 88 11 99 0 q 76 38 76 22 l 76 935 q 88 961 76 950 q 114 972 99 972 l 525 972 q 838 882 725 972 q 950 635 950 792 q 908 473 950 542 q 800 363 865 404 l 971 46 q 975 31 975 38 q 966 9 975 18 q 944 0 957 0 l 660 0 q 618 14 632 0 q 600 38 604 28 l 481 303 l 424 303 l 424 38 q 413 11 424 22 q 386 0 401 0 l 114 0 m 424 567 l 525 567 q 573 588 557 567 q 589 638 589 610 q 574 690 589 665 q 525 714 560 714 l 424 714 l 424 567 m 358 -347 q 337 -338 346 -347 q 328 -317 328 -329 l 357 -124 q 374 -87 360 -104 q 417 -69 389 -69 l 626 -69 q 648 -78 639 -69 q 657 -100 657 -87 q 656 -110 657 -106 l 579 -303 q 560 -332 574 -317 q 519 -347 547 -347 l 358 -347 z "},"S":{"ha":968,"x_min":25,"x_max":943,"o":"m 482 -14 q 228 28 328 -14 q 78 138 128 69 q 25 282 28 206 q 34 303 25 294 q 56 313 43 313 l 319 313 q 353 306 342 313 q 379 289 365 300 q 408 272 393 279 q 441 260 422 264 q 482 257 460 257 q 558 267 529 257 q 586 296 586 278 q 570 324 586 313 q 515 344 554 335 q 407 361 476 353 q 217 413 297 376 q 92 512 136 449 q 49 667 49 575 q 102 833 49 761 q 251 946 156 906 q 472 986 346 986 q 657 959 576 986 q 793 888 738 932 q 878 794 849 844 q 908 699 907 744 q 899 677 908 686 q 879 668 890 668 l 601 668 q 570 674 582 668 q 546 690 558 679 q 520 706 539 697 q 472 715 501 715 q 422 705 438 715 q 406 676 406 694 q 418 653 406 664 q 464 633 431 642 q 560 617 497 625 q 783 563 699 600 q 905 465 867 526 q 943 314 943 404 q 883 139 943 213 q 718 26 822 65 q 482 -14 614 -14 z "},"Ś":{"ha":968,"x_min":25,"x_max":943,"o":"m 482 -14 q 228 28 328 -14 q 78 138 128 69 q 25 282 28 206 q 34 303 25 294 q 56 313 43 313 l 319 313 q 353 306 342 313 q 379 289 365 300 q 408 272 393 279 q 441 260 422 264 q 482 257 460 257 q 558 267 529 257 q 586 296 586 278 q 570 324 586 313 q 515 344 554 335 q 407 361 476 353 q 217 413 297 376 q 92 512 136 449 q 49 667 49 575 q 102 833 49 761 q 251 946 156 906 q 472 986 346 986 q 657 959 576 986 q 793 888 738 932 q 878 794 849 844 q 908 699 907 744 q 899 677 908 686 q 879 668 890 668 l 601 668 q 570 674 582 668 q 546 690 558 679 q 520 706 539 697 q 472 715 501 715 q 422 705 438 715 q 406 676 406 694 q 418 653 406 664 q 464 633 431 642 q 560 617 497 625 q 783 563 699 600 q 905 465 867 526 q 943 314 943 404 q 883 139 943 213 q 718 26 822 65 q 482 -14 614 -14 m 356 1042 q 333 1064 333 1042 q 340 1082 333 1075 l 479 1251 q 505 1274 494 1269 q 531 1278 515 1278 l 803 1278 q 829 1250 829 1278 q 822 1233 829 1240 l 618 1065 q 594 1049 607 1056 q 560 1042 582 1042 l 356 1042 z "},"Š":{"ha":968,"x_min":25,"x_max":943,"o":"m 482 -14 q 228 28 328 -14 q 78 138 128 69 q 25 282 28 206 q 34 303 25 294 q 56 313 43 313 l 319 313 q 353 306 342 313 q 379 289 365 300 q 408 272 393 279 q 441 260 422 264 q 482 257 460 257 q 558 267 529 257 q 586 296 586 278 q 570 324 586 313 q 515 344 554 335 q 407 361 476 353 q 217 413 297 376 q 92 512 136 449 q 49 667 49 575 q 102 833 49 761 q 251 946 156 906 q 472 986 346 986 q 657 959 576 986 q 793 888 738 932 q 878 794 849 844 q 908 699 907 744 q 899 677 908 686 q 879 668 890 668 l 601 668 q 570 674 582 668 q 546 690 558 679 q 520 706 539 697 q 472 715 501 715 q 422 705 438 715 q 406 676 406 694 q 418 653 406 664 q 464 633 431 642 q 560 617 497 625 q 783 563 699 600 q 905 465 867 526 q 943 314 943 404 q 883 139 943 213 q 718 26 822 65 q 482 -14 614 -14 m 394 1042 q 368 1048 379 1042 q 343 1068 357 1054 l 188 1238 q 181 1256 181 1244 q 203 1278 181 1278 l 301 1278 q 329 1276 315 1278 q 357 1268 343 1275 l 485 1210 l 613 1268 q 641 1276 628 1275 q 668 1278 654 1278 l 767 1278 q 789 1256 789 1278 q 782 1238 789 1244 l 626 1068 q 601 1048 613 1054 q 575 1042 590 1042 l 394 1042 z "},"Ş":{"ha":968,"x_min":25,"x_max":943,"o":"m 479 -306 q 413 -294 443 -306 q 369 -265 382 -282 q 372 -235 357 -249 l 401 -210 q 422 -201 414 -199 q 443 -208 431 -203 q 479 -214 456 -214 q 508 -203 499 -214 q 518 -181 518 -193 q 509 -158 518 -168 q 479 -147 500 -147 q 453 -151 467 -147 q 426 -155 439 -154 q 404 -147 414 -156 l 375 -118 q 364 -100 365 -108 q 372 -72 363 -92 l 400 -10 q 192 44 275 1 q 67 150 108 88 q 25 282 26 213 q 34 303 25 294 q 56 313 43 313 l 319 313 q 353 306 342 313 q 379 289 365 300 q 408 272 393 279 q 441 260 422 264 q 482 257 460 257 q 558 267 529 257 q 586 296 586 278 q 570 324 586 313 q 515 344 554 335 q 407 361 476 353 q 217 413 297 376 q 92 512 136 449 q 49 667 49 575 q 102 833 49 761 q 251 946 156 906 q 472 986 346 986 q 657 959 576 986 q 793 888 738 932 q 878 794 849 844 q 908 699 907 744 q 899 677 908 686 q 879 668 890 668 l 601 668 q 570 674 582 668 q 546 690 558 679 q 520 706 539 697 q 472 715 501 715 q 422 705 438 715 q 406 676 406 694 q 418 653 406 664 q 464 633 431 642 q 560 617 497 625 q 783 563 699 600 q 905 465 867 526 q 943 314 943 404 q 883 140 943 214 q 721 27 824 67 q 488 -14 618 -12 l 463 -62 q 485 -58 471 -60 q 504 -56 500 -56 q 587 -90 557 -56 q 617 -181 617 -125 q 579 -271 617 -236 q 479 -306 542 -306 z "},"Ŝ":{"ha":968,"x_min":25,"x_max":943,"o":"m 482 -14 q 228 28 328 -14 q 78 138 128 69 q 25 282 28 206 q 34 303 25 294 q 56 313 43 313 l 319 313 q 353 306 342 313 q 379 289 365 300 q 408 272 393 279 q 441 260 422 264 q 482 257 460 257 q 558 267 529 257 q 586 296 586 278 q 570 324 586 313 q 515 344 554 335 q 407 361 476 353 q 217 413 297 376 q 92 512 136 449 q 49 667 49 575 q 102 833 49 761 q 251 946 156 906 q 472 986 346 986 q 657 959 576 986 q 793 888 738 932 q 878 794 849 844 q 908 699 907 744 q 899 677 908 686 q 879 668 890 668 l 601 668 q 570 674 582 668 q 546 690 558 679 q 520 706 539 697 q 472 715 501 715 q 422 705 438 715 q 406 676 406 694 q 418 653 406 664 q 464 633 431 642 q 560 617 497 625 q 783 563 699 600 q 905 465 867 526 q 943 314 943 404 q 883 139 943 213 q 718 26 822 65 q 482 -14 614 -14 m 203 1042 q 181 1064 181 1042 q 188 1082 181 1075 l 343 1251 q 368 1272 357 1267 q 394 1278 379 1278 l 575 1278 q 601 1272 590 1278 q 626 1251 613 1267 l 782 1082 q 789 1064 789 1075 q 767 1042 789 1042 l 668 1042 q 641 1043 654 1042 q 613 1051 628 1044 l 485 1110 l 357 1051 q 329 1043 343 1044 q 301 1042 315 1042 l 203 1042 z "},"Ș":{"ha":968,"x_min":25,"x_max":943,"o":"m 482 -14 q 228 28 328 -14 q 78 138 128 69 q 25 282 28 206 q 34 303 25 294 q 56 313 43 313 l 319 313 q 353 306 342 313 q 379 289 365 300 q 408 272 393 279 q 441 260 422 264 q 482 257 460 257 q 558 267 529 257 q 586 296 586 278 q 570 324 586 313 q 515 344 554 335 q 407 361 476 353 q 217 413 297 376 q 92 512 136 449 q 49 667 49 575 q 102 833 49 761 q 251 946 156 906 q 472 986 346 986 q 657 959 576 986 q 793 888 738 932 q 878 794 849 844 q 908 699 907 744 q 899 677 908 686 q 879 668 890 668 l 601 668 q 570 674 582 668 q 546 690 558 679 q 520 706 539 697 q 472 715 501 715 q 422 705 438 715 q 406 676 406 694 q 418 653 406 664 q 464 633 431 642 q 560 617 497 625 q 783 563 699 600 q 905 465 867 526 q 943 314 943 404 q 883 139 943 213 q 718 26 822 65 q 482 -14 614 -14 m 331 -347 q 309 -338 318 -347 q 300 -317 300 -329 l 329 -124 q 347 -87 332 -104 q 389 -69 361 -69 l 599 -69 q 620 -78 611 -69 q 629 -100 629 -87 q 628 -110 629 -106 l 551 -303 q 533 -332 546 -317 q 492 -347 519 -347 l 331 -347 z "},"ẞ":{"ha":993,"x_min":63,"x_max":979,"o":"m 100 0 q 74 11 85 0 q 63 38 63 22 l 63 628 q 117 823 63 743 q 271 944 172 903 q 503 986 369 986 q 683 963 603 986 q 822 902 764 940 q 912 819 881 864 q 943 731 943 775 q 937 696 943 713 q 904 651 931 679 l 682 403 l 643 547 q 835 511 761 547 q 944 416 908 475 q 979 288 979 357 q 931 135 979 200 q 799 35 883 71 q 604 0 714 0 l 472 0 q 439 10 451 0 q 426 38 426 21 l 426 196 q 439 223 426 213 q 472 233 451 233 l 525 233 q 612 253 586 233 q 638 304 638 272 q 611 356 638 336 q 524 376 585 376 l 467 376 q 426 414 426 376 l 426 543 q 431 572 426 563 q 451 600 436 582 l 540 703 q 547 710 544 707 q 549 718 549 714 q 540 735 549 728 q 517 747 532 743 q 483 751 503 751 q 408 724 432 751 q 385 638 385 697 l 385 38 q 374 11 385 22 q 347 0 363 0 l 100 0 z "},"T":{"ha":936,"x_min":24,"x_max":913,"o":"m 329 0 q 303 11 314 0 q 292 38 292 22 l 292 674 l 61 674 q 35 685 46 674 q 24 711 24 696 l 24 935 q 35 961 24 950 q 61 972 46 972 l 875 972 q 901 961 890 972 q 913 935 913 950 l 913 711 q 901 685 913 696 q 875 674 890 674 l 644 674 l 644 38 q 633 11 644 22 q 607 0 622 0 l 329 0 z "},"Ŧ":{"ha":947,"x_min":29,"x_max":918,"o":"m 335 0 q 308 11 319 0 q 297 38 297 22 l 297 358 l 172 358 q 146 369 157 358 q 135 396 135 381 l 135 494 q 146 521 135 510 q 172 532 157 532 l 297 532 l 297 674 l 67 674 q 40 685 51 674 q 29 711 29 696 l 29 935 q 40 961 29 950 q 67 972 51 972 l 881 972 q 907 961 896 972 q 918 935 918 950 l 918 711 q 907 685 918 696 q 881 674 896 674 l 650 674 l 650 532 l 775 532 q 801 521 790 532 q 813 494 813 510 l 813 396 q 801 369 813 381 q 775 358 790 358 l 650 358 l 650 38 q 639 11 650 22 q 613 0 628 0 l 335 0 z "},"Ť":{"ha":936,"x_min":24,"x_max":913,"o":"m 329 0 q 303 11 314 0 q 292 38 292 22 l 292 674 l 61 674 q 35 685 46 674 q 24 711 24 696 l 24 935 q 35 961 24 950 q 61 972 46 972 l 875 972 q 901 961 890 972 q 913 935 913 950 l 913 711 q 901 685 913 696 q 875 674 890 674 l 644 674 l 644 38 q 633 11 644 22 q 607 0 622 0 l 329 0 m 378 1042 q 351 1048 363 1042 q 326 1068 340 1054 l 171 1238 q 164 1256 164 1244 q 186 1278 164 1278 l 285 1278 q 313 1276 299 1278 q 340 1268 326 1275 l 468 1210 l 596 1268 q 624 1276 611 1275 q 651 1278 638 1278 l 750 1278 q 772 1256 772 1278 q 765 1238 772 1244 l 610 1068 q 585 1048 596 1054 q 558 1042 574 1042 l 378 1042 z "},"Ț":{"ha":936,"x_min":24,"x_max":913,"o":"m 329 0 q 303 11 314 0 q 292 38 292 22 l 292 674 l 61 674 q 35 685 46 674 q 24 711 24 696 l 24 935 q 35 961 24 950 q 61 972 46 972 l 875 972 q 901 961 890 972 q 913 935 913 950 l 913 711 q 901 685 913 696 q 875 674 890 674 l 644 674 l 644 38 q 633 11 644 22 q 607 0 622 0 l 329 0 m 314 -347 q 292 -338 301 -347 q 283 -317 283 -329 l 313 -124 q 330 -87 315 -104 q 372 -69 344 -69 l 582 -69 q 603 -78 594 -69 q 613 -100 613 -87 q 611 -110 613 -106 l 535 -303 q 516 -332 529 -317 q 475 -347 503 -347 l 314 -347 z "},"U":{"ha":1036,"x_min":68,"x_max":968,"o":"m 519 -14 q 284 26 386 -14 q 125 151 182 67 q 68 367 68 236 l 68 935 q 79 961 68 950 q 106 972 90 972 l 378 972 q 404 961 393 972 q 415 935 415 950 l 415 372 q 441 293 415 321 q 518 265 467 265 q 595 293 569 265 q 621 372 621 321 l 621 935 q 632 961 621 950 q 658 972 643 972 l 931 972 q 957 961 946 972 q 968 935 968 950 l 968 367 q 911 151 968 236 q 753 26 854 67 q 519 -14 651 -14 z "},"Ú":{"ha":1036,"x_min":68,"x_max":968,"o":"m 519 -14 q 284 26 386 -14 q 125 151 182 67 q 68 367 68 236 l 68 935 q 79 961 68 950 q 106 972 90 972 l 378 972 q 404 961 393 972 q 415 935 415 950 l 415 372 q 441 293 415 321 q 518 265 467 265 q 595 293 569 265 q 621 372 621 321 l 621 935 q 632 961 621 950 q 658 972 643 972 l 931 972 q 957 961 946 972 q 968 935 968 950 l 968 367 q 911 151 968 236 q 753 26 854 67 q 519 -14 651 -14 m 389 1042 q 367 1064 367 1042 q 374 1082 367 1075 l 513 1251 q 538 1274 528 1269 q 564 1278 549 1278 l 836 1278 q 863 1250 863 1278 q 856 1233 863 1240 l 651 1065 q 628 1049 640 1056 q 593 1042 615 1042 l 389 1042 z "},"Ŭ":{"ha":1036,"x_min":68,"x_max":968,"o":"m 519 -14 q 284 26 386 -14 q 125 151 182 67 q 68 367 68 236 l 68 935 q 79 961 68 950 q 106 972 90 972 l 378 972 q 404 961 393 972 q 415 935 415 950 l 415 372 q 441 293 415 321 q 518 265 467 265 q 595 293 569 265 q 621 372 621 321 l 621 935 q 632 961 621 950 q 658 972 643 972 l 931 972 q 957 961 946 972 q 968 935 968 950 l 968 367 q 911 151 968 236 q 753 26 854 67 q 519 -14 651 -14 m 518 1035 q 380 1063 435 1035 q 299 1140 325 1092 q 272 1251 272 1189 q 279 1270 272 1263 q 299 1278 286 1278 l 436 1278 q 456 1270 449 1278 q 463 1251 463 1263 q 474 1198 463 1221 q 518 1175 485 1175 q 563 1198 551 1175 q 574 1253 574 1221 q 581 1270 574 1263 q 600 1278 588 1278 l 738 1278 q 757 1270 750 1278 q 764 1251 764 1263 q 738 1140 764 1189 q 656 1063 711 1092 q 518 1035 601 1035 z "},"Û":{"ha":1036,"x_min":68,"x_max":968,"o":"m 519 -14 q 284 26 386 -14 q 125 151 182 67 q 68 367 68 236 l 68 935 q 79 961 68 950 q 106 972 90 972 l 378 972 q 404 961 393 972 q 415 935 415 950 l 415 372 q 441 293 415 321 q 518 265 467 265 q 595 293 569 265 q 621 372 621 321 l 621 935 q 632 961 621 950 q 658 972 643 972 l 931 972 q 957 961 946 972 q 968 935 968 950 l 968 367 q 911 151 968 236 q 753 26 854 67 q 519 -14 651 -14 m 236 1042 q 214 1064 214 1042 q 221 1082 214 1075 l 376 1251 q 401 1272 390 1267 q 428 1278 413 1278 l 608 1278 q 635 1272 624 1278 q 660 1251 646 1267 l 815 1082 q 822 1064 822 1075 q 800 1042 822 1042 l 701 1042 q 674 1043 688 1042 q 646 1051 661 1044 l 518 1110 l 390 1051 q 363 1043 376 1044 q 335 1042 349 1042 l 236 1042 z "},"Ü":{"ha":1036,"x_min":68,"x_max":968,"o":"m 519 -14 q 284 26 386 -14 q 125 151 182 67 q 68 367 68 236 l 68 935 q 79 961 68 950 q 106 972 90 972 l 378 972 q 404 961 393 972 q 415 935 415 950 l 415 372 q 441 293 415 321 q 518 265 467 265 q 595 293 569 265 q 621 372 621 321 l 621 935 q 632 961 621 950 q 658 972 643 972 l 931 972 q 957 961 946 972 q 968 935 968 950 l 968 367 q 911 151 968 236 q 753 26 854 67 q 519 -14 651 -14 m 618 1042 q 595 1051 604 1042 q 586 1074 586 1060 l 586 1246 q 595 1269 586 1260 q 618 1278 604 1278 l 790 1278 q 813 1269 804 1278 q 822 1246 822 1260 l 822 1074 q 813 1051 822 1060 q 790 1042 804 1042 l 618 1042 m 244 1042 q 222 1051 231 1042 q 213 1074 213 1060 l 213 1246 q 222 1269 213 1260 q 244 1278 231 1278 l 417 1278 q 440 1269 431 1278 q 449 1246 449 1260 l 449 1074 q 440 1051 449 1060 q 417 1042 431 1042 l 244 1042 z "},"Ù":{"ha":1036,"x_min":68,"x_max":968,"o":"m 519 -14 q 284 26 386 -14 q 125 151 182 67 q 68 367 68 236 l 68 935 q 79 961 68 950 q 106 972 90 972 l 378 972 q 404 961 393 972 q 415 935 415 950 l 415 372 q 441 293 415 321 q 518 265 467 265 q 595 293 569 265 q 621 372 621 321 l 621 935 q 632 961 621 950 q 658 972 643 972 l 931 972 q 957 961 946 972 q 968 935 968 950 l 968 367 q 911 151 968 236 q 753 26 854 67 q 519 -14 651 -14 m 442 1042 q 407 1049 419 1042 q 383 1065 394 1056 l 179 1233 q 172 1250 172 1240 q 199 1278 172 1278 l 471 1278 q 497 1274 486 1278 q 522 1251 507 1269 l 661 1082 q 668 1064 668 1075 q 646 1042 668 1042 l 442 1042 z "},"Ű":{"ha":1036,"x_min":68,"x_max":975,"o":"m 519 -14 q 284 26 386 -14 q 125 151 182 67 q 68 367 68 236 l 68 935 q 79 961 68 950 q 106 972 90 972 l 378 972 q 404 961 393 972 q 415 935 415 950 l 415 372 q 441 293 415 321 q 518 265 467 265 q 595 293 569 265 q 621 372 621 321 l 621 935 q 632 961 621 950 q 658 972 643 972 l 931 972 q 957 961 946 972 q 968 935 968 950 l 968 367 q 911 151 968 236 q 753 26 854 67 q 519 -14 651 -14 m 618 1042 q 596 1064 596 1042 q 599 1075 596 1069 q 603 1085 601 1081 l 678 1251 q 729 1278 690 1278 l 947 1278 q 975 1251 975 1278 q 967 1233 975 1242 l 808 1061 q 761 1042 792 1042 l 618 1042 m 278 1042 q 256 1064 256 1042 q 258 1075 256 1069 q 263 1085 261 1081 l 338 1251 q 389 1278 350 1278 l 607 1278 q 635 1251 635 1278 q 626 1233 635 1242 l 468 1061 q 421 1042 451 1042 l 278 1042 z "},"Ū":{"ha":1036,"x_min":68,"x_max":968,"o":"m 519 -14 q 284 26 386 -14 q 125 151 182 67 q 68 367 68 236 l 68 935 q 79 961 68 950 q 106 972 90 972 l 378 972 q 404 961 393 972 q 415 935 415 950 l 415 372 q 441 293 415 321 q 518 265 467 265 q 595 293 569 265 q 621 372 621 321 l 621 935 q 632 961 621 950 q 658 972 643 972 l 931 972 q 957 961 946 972 q 968 935 968 950 l 968 367 q 911 151 968 236 q 753 26 854 67 q 519 -14 651 -14 m 256 1042 q 233 1051 242 1042 q 224 1074 224 1060 l 224 1218 q 233 1241 224 1232 q 256 1250 242 1250 l 779 1250 q 802 1241 793 1250 q 811 1218 811 1232 l 811 1074 q 802 1051 811 1060 q 779 1042 793 1042 l 256 1042 z "},"Ų":{"ha":1036,"x_min":68,"x_max":968,"o":"m 635 -306 q 499 -274 551 -306 q 421 -187 446 -242 q 396 -68 396 -133 q 397 -35 396 -51 q 401 -4 399 -19 q 159 110 250 19 q 68 367 68 200 l 68 935 q 79 961 68 950 q 106 972 90 972 l 378 972 q 404 961 393 972 q 415 935 415 950 l 415 372 q 441 293 415 321 q 518 265 467 265 q 595 293 569 265 q 621 372 621 321 l 621 935 q 632 961 621 950 q 658 972 643 972 l 931 972 q 957 961 946 972 q 968 935 968 950 l 968 367 q 924 176 968 253 q 803 56 881 100 q 622 -7 725 11 q 580 -31 589 -12 q 571 -68 571 -49 q 585 -113 571 -90 q 640 -136 600 -136 l 654 -136 q 681 -147 669 -136 q 692 -174 692 -158 l 692 -268 q 681 -294 692 -283 q 654 -306 669 -306 l 635 -306 z "},"Ů":{"ha":1036,"x_min":68,"x_max":968,"o":"m 519 -14 q 284 26 386 -14 q 125 151 182 67 q 68 367 68 236 l 68 935 q 79 961 68 950 q 106 972 90 972 l 378 972 q 404 961 393 972 q 415 935 415 950 l 415 372 q 441 293 415 321 q 518 265 467 265 q 595 293 569 265 q 621 372 621 321 l 621 935 q 632 961 621 950 q 658 972 643 972 l 931 972 q 957 961 946 972 q 968 935 968 950 l 968 367 q 911 151 968 236 q 753 26 854 67 q 519 -14 651 -14 m 518 1028 q 420 1065 461 1028 q 379 1160 379 1103 q 420 1254 379 1217 q 518 1292 461 1292 q 616 1254 575 1292 q 657 1160 657 1217 q 616 1065 657 1103 q 518 1028 575 1028 m 518 1118 q 548 1130 536 1118 q 560 1160 560 1142 q 548 1190 560 1178 q 518 1201 536 1201 q 488 1190 500 1201 q 476 1160 476 1178 q 488 1130 476 1142 q 518 1118 500 1118 z "},"Ũ":{"ha":1036,"x_min":68,"x_max":968,"o":"m 519 -14 q 284 26 386 -14 q 125 151 182 67 q 68 367 68 236 l 68 935 q 79 961 68 950 q 106 972 90 972 l 378 972 q 404 961 393 972 q 415 935 415 950 l 415 372 q 441 293 415 321 q 518 265 467 265 q 595 293 569 265 q 621 372 621 321 l 621 935 q 632 961 621 950 q 658 972 643 972 l 931 972 q 957 961 946 972 q 968 935 968 950 l 968 367 q 911 151 968 236 q 753 26 854 67 q 519 -14 651 -14 m 611 1035 q 543 1047 569 1035 q 496 1072 517 1060 q 447 1085 475 1085 q 417 1074 426 1085 q 400 1053 407 1064 q 378 1042 393 1042 l 261 1042 q 243 1049 251 1042 q 235 1067 235 1057 q 243 1127 235 1090 q 272 1200 251 1164 q 330 1260 293 1236 q 424 1285 367 1285 q 492 1272 465 1285 q 540 1247 518 1260 q 588 1235 561 1235 q 617 1246 608 1235 q 634 1267 626 1257 q 657 1278 642 1278 l 774 1278 q 793 1270 786 1278 q 800 1251 800 1263 q 792 1192 800 1228 q 763 1119 783 1156 q 705 1059 742 1083 q 611 1035 668 1035 z "},"V":{"ha":1008,"x_min":21,"x_max":988,"o":"m 346 0 q 303 15 318 0 q 283 46 288 31 l 22 932 q 21 942 21 938 q 30 963 21 954 q 51 972 39 972 l 310 972 q 353 957 338 972 q 372 926 368 942 l 504 410 l 636 926 q 656 957 640 942 q 699 972 671 972 l 957 972 q 978 963 969 972 q 988 942 988 954 q 986 932 988 938 l 725 46 q 706 15 721 31 q 663 0 690 0 l 346 0 z "},"W":{"ha":1189,"x_min":33,"x_max":1156,"o":"m 225 0 q 181 17 197 0 q 161 53 164 35 l 33 938 q 33 940 33 939 q 33 942 33 940 q 42 963 33 954 q 64 972 51 972 l 322 972 q 372 935 368 972 l 419 543 l 476 717 q 489 742 479 726 q 524 757 499 757 l 665 757 q 700 742 690 757 q 713 717 710 726 l 769 544 l 817 935 q 867 972 821 972 l 1125 972 q 1147 963 1138 972 q 1156 942 1156 954 q 1156 940 1156 940 q 1156 938 1156 939 l 1028 53 q 1009 17 1026 35 q 964 0 992 0 l 765 0 q 724 15 738 0 q 708 38 711 29 l 594 322 l 481 38 q 465 15 478 29 q 424 0 451 0 l 225 0 z "},"Ẃ":{"ha":1189,"x_min":33,"x_max":1156,"o":"m 225 0 q 181 17 197 0 q 161 53 164 35 l 33 938 q 33 940 33 939 q 33 942 33 940 q 42 963 33 954 q 64 972 51 972 l 322 972 q 372 935 368 972 l 419 543 l 476 717 q 489 742 479 726 q 524 757 499 757 l 665 757 q 700 742 690 757 q 713 717 710 726 l 769 544 l 817 935 q 867 972 821 972 l 1125 972 q 1147 963 1138 972 q 1156 942 1156 954 q 1156 940 1156 940 q 1156 938 1156 939 l 1028 53 q 1009 17 1026 35 q 964 0 992 0 l 765 0 q 724 15 738 0 q 708 38 711 29 l 594 322 l 481 38 q 465 15 478 29 q 424 0 451 0 l 225 0 m 465 1042 q 443 1064 443 1042 q 450 1082 443 1075 l 589 1251 q 615 1274 604 1269 q 640 1278 625 1278 l 913 1278 q 939 1250 939 1278 q 932 1233 939 1240 l 728 1065 q 704 1049 717 1056 q 669 1042 692 1042 l 465 1042 z "},"Ŵ":{"ha":1189,"x_min":33,"x_max":1156,"o":"m 225 0 q 181 17 197 0 q 161 53 164 35 l 33 938 q 33 940 33 939 q 33 942 33 940 q 42 963 33 954 q 64 972 51 972 l 322 972 q 372 935 368 972 l 419 543 l 476 717 q 489 742 479 726 q 524 757 499 757 l 665 757 q 700 742 690 757 q 713 717 710 726 l 769 544 l 817 935 q 867 972 821 972 l 1125 972 q 1147 963 1138 972 q 1156 942 1156 954 q 1156 940 1156 940 q 1156 938 1156 939 l 1028 53 q 1009 17 1026 35 q 964 0 992 0 l 765 0 q 724 15 738 0 q 708 38 711 29 l 594 322 l 481 38 q 465 15 478 29 q 424 0 451 0 l 225 0 m 313 1042 q 290 1064 290 1042 q 297 1082 290 1075 l 453 1251 q 478 1272 467 1267 q 504 1278 489 1278 l 685 1278 q 711 1272 700 1278 q 736 1251 722 1267 l 892 1082 q 899 1064 899 1075 q 876 1042 899 1042 l 778 1042 q 751 1043 764 1042 q 722 1051 738 1044 l 594 1110 l 467 1051 q 439 1043 453 1044 q 411 1042 425 1042 l 313 1042 z "},"Ẅ":{"ha":1189,"x_min":33,"x_max":1156,"o":"m 225 0 q 181 17 197 0 q 161 53 164 35 l 33 938 q 33 940 33 939 q 33 942 33 940 q 42 963 33 954 q 64 972 51 972 l 322 972 q 372 935 368 972 l 419 543 l 476 717 q 489 742 479 726 q 524 757 499 757 l 665 757 q 700 742 690 757 q 713 717 710 726 l 769 544 l 817 935 q 867 972 821 972 l 1125 972 q 1147 963 1138 972 q 1156 942 1156 954 q 1156 940 1156 940 q 1156 938 1156 939 l 1028 53 q 1009 17 1026 35 q 964 0 992 0 l 765 0 q 724 15 738 0 q 708 38 711 29 l 594 322 l 481 38 q 465 15 478 29 q 424 0 451 0 l 225 0 m 694 1042 q 672 1051 681 1042 q 663 1074 663 1060 l 663 1246 q 672 1269 663 1260 q 694 1278 681 1278 l 867 1278 q 890 1269 881 1278 q 899 1246 899 1260 l 899 1074 q 890 1051 899 1060 q 867 1042 881 1042 l 694 1042 m 321 1042 q 298 1051 307 1042 q 289 1074 289 1060 l 289 1246 q 298 1269 289 1260 q 321 1278 307 1278 l 493 1278 q 516 1269 507 1278 q 525 1246 525 1260 l 525 1074 q 516 1051 525 1060 q 493 1042 507 1042 l 321 1042 z "},"Ẁ":{"ha":1189,"x_min":33,"x_max":1156,"o":"m 225 0 q 181 17 197 0 q 161 53 164 35 l 33 938 q 33 940 33 939 q 33 942 33 940 q 42 963 33 954 q 64 972 51 972 l 322 972 q 372 935 368 972 l 419 543 l 476 717 q 489 742 479 726 q 524 757 499 757 l 665 757 q 700 742 690 757 q 713 717 710 726 l 769 544 l 817 935 q 867 972 821 972 l 1125 972 q 1147 963 1138 972 q 1156 942 1156 954 q 1156 940 1156 940 q 1156 938 1156 939 l 1028 53 q 1009 17 1026 35 q 964 0 992 0 l 765 0 q 724 15 738 0 q 708 38 711 29 l 594 322 l 481 38 q 465 15 478 29 q 424 0 451 0 l 225 0 m 518 1042 q 483 1049 496 1042 q 460 1065 471 1056 l 256 1233 q 249 1250 249 1240 q 275 1278 249 1278 l 547 1278 q 573 1274 563 1278 q 599 1251 583 1269 l 738 1082 q 744 1064 744 1075 q 722 1042 744 1042 l 518 1042 z "},"X":{"ha":1026,"x_min":0,"x_max":1026,"o":"m 31 0 q 9 9 18 0 q 0 31 0 18 q 1 37 0 33 q 4 46 1 40 l 296 497 l 33 926 q 29 942 29 935 q 38 963 29 954 q 60 972 47 972 l 361 972 q 402 958 389 972 q 419 938 415 944 l 517 768 l 622 938 q 640 958 626 944 q 681 972 654 972 l 968 972 q 990 963 981 972 q 999 942 999 954 q 994 926 999 933 l 726 501 l 1022 46 q 1026 37 1025 40 q 1026 31 1026 33 q 1017 9 1026 18 q 996 0 1008 0 l 683 0 q 643 13 657 0 q 626 32 629 26 l 506 218 l 390 32 q 374 13 388 26 q 333 0 361 0 l 31 0 z "},"Y":{"ha":986,"x_min":4,"x_max":982,"o":"m 357 0 q 331 11 342 0 q 319 38 319 22 l 319 311 l 7 929 q 5 935 6 932 q 4 942 4 939 q 13 963 4 954 q 35 972 22 972 l 296 972 q 338 958 324 972 q 354 938 351 944 l 493 658 l 632 938 q 649 958 635 944 q 690 972 663 972 l 951 972 q 973 963 964 972 q 982 942 982 954 q 981 935 982 939 q 979 929 981 932 l 667 311 l 667 38 q 656 11 667 22 q 629 0 644 0 l 357 0 z "},"Ý":{"ha":986,"x_min":4,"x_max":982,"o":"m 357 0 q 331 11 342 0 q 319 38 319 22 l 319 311 l 7 929 q 5 935 6 932 q 4 942 4 939 q 13 963 4 954 q 35 972 22 972 l 296 972 q 338 958 324 972 q 354 938 351 944 l 493 658 l 632 938 q 649 958 635 944 q 690 972 663 972 l 951 972 q 973 963 964 972 q 982 942 982 954 q 981 935 982 939 q 979 929 981 932 l 667 311 l 667 38 q 656 11 667 22 q 629 0 644 0 l 357 0 m 364 1042 q 342 1064 342 1042 q 349 1082 342 1075 l 488 1251 q 513 1274 503 1269 q 539 1278 524 1278 l 811 1278 q 838 1250 838 1278 q 831 1233 838 1240 l 626 1065 q 603 1049 615 1056 q 568 1042 590 1042 l 364 1042 z "},"Ŷ":{"ha":986,"x_min":4,"x_max":982,"o":"m 357 0 q 331 11 342 0 q 319 38 319 22 l 319 311 l 7 929 q 5 935 6 932 q 4 942 4 939 q 13 963 4 954 q 35 972 22 972 l 296 972 q 338 958 324 972 q 354 938 351 944 l 493 658 l 632 938 q 649 958 635 944 q 690 972 663 972 l 951 972 q 973 963 964 972 q 982 942 982 954 q 981 935 982 939 q 979 929 981 932 l 667 311 l 667 38 q 656 11 667 22 q 629 0 644 0 l 357 0 m 211 1042 q 189 1064 189 1042 q 196 1082 189 1075 l 351 1251 q 376 1272 365 1267 q 403 1278 388 1278 l 583 1278 q 610 1272 599 1278 q 635 1251 621 1267 l 790 1082 q 797 1064 797 1075 q 775 1042 797 1042 l 676 1042 q 649 1043 663 1042 q 621 1051 636 1044 l 493 1110 l 365 1051 q 338 1043 351 1044 q 310 1042 324 1042 l 211 1042 z "},"Ÿ":{"ha":986,"x_min":4,"x_max":982,"o":"m 357 0 q 331 11 342 0 q 319 38 319 22 l 319 311 l 7 929 q 5 935 6 932 q 4 942 4 939 q 13 963 4 954 q 35 972 22 972 l 296 972 q 338 958 324 972 q 354 938 351 944 l 493 658 l 632 938 q 649 958 635 944 q 690 972 663 972 l 951 972 q 973 963 964 972 q 982 942 982 954 q 981 935 982 939 q 979 929 981 932 l 667 311 l 667 38 q 656 11 667 22 q 629 0 644 0 l 357 0 m 593 1042 q 570 1051 579 1042 q 561 1074 561 1060 l 561 1246 q 570 1269 561 1260 q 593 1278 579 1278 l 765 1278 q 788 1269 779 1278 q 797 1246 797 1260 l 797 1074 q 788 1051 797 1060 q 765 1042 779 1042 l 593 1042 m 219 1042 q 197 1051 206 1042 q 188 1074 188 1060 l 188 1246 q 197 1269 188 1260 q 219 1278 206 1278 l 392 1278 q 415 1269 406 1278 q 424 1246 424 1260 l 424 1074 q 415 1051 424 1060 q 392 1042 406 1042 l 219 1042 z "},"Ỳ":{"ha":986,"x_min":4,"x_max":982,"o":"m 357 0 q 331 11 342 0 q 319 38 319 22 l 319 311 l 7 929 q 5 935 6 932 q 4 942 4 939 q 13 963 4 954 q 35 972 22 972 l 296 972 q 338 958 324 972 q 354 938 351 944 l 493 658 l 632 938 q 649 958 635 944 q 690 972 663 972 l 951 972 q 973 963 964 972 q 982 942 982 954 q 981 935 982 939 q 979 929 981 932 l 667 311 l 667 38 q 656 11 667 22 q 629 0 644 0 l 357 0 m 417 1042 q 382 1049 394 1042 q 358 1065 369 1056 l 154 1233 q 147 1250 147 1240 q 174 1278 147 1278 l 446 1278 q 472 1274 461 1278 q 497 1251 482 1269 l 636 1082 q 643 1064 643 1075 q 621 1042 643 1042 l 417 1042 z "},"Z":{"ha":963,"x_min":49,"x_max":917,"o":"m 86 0 q 60 11 71 0 q 49 38 49 22 l 49 238 q 56 269 49 257 q 69 286 64 281 l 458 690 l 100 690 q 74 701 85 690 q 63 728 63 713 l 63 935 q 74 961 63 950 q 100 972 85 972 l 861 972 q 888 961 876 972 q 899 935 899 950 l 899 738 q 894 712 899 724 q 881 692 889 700 l 513 285 l 879 285 q 906 274 894 285 q 917 247 917 263 l 917 38 q 906 11 917 22 q 879 0 894 0 l 86 0 z "},"Ź":{"ha":963,"x_min":49,"x_max":917,"o":"m 86 0 q 60 11 71 0 q 49 38 49 22 l 49 238 q 56 269 49 257 q 69 286 64 281 l 458 690 l 100 690 q 74 701 85 690 q 63 728 63 713 l 63 935 q 74 961 63 950 q 100 972 85 972 l 861 972 q 888 961 876 972 q 899 935 899 950 l 899 738 q 894 712 899 724 q 881 692 889 700 l 513 285 l 879 285 q 906 274 894 285 q 917 247 917 263 l 917 38 q 906 11 917 22 q 879 0 894 0 l 86 0 m 339 1042 q 317 1064 317 1042 q 324 1082 317 1075 l 463 1251 q 488 1274 478 1269 q 514 1278 499 1278 l 786 1278 q 813 1250 813 1278 q 806 1233 813 1240 l 601 1065 q 578 1049 590 1056 q 543 1042 565 1042 l 339 1042 z "},"Ž":{"ha":963,"x_min":49,"x_max":917,"o":"m 86 0 q 60 11 71 0 q 49 38 49 22 l 49 238 q 56 269 49 257 q 69 286 64 281 l 458 690 l 100 690 q 74 701 85 690 q 63 728 63 713 l 63 935 q 74 961 63 950 q 100 972 85 972 l 861 972 q 888 961 876 972 q 899 935 899 950 l 899 738 q 894 712 899 724 q 881 692 889 700 l 513 285 l 879 285 q 906 274 894 285 q 917 247 917 263 l 917 38 q 906 11 917 22 q 879 0 894 0 l 86 0 m 378 1042 q 351 1048 363 1042 q 326 1068 340 1054 l 171 1238 q 164 1256 164 1244 q 186 1278 164 1278 l 285 1278 q 313 1276 299 1278 q 340 1268 326 1275 l 468 1210 l 596 1268 q 624 1276 611 1275 q 651 1278 638 1278 l 750 1278 q 772 1256 772 1278 q 765 1238 772 1244 l 610 1068 q 585 1048 596 1054 q 558 1042 574 1042 l 378 1042 z "},"Ż":{"ha":963,"x_min":49,"x_max":917,"o":"m 86 0 q 60 11 71 0 q 49 38 49 22 l 49 238 q 56 269 49 257 q 69 286 64 281 l 458 690 l 100 690 q 74 701 85 690 q 63 728 63 713 l 63 935 q 74 961 63 950 q 100 972 85 972 l 861 972 q 888 961 876 972 q 899 935 899 950 l 899 738 q 894 712 899 724 q 881 692 889 700 l 513 285 l 879 285 q 906 274 894 285 q 917 247 917 263 l 917 38 q 906 11 917 22 q 879 0 894 0 l 86 0 m 374 1042 q 351 1051 360 1042 q 342 1074 342 1060 l 342 1263 q 351 1285 342 1276 q 374 1294 360 1294 l 563 1294 q 585 1285 576 1294 q 594 1263 594 1276 l 594 1074 q 585 1051 594 1060 q 563 1042 576 1042 l 374 1042 z "},"a":{"ha":864,"x_min":24,"x_max":808,"o":"m 293 -14 q 153 15 214 -14 q 58 94 92 44 q 24 207 24 144 q 106 366 24 308 q 328 447 189 424 l 475 471 l 475 472 q 469 525 475 508 q 433 542 463 542 q 402 534 414 542 q 376 513 390 526 q 338 497 361 497 l 101 497 q 78 506 88 497 q 71 528 69 514 q 93 590 72 554 q 158 658 114 625 q 270 714 201 692 q 436 736 339 736 q 601 716 531 736 q 717 658 671 696 q 785 563 763 619 q 808 436 808 507 l 808 38 q 797 11 808 22 q 771 0 786 0 l 528 0 q 501 11 513 0 q 490 38 490 22 l 490 76 q 441 28 471 49 q 374 -3 411 8 q 293 -14 336 -14 m 389 192 q 437 203 417 192 q 468 238 457 214 q 479 299 479 263 l 479 300 l 397 282 q 349 260 361 274 q 336 231 336 246 q 342 212 336 221 q 360 197 349 203 q 389 192 372 192 z "},"á":{"ha":864,"x_min":24,"x_max":808,"o":"m 293 -14 q 153 15 214 -14 q 58 94 92 44 q 24 207 24 144 q 106 366 24 308 q 328 447 189 424 l 475 471 l 475 472 q 469 525 475 508 q 433 542 463 542 q 402 534 414 542 q 376 513 390 526 q 338 497 361 497 l 101 497 q 78 506 88 497 q 71 528 69 514 q 93 590 72 554 q 158 658 114 625 q 270 714 201 692 q 436 736 339 736 q 601 716 531 736 q 717 658 671 696 q 785 563 763 619 q 808 436 808 507 l 808 38 q 797 11 808 22 q 771 0 786 0 l 528 0 q 501 11 513 0 q 490 38 490 22 l 490 76 q 441 28 471 49 q 374 -3 411 8 q 293 -14 336 -14 m 389 192 q 437 203 417 192 q 468 238 457 214 q 479 299 479 263 l 479 300 l 397 282 q 349 260 361 274 q 336 231 336 246 q 342 212 336 221 q 360 197 349 203 q 389 192 372 192 m 313 826 q 290 849 290 826 q 297 867 290 860 l 436 1036 q 462 1058 451 1054 q 488 1063 472 1063 l 746 1063 q 772 1035 772 1063 q 765 1018 772 1025 l 561 850 q 538 833 550 840 q 503 826 525 826 l 313 826 z "},"ă":{"ha":864,"x_min":24,"x_max":808,"o":"m 293 -14 q 153 15 214 -14 q 58 94 92 44 q 24 207 24 144 q 106 366 24 308 q 328 447 189 424 l 475 471 l 475 472 q 469 525 475 508 q 433 542 463 542 q 402 534 414 542 q 376 513 390 526 q 338 497 361 497 l 101 497 q 78 506 88 497 q 71 528 69 514 q 93 590 72 554 q 158 658 114 625 q 270 714 201 692 q 436 736 339 736 q 601 716 531 736 q 717 658 671 696 q 785 563 763 619 q 808 436 808 507 l 808 38 q 797 11 808 22 q 771 0 786 0 l 528 0 q 501 11 513 0 q 490 38 490 22 l 490 76 q 441 28 471 49 q 374 -3 411 8 q 293 -14 336 -14 m 389 192 q 437 203 417 192 q 468 238 457 214 q 479 299 479 263 l 479 300 l 397 282 q 349 260 361 274 q 336 231 336 246 q 342 212 336 221 q 360 197 349 203 q 389 192 372 192 m 431 819 q 301 848 354 819 q 219 925 247 876 q 192 1036 192 974 q 199 1055 192 1047 q 218 1063 206 1063 l 349 1063 q 368 1055 361 1063 q 375 1036 375 1047 q 388 983 375 1006 q 431 960 400 960 q 474 983 463 960 q 486 1038 486 1006 q 493 1055 486 1047 q 513 1063 500 1063 l 643 1063 q 663 1055 656 1063 q 669 1036 669 1047 q 642 925 669 974 q 560 848 614 876 q 431 819 507 819 z "},"â":{"ha":864,"x_min":24,"x_max":808,"o":"m 293 -14 q 153 15 214 -14 q 58 94 92 44 q 24 207 24 144 q 106 366 24 308 q 328 447 189 424 l 475 471 l 475 472 q 469 525 475 508 q 433 542 463 542 q 402 534 414 542 q 376 513 390 526 q 338 497 361 497 l 101 497 q 78 506 88 497 q 71 528 69 514 q 93 590 72 554 q 158 658 114 625 q 270 714 201 692 q 436 736 339 736 q 601 716 531 736 q 717 658 671 696 q 785 563 763 619 q 808 436 808 507 l 808 38 q 797 11 808 22 q 771 0 786 0 l 528 0 q 501 11 513 0 q 490 38 490 22 l 490 76 q 441 28 471 49 q 374 -3 411 8 q 293 -14 336 -14 m 389 192 q 437 203 417 192 q 468 238 457 214 q 479 299 479 263 l 479 300 l 397 282 q 349 260 361 274 q 336 231 336 246 q 342 212 336 221 q 360 197 349 203 q 389 192 372 192 m 156 826 q 133 849 133 826 q 140 867 133 860 l 296 1036 q 321 1057 310 1051 q 347 1063 332 1063 l 514 1063 q 540 1057 529 1063 q 565 1036 551 1051 l 721 867 q 728 849 728 860 q 706 826 728 826 l 614 826 q 587 828 600 826 q 558 836 574 829 l 431 894 l 303 836 q 275 828 289 829 q 247 826 261 826 l 156 826 z "},"ä":{"ha":864,"x_min":24,"x_max":808,"o":"m 293 -14 q 153 15 214 -14 q 58 94 92 44 q 24 207 24 144 q 106 366 24 308 q 328 447 189 424 l 475 471 l 475 472 q 469 525 475 508 q 433 542 463 542 q 402 534 414 542 q 376 513 390 526 q 338 497 361 497 l 101 497 q 78 506 88 497 q 71 528 69 514 q 93 590 72 554 q 158 658 114 625 q 270 714 201 692 q 436 736 339 736 q 601 716 531 736 q 717 658 671 696 q 785 563 763 619 q 808 436 808 507 l 808 38 q 797 11 808 22 q 771 0 786 0 l 528 0 q 501 11 513 0 q 490 38 490 22 l 490 76 q 441 28 471 49 q 374 -3 411 8 q 293 -14 336 -14 m 389 192 q 437 203 417 192 q 468 238 457 214 q 479 299 479 263 l 479 300 l 397 282 q 349 260 361 274 q 336 231 336 246 q 342 212 336 221 q 360 197 349 203 q 389 192 372 192 m 510 826 q 487 835 496 826 q 478 858 478 844 l 478 1031 q 487 1053 478 1044 q 510 1063 496 1063 l 682 1063 q 705 1053 696 1063 q 714 1031 714 1044 l 714 858 q 705 835 714 844 q 682 826 696 826 l 510 826 m 178 826 q 155 835 164 826 q 146 858 146 844 l 146 1031 q 155 1053 146 1044 q 178 1063 164 1063 l 350 1063 q 373 1053 364 1063 q 382 1031 382 1044 l 382 858 q 373 835 382 844 q 350 826 364 826 l 178 826 z "},"à":{"ha":864,"x_min":24,"x_max":808,"o":"m 293 -14 q 153 15 214 -14 q 58 94 92 44 q 24 207 24 144 q 106 366 24 308 q 328 447 189 424 l 475 471 l 475 472 q 469 525 475 508 q 433 542 463 542 q 402 534 414 542 q 376 513 390 526 q 338 497 361 497 l 101 497 q 78 506 88 497 q 71 528 69 514 q 93 590 72 554 q 158 658 114 625 q 270 714 201 692 q 436 736 339 736 q 601 716 531 736 q 717 658 671 696 q 785 563 763 619 q 808 436 808 507 l 808 38 q 797 11 808 22 q 771 0 786 0 l 528 0 q 501 11 513 0 q 490 38 490 22 l 490 76 q 441 28 471 49 q 374 -3 411 8 q 293 -14 336 -14 m 389 192 q 437 203 417 192 q 468 238 457 214 q 479 299 479 263 l 479 300 l 397 282 q 349 260 361 274 q 336 231 336 246 q 342 212 336 221 q 360 197 349 203 q 389 192 372 192 m 356 826 q 321 833 333 826 q 297 850 308 840 l 93 1018 q 86 1035 86 1025 q 113 1063 86 1063 l 371 1063 q 397 1058 386 1063 q 422 1036 407 1054 l 561 867 q 568 849 568 860 q 546 826 568 826 l 356 826 z "},"ā":{"ha":864,"x_min":24,"x_max":808,"o":"m 293 -14 q 153 15 214 -14 q 58 94 92 44 q 24 207 24 144 q 106 366 24 308 q 328 447 189 424 l 475 471 l 475 472 q 469 525 475 508 q 433 542 463 542 q 402 534 414 542 q 376 513 390 526 q 338 497 361 497 l 101 497 q 78 506 88 497 q 71 528 69 514 q 93 590 72 554 q 158 658 114 625 q 270 714 201 692 q 436 736 339 736 q 601 716 531 736 q 717 658 671 696 q 785 563 763 619 q 808 436 808 507 l 808 38 q 797 11 808 22 q 771 0 786 0 l 528 0 q 501 11 513 0 q 490 38 490 22 l 490 76 q 441 28 471 49 q 374 -3 411 8 q 293 -14 336 -14 m 389 192 q 437 203 417 192 q 468 238 457 214 q 479 299 479 263 l 479 300 l 397 282 q 349 260 361 274 q 336 231 336 246 q 342 212 336 221 q 360 197 349 203 q 389 192 372 192 m 203 826 q 180 835 189 826 q 171 858 171 844 l 171 1003 q 180 1026 171 1017 q 203 1035 189 1035 l 657 1035 q 680 1026 671 1035 q 689 1003 689 1017 l 689 858 q 680 835 689 844 q 657 826 671 826 l 203 826 z "},"ą":{"ha":864,"x_min":24,"x_max":808,"o":"m 751 -306 q 615 -274 668 -306 q 538 -187 563 -242 q 513 -68 513 -133 q 513 -45 513 -57 q 515 -22 514 -33 q 518 0 517 -10 q 498 13 506 3 q 490 38 490 24 l 490 76 q 441 28 471 49 q 374 -3 411 8 q 293 -14 336 -14 q 153 15 214 -14 q 58 94 92 44 q 24 207 24 144 q 106 366 24 308 q 328 447 189 424 l 475 471 l 475 472 q 469 525 475 508 q 433 542 463 542 q 397 531 410 542 q 372 508 385 519 q 338 497 360 497 q 335 497 336 497 q 333 497 335 497 l 101 497 q 78 506 88 497 q 71 528 69 514 q 93 590 72 554 q 158 658 114 625 q 270 714 201 692 q 436 736 339 736 q 601 716 531 736 q 717 658 671 696 q 785 563 763 619 q 808 436 808 507 l 808 38 q 797 11 808 22 q 771 0 786 0 l 749 0 q 701 -24 714 -1 q 688 -68 688 -47 q 702 -113 688 -90 q 757 -136 717 -136 l 771 -136 q 797 -147 786 -136 q 808 -174 808 -158 l 808 -268 q 797 -294 808 -283 q 771 -306 786 -306 l 751 -306 m 389 192 q 437 203 417 192 q 468 238 457 214 q 479 299 479 263 l 479 300 l 397 282 q 349 260 361 274 q 336 231 336 246 q 342 212 336 221 q 360 197 349 203 q 389 192 372 192 z "},"å":{"ha":864,"x_min":24,"x_max":808,"o":"m 293 -14 q 153 15 214 -14 q 58 94 92 44 q 24 207 24 144 q 106 366 24 308 q 328 447 189 424 l 475 471 l 475 472 q 469 525 475 508 q 433 542 463 542 q 402 534 414 542 q 376 513 390 526 q 338 497 361 497 l 101 497 q 78 506 88 497 q 71 528 69 514 q 93 590 72 554 q 158 658 114 625 q 270 714 201 692 q 436 736 339 736 q 601 716 531 736 q 717 658 671 696 q 785 563 763 619 q 808 436 808 507 l 808 38 q 797 11 808 22 q 771 0 786 0 l 528 0 q 501 11 513 0 q 490 38 490 22 l 490 76 q 441 28 471 49 q 374 -3 411 8 q 293 -14 336 -14 m 389 192 q 437 203 417 192 q 468 238 457 214 q 479 299 479 263 l 479 300 l 397 282 q 349 260 361 274 q 336 231 336 246 q 342 212 336 221 q 360 197 349 203 q 389 192 372 192 m 431 819 q 333 857 374 819 q 292 951 292 894 q 333 1046 292 1008 q 431 1083 374 1083 q 528 1046 488 1083 q 569 951 569 1008 q 528 857 569 894 q 431 819 488 819 m 431 910 q 460 922 449 910 q 472 951 472 933 q 460 981 472 969 q 431 993 449 993 q 401 981 413 993 q 389 951 389 969 q 401 922 389 933 q 431 910 413 910 z "},"ã":{"ha":864,"x_min":24,"x_max":808,"o":"m 293 -14 q 153 15 214 -14 q 58 94 92 44 q 24 207 24 144 q 106 366 24 308 q 328 447 189 424 l 475 471 l 475 472 q 469 525 475 508 q 433 542 463 542 q 402 534 414 542 q 376 513 390 526 q 338 497 361 497 l 101 497 q 78 506 88 497 q 71 528 69 514 q 93 590 72 554 q 158 658 114 625 q 270 714 201 692 q 436 736 339 736 q 601 716 531 736 q 717 658 671 696 q 785 563 763 619 q 808 436 808 507 l 808 38 q 797 11 808 22 q 771 0 786 0 l 528 0 q 501 11 513 0 q 490 38 490 22 l 490 76 q 441 28 471 49 q 374 -3 411 8 q 293 -14 336 -14 m 389 192 q 437 203 417 192 q 468 238 457 214 q 479 299 479 263 l 479 300 l 397 282 q 349 260 361 274 q 336 231 336 246 q 342 212 336 221 q 360 197 349 203 q 389 192 372 192 m 524 819 q 456 832 482 819 q 408 857 429 844 q 360 869 388 869 q 329 859 339 869 q 313 838 319 849 q 290 826 306 826 l 174 826 q 156 834 164 826 q 147 851 147 842 q 156 912 147 875 q 185 985 164 949 q 242 1045 206 1021 q 336 1069 279 1069 q 404 1057 378 1069 q 452 1032 431 1044 q 500 1019 474 1019 q 530 1031 521 1019 q 547 1052 539 1042 q 569 1063 554 1063 l 686 1063 q 706 1055 699 1063 q 713 1036 713 1047 q 704 976 713 1013 q 675 904 696 940 q 617 844 654 868 q 524 819 581 819 z "},"æ":{"ha":1299,"x_min":24,"x_max":1263,"o":"m 321 -14 q 160 15 226 -14 q 58 94 93 44 q 24 207 24 144 q 106 366 24 308 q 328 447 189 424 l 475 471 l 475 475 q 468 526 475 511 q 433 542 461 542 q 397 531 410 542 q 372 508 385 519 q 338 497 360 497 q 335 497 336 497 q 333 497 335 497 l 101 497 q 79 506 88 497 q 71 528 71 514 q 92 590 71 554 q 156 658 113 625 q 269 714 200 692 q 436 736 339 736 q 567 723 514 736 q 654 685 619 710 q 752 722 699 708 q 867 736 806 736 q 1044 706 969 736 q 1167 624 1118 676 q 1239 503 1215 571 q 1263 358 1263 435 l 1263 317 q 1251 290 1263 301 q 1225 279 1240 279 l 811 279 l 811 272 q 816 226 811 244 q 833 197 821 207 q 865 188 846 188 q 886 194 878 188 q 906 213 894 201 q 926 228 918 225 q 951 232 935 232 l 1214 232 q 1244 201 1244 232 q 1222 138 1244 175 q 1152 67 1199 101 q 1035 9 1106 32 q 868 -14 964 -14 q 714 8 783 -14 q 594 71 644 29 q 456 1 531 17 q 321 -14 382 -14 m 389 192 q 437 203 417 192 q 468 238 457 214 q 479 299 479 263 l 479 300 l 397 282 q 349 260 361 274 q 336 231 336 246 q 342 212 336 221 q 360 197 349 203 q 389 192 372 192 m 811 453 l 922 453 l 922 458 q 908 522 922 501 q 867 542 893 542 q 836 533 849 542 q 817 506 824 524 q 811 458 811 488 l 811 453 z "},"ǽ":{"ha":1299,"x_min":24,"x_max":1263,"o":"m 321 -14 q 160 15 226 -14 q 58 94 93 44 q 24 207 24 144 q 106 366 24 308 q 328 447 189 424 l 475 471 l 475 475 q 468 526 475 511 q 433 542 461 542 q 397 531 410 542 q 372 508 385 519 q 338 497 360 497 q 335 497 336 497 q 333 497 335 497 l 101 497 q 79 506 88 497 q 71 528 71 514 q 92 590 71 554 q 156 658 113 625 q 269 714 200 692 q 436 736 339 736 q 567 723 514 736 q 654 685 619 710 q 752 722 699 708 q 867 736 806 736 q 1044 706 969 736 q 1167 624 1118 676 q 1239 503 1215 571 q 1263 358 1263 435 l 1263 317 q 1251 290 1263 301 q 1225 279 1240 279 l 811 279 l 811 272 q 816 226 811 244 q 833 197 821 207 q 865 188 846 188 q 886 194 878 188 q 906 213 894 201 q 926 228 918 225 q 951 232 935 232 l 1214 232 q 1244 201 1244 232 q 1222 138 1244 175 q 1152 67 1199 101 q 1035 9 1106 32 q 868 -14 964 -14 q 714 8 783 -14 q 594 71 644 29 q 456 1 531 17 q 321 -14 382 -14 m 389 192 q 437 203 417 192 q 468 238 457 214 q 479 299 479 263 l 479 300 l 397 282 q 349 260 361 274 q 336 231 336 246 q 342 212 336 221 q 360 197 349 203 q 389 192 372 192 m 811 453 l 922 453 l 922 458 q 908 522 922 501 q 867 542 893 542 q 836 533 849 542 q 817 506 824 524 q 811 458 811 488 l 811 453 m 532 826 q 510 849 510 826 q 517 867 510 860 l 656 1036 q 681 1058 671 1054 q 707 1063 692 1063 l 965 1063 q 992 1035 992 1063 q 985 1018 992 1025 l 781 850 q 757 833 769 840 q 722 826 744 826 l 532 826 z "},"b":{"ha":918,"x_min":63,"x_max":875,"o":"m 579 -14 q 457 9 507 -14 q 374 69 407 32 l 374 38 q 363 11 374 22 q 336 0 351 0 l 100 0 q 74 11 85 0 q 63 38 63 22 l 63 949 q 74 975 63 964 q 100 986 85 986 l 357 986 q 383 975 372 986 q 394 949 394 964 l 394 671 q 474 719 428 701 q 579 736 521 736 q 692 717 640 736 q 784 658 744 697 q 847 559 824 619 q 874 417 871 499 q 875 363 875 386 q 874 307 875 339 q 846 158 869 219 q 783 59 822 97 q 692 3 743 21 q 579 -14 640 -14 m 464 235 q 504 244 490 235 q 524 272 518 254 q 533 315 531 290 q 533 407 538 361 q 524 450 531 432 q 504 478 518 468 q 464 488 490 488 q 426 479 440 488 q 403 456 411 471 q 394 418 396 440 q 393 367 393 388 q 394 315 393 347 q 402 272 396 290 q 424 244 408 254 q 464 235 439 235 z "},"c":{"ha":864,"x_min":40,"x_max":839,"o":"m 431 -14 q 239 23 325 -14 q 100 131 153 60 q 42 304 47 201 q 40 360 40 326 q 42 417 40 393 q 99 591 47 519 q 238 699 151 663 q 431 736 325 736 q 617 705 540 736 q 742 628 694 674 q 813 539 790 583 q 838 467 836 494 q 827 440 839 451 q 800 429 815 429 l 529 429 q 505 437 514 429 q 489 457 496 444 q 469 488 479 476 q 438 499 458 499 q 394 475 406 499 q 382 410 383 451 q 382 311 381 350 q 395 245 385 267 q 438 224 406 224 q 472 235 463 224 q 489 265 481 246 q 504 285 494 278 q 529 293 514 293 l 800 293 q 827 282 815 293 q 838 256 839 271 q 823 205 836 238 q 781 135 810 172 q 706 63 753 97 q 590 8 658 29 q 431 -14 522 -14 z "},"ć":{"ha":864,"x_min":40,"x_max":839,"o":"m 431 -14 q 239 23 325 -14 q 100 131 153 60 q 42 304 47 201 q 40 360 40 326 q 42 417 40 393 q 99 591 47 519 q 238 699 151 663 q 431 736 325 736 q 617 705 540 736 q 742 628 694 674 q 813 539 790 583 q 838 467 836 494 q 827 440 839 451 q 800 429 815 429 l 529 429 q 505 437 514 429 q 489 457 496 444 q 469 488 479 476 q 438 499 458 499 q 394 475 406 499 q 382 410 383 451 q 382 311 381 350 q 395 245 385 267 q 438 224 406 224 q 472 235 463 224 q 489 265 481 246 q 504 285 494 278 q 529 293 514 293 l 800 293 q 827 282 815 293 q 838 256 839 271 q 823 205 836 238 q 781 135 810 172 q 706 63 753 97 q 590 8 658 29 q 431 -14 522 -14 m 314 826 q 292 849 292 826 q 299 867 292 860 l 438 1036 q 463 1058 453 1054 q 489 1063 474 1063 l 747 1063 q 774 1035 774 1063 q 767 1018 774 1025 l 563 850 q 539 833 551 840 q 504 826 526 826 l 314 826 z "},"č":{"ha":864,"x_min":40,"x_max":839,"o":"m 431 -14 q 239 23 325 -14 q 100 131 153 60 q 42 304 47 201 q 40 360 40 326 q 42 417 40 393 q 99 591 47 519 q 238 699 151 663 q 431 736 325 736 q 617 705 540 736 q 742 628 694 674 q 813 539 790 583 q 838 467 836 494 q 827 440 839 451 q 800 429 815 429 l 529 429 q 505 437 514 429 q 489 457 496 444 q 469 488 479 476 q 438 499 458 499 q 394 475 406 499 q 382 410 383 451 q 382 311 381 350 q 395 245 385 267 q 438 224 406 224 q 472 235 463 224 q 489 265 481 246 q 504 285 494 278 q 529 293 514 293 l 800 293 q 827 282 815 293 q 838 256 839 271 q 823 205 836 238 q 781 135 810 172 q 706 63 753 97 q 590 8 658 29 q 431 -14 522 -14 m 349 826 q 322 833 333 826 q 297 853 311 839 l 142 1022 q 135 1040 135 1029 q 157 1063 135 1063 l 249 1063 q 276 1061 263 1063 q 304 1053 290 1060 l 432 994 l 560 1053 q 588 1061 575 1060 q 615 1063 601 1063 l 707 1063 q 729 1040 729 1063 q 722 1022 729 1029 l 567 853 q 542 833 553 839 q 515 826 531 826 l 349 826 z "},"ç":{"ha":864,"x_min":40,"x_max":839,"o":"m 432 -306 q 365 -294 396 -306 q 322 -265 335 -282 q 325 -235 310 -249 l 354 -210 q 375 -201 367 -199 q 396 -208 383 -203 q 432 -214 408 -214 q 461 -203 451 -214 q 471 -181 471 -193 q 462 -158 471 -168 q 432 -147 453 -147 q 406 -151 419 -147 q 379 -155 392 -154 q 357 -147 367 -156 l 328 -118 q 317 -100 318 -108 q 325 -72 315 -92 l 353 -8 q 135 90 222 10 q 42 304 49 169 q 40 360 40 326 q 42 417 40 393 q 99 591 47 519 q 238 699 151 663 q 431 736 325 736 q 617 705 540 736 q 742 628 694 674 q 813 539 790 583 q 838 467 836 494 q 827 440 839 451 q 800 429 815 429 l 529 429 q 505 437 514 429 q 489 457 496 444 q 469 488 479 476 q 438 499 458 499 q 394 475 406 499 q 382 410 383 451 q 382 311 381 350 q 395 245 385 267 q 438 224 406 224 q 472 235 463 224 q 489 265 481 246 q 504 285 494 278 q 529 293 514 293 l 800 293 q 827 282 815 293 q 838 256 839 271 q 815 190 836 233 q 749 100 794 146 q 628 21 704 54 q 440 -14 553 -12 l 415 -62 q 438 -58 424 -60 q 457 -56 453 -56 q 540 -90 510 -56 q 569 -181 569 -125 q 532 -271 569 -236 q 432 -306 494 -306 z "},"ĉ":{"ha":864,"x_min":40,"x_max":839,"o":"m 431 -14 q 239 23 325 -14 q 100 131 153 60 q 42 304 47 201 q 40 360 40 326 q 42 417 40 393 q 99 591 47 519 q 238 699 151 663 q 431 736 325 736 q 617 705 540 736 q 742 628 694 674 q 813 539 790 583 q 838 467 836 494 q 827 440 839 451 q 800 429 815 429 l 529 429 q 505 437 514 429 q 489 457 496 444 q 469 488 479 476 q 438 499 458 499 q 394 475 406 499 q 382 410 383 451 q 382 311 381 350 q 395 245 385 267 q 438 224 406 224 q 472 235 463 224 q 489 265 481 246 q 504 285 494 278 q 529 293 514 293 l 800 293 q 827 282 815 293 q 838 256 839 271 q 823 205 836 238 q 781 135 810 172 q 706 63 753 97 q 590 8 658 29 q 431 -14 522 -14 m 157 826 q 135 849 135 826 q 142 867 135 860 l 297 1036 q 322 1057 311 1051 q 349 1063 333 1063 l 515 1063 q 542 1057 531 1063 q 567 1036 553 1051 l 722 867 q 729 849 729 860 q 707 826 729 826 l 615 826 q 588 828 601 826 q 560 836 575 829 l 432 894 l 304 836 q 276 828 290 829 q 249 826 263 826 l 157 826 z "},"ċ":{"ha":864,"x_min":40,"x_max":839,"o":"m 431 -14 q 239 23 325 -14 q 100 131 153 60 q 42 304 47 201 q 40 360 40 326 q 42 417 40 393 q 99 591 47 519 q 238 699 151 663 q 431 736 325 736 q 617 705 540 736 q 742 628 694 674 q 813 539 790 583 q 838 467 836 494 q 827 440 839 451 q 800 429 815 429 l 529 429 q 505 437 514 429 q 489 457 496 444 q 469 488 479 476 q 438 499 458 499 q 394 475 406 499 q 382 410 383 451 q 382 311 381 350 q 395 245 385 267 q 438 224 406 224 q 472 235 463 224 q 489 265 481 246 q 504 285 494 278 q 529 293 514 293 l 800 293 q 827 282 815 293 q 838 256 839 271 q 823 205 836 238 q 781 135 810 172 q 706 63 753 97 q 590 8 658 29 q 431 -14 522 -14 m 340 826 q 317 835 326 826 q 308 858 308 844 l 308 1040 q 317 1063 308 1054 q 340 1072 326 1072 l 522 1072 q 545 1063 536 1072 q 554 1040 554 1054 l 554 858 q 545 835 554 844 q 522 826 536 826 l 340 826 z "},"d":{"ha":918,"x_min":43,"x_max":856,"o":"m 339 -14 q 227 3 279 -14 q 135 59 175 21 q 72 158 96 97 q 44 307 49 219 q 43 363 43 339 q 44 417 43 386 q 71 559 47 499 q 134 658 94 619 q 226 717 174 697 q 339 736 279 736 q 444 719 397 736 q 524 671 490 701 l 524 949 q 535 975 524 964 q 561 986 546 986 l 818 986 q 844 975 833 986 q 856 949 856 964 l 856 38 q 844 11 856 22 q 818 0 833 0 l 582 0 q 556 11 567 0 q 544 38 544 22 l 544 69 q 461 9 511 32 q 339 -14 411 -14 m 454 235 q 495 244 481 235 q 516 272 510 254 q 524 315 522 290 q 526 367 526 347 q 524 418 526 388 q 515 456 522 440 q 492 479 507 471 q 454 488 478 488 q 415 478 429 488 q 394 450 400 468 q 385 407 388 432 q 385 315 381 361 q 394 272 388 290 q 415 244 400 254 q 454 235 429 235 z "},"ð":{"ha":886,"x_min":36,"x_max":843,"o":"m 439 -14 q 228 22 318 -14 q 87 133 138 58 q 36 319 36 207 q 90 506 36 432 q 235 617 143 581 q 439 653 326 653 q 449 653 444 653 q 458 653 453 653 q 417 728 442 690 l 253 664 q 238 660 243 660 q 217 668 225 660 q 208 689 208 676 l 208 728 q 215 758 208 747 q 239 774 222 768 l 342 814 q 282 867 314 842 q 217 915 250 893 q 203 929 207 922 q 199 942 199 936 q 208 963 199 954 q 229 972 217 972 l 490 972 q 536 967 518 972 q 564 954 554 961 q 588 936 575 944 q 610 918 600 928 l 735 967 q 750 971 746 971 q 771 963 763 971 q 779 942 779 954 l 779 903 q 772 874 779 885 q 749 857 765 864 l 692 835 q 796 648 757 754 q 842 400 835 542 q 843 356 843 379 q 842 313 843 333 q 785 131 836 204 q 647 22 735 58 q 439 -14 560 -14 m 439 208 q 476 217 463 208 q 495 243 489 226 q 501 282 501 260 q 503 319 503 303 q 501 356 503 335 q 495 394 500 378 q 478 421 490 411 q 439 431 465 431 q 401 421 414 431 q 383 394 388 411 q 376 356 378 378 q 375 319 375 335 q 376 283 375 304 q 383 244 378 261 q 401 217 388 226 q 439 208 414 208 z "},"ď":{"ha":1131,"x_min":43,"x_max":1242,"o":"m 339 -14 q 227 3 279 -14 q 135 59 175 21 q 72 158 96 97 q 44 307 49 219 q 43 363 43 339 q 44 417 43 386 q 71 559 47 499 q 134 658 94 619 q 226 717 174 697 q 339 736 279 736 q 444 719 397 736 q 524 671 490 701 l 524 949 q 535 975 524 964 q 561 986 546 986 l 818 986 q 844 975 833 986 q 856 949 856 964 l 856 38 q 844 11 856 22 q 818 0 833 0 l 582 0 q 556 11 567 0 q 544 38 544 22 l 544 69 q 461 9 511 32 q 339 -14 411 -14 m 454 235 q 495 244 481 235 q 516 272 510 254 q 524 315 522 290 q 526 367 526 347 q 524 418 526 388 q 515 456 522 440 q 492 479 507 471 q 454 488 478 488 q 415 478 429 488 q 394 450 400 468 q 385 407 388 432 q 385 315 381 361 q 394 272 388 290 q 415 244 400 254 q 454 235 429 235 m 958 708 q 937 717 946 708 q 928 739 928 726 l 957 932 q 974 969 960 951 q 1017 986 989 986 l 1211 986 q 1233 977 1224 986 q 1242 956 1242 968 q 1240 946 1242 950 l 1164 753 q 1145 724 1158 739 q 1104 708 1132 708 l 958 708 z "},"đ":{"ha":919,"x_min":43,"x_max":935,"o":"m 339 -14 q 227 3 279 -14 q 135 59 175 21 q 72 158 96 97 q 44 307 49 219 q 43 363 43 339 q 44 417 43 386 q 71 559 47 499 q 134 658 94 619 q 226 717 174 697 q 339 736 279 736 q 444 719 397 736 q 524 671 490 701 l 524 761 l 482 761 q 456 772 467 761 q 444 799 444 783 l 444 869 q 456 896 444 885 q 482 907 467 907 l 524 907 l 524 949 q 535 975 524 964 q 561 986 546 986 l 818 986 q 844 975 833 986 q 856 949 856 964 l 856 907 l 897 907 q 924 896 913 907 q 935 869 935 885 l 935 799 q 924 772 935 783 q 897 761 913 761 l 856 761 l 856 38 q 844 11 856 22 q 818 0 833 0 l 582 0 q 556 11 567 0 q 544 38 544 22 l 544 79 q 463 13 514 39 q 339 -14 411 -14 m 454 235 q 495 244 481 235 q 516 272 510 254 q 524 315 522 290 q 526 367 526 347 q 524 418 526 388 q 515 456 522 440 q 492 479 507 471 q 454 488 478 488 q 415 478 429 488 q 394 450 400 468 q 385 407 388 432 q 385 315 381 361 q 394 272 388 290 q 415 244 400 254 q 454 235 429 235 z "},"e":{"ha":865,"x_min":39,"x_max":831,"o":"m 436 -14 q 147 76 254 -14 q 39 360 39 165 q 39 365 39 363 q 39 369 39 368 q 91 571 42 489 q 228 694 140 653 q 435 736 317 736 q 658 684 571 736 q 788 547 746 632 q 831 358 831 461 l 831 317 q 819 290 831 301 q 793 279 808 279 l 379 279 q 379 276 379 278 q 379 272 379 275 q 384 226 379 244 q 401 197 389 207 q 433 188 414 188 q 448 190 442 188 q 460 199 454 193 q 474 213 467 206 q 494 228 486 225 q 519 232 503 232 l 782 232 q 805 224 796 232 q 813 201 814 215 q 788 138 811 175 q 719 67 765 101 q 603 9 674 32 q 436 -14 532 -14 m 379 453 l 490 453 l 490 454 q 484 504 490 485 q 465 533 478 524 q 435 542 453 542 q 404 533 417 542 q 385 504 392 524 q 379 454 379 485 l 379 453 z "},"é":{"ha":865,"x_min":39,"x_max":831,"o":"m 436 -14 q 147 76 254 -14 q 39 360 39 165 q 39 365 39 363 q 39 369 39 368 q 91 571 42 489 q 228 694 140 653 q 435 736 317 736 q 658 684 571 736 q 788 547 746 632 q 831 358 831 461 l 831 317 q 819 290 831 301 q 793 279 808 279 l 379 279 q 379 276 379 278 q 379 272 379 275 q 384 226 379 244 q 401 197 389 207 q 433 188 414 188 q 448 190 442 188 q 460 199 454 193 q 474 213 467 206 q 494 228 486 225 q 519 232 503 232 l 782 232 q 805 224 796 232 q 813 201 814 215 q 788 138 811 175 q 719 67 765 101 q 603 9 674 32 q 436 -14 532 -14 m 379 453 l 490 453 l 490 454 q 484 504 490 485 q 465 533 478 524 q 435 542 453 542 q 404 533 417 542 q 385 504 392 524 q 379 454 379 485 l 379 453 m 315 826 q 293 849 293 826 q 300 867 293 860 l 439 1036 q 465 1058 454 1054 q 490 1063 475 1063 l 749 1063 q 775 1035 775 1063 q 768 1018 775 1025 l 564 850 q 540 833 553 840 q 506 826 528 826 l 315 826 z "},"ĕ":{"ha":865,"x_min":39,"x_max":831,"o":"m 436 -14 q 147 76 254 -14 q 39 360 39 165 q 39 365 39 363 q 39 369 39 368 q 91 571 42 489 q 228 694 140 653 q 435 736 317 736 q 658 684 571 736 q 788 547 746 632 q 831 358 831 461 l 831 317 q 819 290 831 301 q 793 279 808 279 l 379 279 q 379 276 379 278 q 379 272 379 275 q 384 226 379 244 q 401 197 389 207 q 433 188 414 188 q 448 190 442 188 q 460 199 454 193 q 474 213 467 206 q 494 228 486 225 q 519 232 503 232 l 782 232 q 805 224 796 232 q 813 201 814 215 q 788 138 811 175 q 719 67 765 101 q 603 9 674 32 q 436 -14 532 -14 m 379 453 l 490 453 l 490 454 q 484 504 490 485 q 465 533 478 524 q 435 542 453 542 q 404 533 417 542 q 385 504 392 524 q 379 454 379 485 l 379 453 m 433 819 q 303 848 357 819 q 222 925 250 876 q 194 1036 194 974 q 201 1055 194 1047 q 221 1063 208 1063 l 351 1063 q 371 1055 364 1063 q 378 1036 378 1047 q 390 983 378 1006 q 433 960 403 960 q 477 983 465 960 q 489 1038 489 1006 q 496 1055 489 1047 q 515 1063 503 1063 l 646 1063 q 665 1055 658 1063 q 672 1036 672 1047 q 644 925 672 974 q 563 848 617 876 q 433 819 510 819 z "},"ě":{"ha":865,"x_min":39,"x_max":831,"o":"m 436 -14 q 147 76 254 -14 q 39 360 39 165 q 39 365 39 363 q 39 369 39 368 q 91 571 42 489 q 228 694 140 653 q 435 736 317 736 q 658 684 571 736 q 788 547 746 632 q 831 358 831 461 l 831 317 q 819 290 831 301 q 793 279 808 279 l 379 279 q 379 276 379 278 q 379 272 379 275 q 384 226 379 244 q 401 197 389 207 q 433 188 414 188 q 448 190 442 188 q 460 199 454 193 q 474 213 467 206 q 494 228 486 225 q 519 232 503 232 l 782 232 q 805 224 796 232 q 813 201 814 215 q 788 138 811 175 q 719 67 765 101 q 603 9 674 32 q 436 -14 532 -14 m 379 453 l 490 453 l 490 454 q 484 504 490 485 q 465 533 478 524 q 435 542 453 542 q 404 533 417 542 q 385 504 392 524 q 379 454 379 485 l 379 453 m 350 826 q 324 833 335 826 q 299 853 313 839 l 143 1022 q 136 1040 136 1029 q 158 1063 136 1063 l 250 1063 q 278 1061 264 1063 q 306 1053 292 1060 l 433 994 l 561 1053 q 590 1061 576 1060 q 617 1063 603 1063 l 708 1063 q 731 1040 731 1063 q 724 1022 731 1029 l 568 853 q 543 833 554 839 q 517 826 532 826 l 350 826 z "},"ê":{"ha":865,"x_min":39,"x_max":831,"o":"m 436 -14 q 147 76 254 -14 q 39 360 39 165 q 39 365 39 363 q 39 369 39 368 q 91 571 42 489 q 228 694 140 653 q 435 736 317 736 q 658 684 571 736 q 788 547 746 632 q 831 358 831 461 l 831 317 q 819 290 831 301 q 793 279 808 279 l 379 279 q 379 276 379 278 q 379 272 379 275 q 384 226 379 244 q 401 197 389 207 q 433 188 414 188 q 448 190 442 188 q 460 199 454 193 q 474 213 467 206 q 494 228 486 225 q 519 232 503 232 l 782 232 q 805 224 796 232 q 813 201 814 215 q 788 138 811 175 q 719 67 765 101 q 603 9 674 32 q 436 -14 532 -14 m 379 453 l 490 453 l 490 454 q 484 504 490 485 q 465 533 478 524 q 435 542 453 542 q 404 533 417 542 q 385 504 392 524 q 379 454 379 485 l 379 453 m 158 826 q 136 849 136 826 q 143 867 136 860 l 299 1036 q 324 1057 313 1051 q 350 1063 335 1063 l 517 1063 q 543 1057 532 1063 q 568 1036 554 1051 l 724 867 q 731 849 731 860 q 708 826 731 826 l 617 826 q 590 828 603 826 q 561 836 576 829 l 433 894 l 306 836 q 278 828 292 829 q 250 826 264 826 l 158 826 z "},"ë":{"ha":865,"x_min":39,"x_max":831,"o":"m 436 -14 q 147 76 254 -14 q 39 360 39 165 q 39 365 39 363 q 39 369 39 368 q 91 571 42 489 q 228 694 140 653 q 435 736 317 736 q 658 684 571 736 q 788 547 746 632 q 831 358 831 461 l 831 317 q 819 290 831 301 q 793 279 808 279 l 379 279 q 379 276 379 278 q 379 272 379 275 q 384 226 379 244 q 401 197 389 207 q 433 188 414 188 q 448 190 442 188 q 460 199 454 193 q 474 213 467 206 q 494 228 486 225 q 519 232 503 232 l 782 232 q 805 224 796 232 q 813 201 814 215 q 788 138 811 175 q 719 67 765 101 q 603 9 674 32 q 436 -14 532 -14 m 379 453 l 490 453 l 490 454 q 484 504 490 485 q 465 533 478 524 q 435 542 453 542 q 404 533 417 542 q 385 504 392 524 q 379 454 379 485 l 379 453 m 513 826 q 490 835 499 826 q 481 858 481 844 l 481 1031 q 490 1053 481 1044 q 513 1063 499 1063 l 685 1063 q 708 1053 699 1063 q 717 1031 717 1044 l 717 858 q 708 835 717 844 q 685 826 699 826 l 513 826 m 181 826 q 158 835 167 826 q 149 858 149 844 l 149 1031 q 158 1053 149 1044 q 181 1063 167 1063 l 353 1063 q 376 1053 367 1063 q 385 1031 385 1044 l 385 858 q 376 835 385 844 q 353 826 367 826 l 181 826 z "},"ė":{"ha":865,"x_min":39,"x_max":831,"o":"m 436 -14 q 147 76 254 -14 q 39 360 39 165 q 39 365 39 363 q 39 369 39 368 q 91 571 42 489 q 228 694 140 653 q 435 736 317 736 q 658 684 571 736 q 788 547 746 632 q 831 358 831 461 l 831 317 q 819 290 831 301 q 793 279 808 279 l 379 279 q 379 276 379 278 q 379 272 379 275 q 384 226 379 244 q 401 197 389 207 q 433 188 414 188 q 448 190 442 188 q 460 199 454 193 q 474 213 467 206 q 494 228 486 225 q 519 232 503 232 l 782 232 q 805 224 796 232 q 813 201 814 215 q 788 138 811 175 q 719 67 765 101 q 603 9 674 32 q 436 -14 532 -14 m 379 453 l 490 453 l 490 454 q 484 504 490 485 q 465 533 478 524 q 435 542 453 542 q 404 533 417 542 q 385 504 392 524 q 379 454 379 485 l 379 453 m 342 826 q 319 835 328 826 q 310 858 310 844 l 310 1040 q 319 1063 310 1054 q 342 1072 328 1072 l 524 1072 q 547 1063 538 1072 q 556 1040 556 1054 l 556 858 q 547 835 556 844 q 524 826 538 826 l 342 826 z "},"è":{"ha":865,"x_min":39,"x_max":831,"o":"m 436 -14 q 147 76 254 -14 q 39 360 39 165 q 39 365 39 363 q 39 369 39 368 q 91 571 42 489 q 228 694 140 653 q 435 736 317 736 q 658 684 571 736 q 788 547 746 632 q 831 358 831 461 l 831 317 q 819 290 831 301 q 793 279 808 279 l 379 279 q 379 276 379 278 q 379 272 379 275 q 384 226 379 244 q 401 197 389 207 q 433 188 414 188 q 448 190 442 188 q 460 199 454 193 q 474 213 467 206 q 494 228 486 225 q 519 232 503 232 l 782 232 q 805 224 796 232 q 813 201 814 215 q 788 138 811 175 q 719 67 765 101 q 603 9 674 32 q 436 -14 532 -14 m 379 453 l 490 453 l 490 454 q 484 504 490 485 q 465 533 478 524 q 435 542 453 542 q 404 533 417 542 q 385 504 392 524 q 379 454 379 485 l 379 453 m 358 826 q 324 833 336 826 q 300 850 311 840 l 96 1018 q 89 1035 89 1025 q 115 1063 89 1063 l 374 1063 q 399 1058 389 1063 q 425 1036 410 1054 l 564 867 q 571 849 571 860 q 549 826 571 826 l 358 826 z "},"ē":{"ha":865,"x_min":39,"x_max":831,"o":"m 436 -14 q 147 76 254 -14 q 39 360 39 165 q 39 365 39 363 q 39 369 39 368 q 91 571 42 489 q 228 694 140 653 q 435 736 317 736 q 658 684 571 736 q 788 547 746 632 q 831 358 831 461 l 831 317 q 819 290 831 301 q 793 279 808 279 l 379 279 q 379 276 379 278 q 379 272 379 275 q 384 226 379 244 q 401 197 389 207 q 433 188 414 188 q 448 190 442 188 q 460 199 454 193 q 474 213 467 206 q 494 228 486 225 q 519 232 503 232 l 782 232 q 805 224 796 232 q 813 201 814 215 q 788 138 811 175 q 719 67 765 101 q 603 9 674 32 q 436 -14 532 -14 m 379 453 l 490 453 l 490 454 q 484 504 490 485 q 465 533 478 524 q 435 542 453 542 q 404 533 417 542 q 385 504 392 524 q 379 454 379 485 l 379 453 m 206 826 q 183 835 192 826 q 174 858 174 844 l 174 1003 q 183 1026 174 1017 q 206 1035 192 1035 l 660 1035 q 683 1026 674 1035 q 692 1003 692 1017 l 692 858 q 683 835 692 844 q 660 826 674 826 l 206 826 z "},"ę":{"ha":865,"x_min":39,"x_max":831,"o":"m 511 -306 q 375 -274 428 -306 q 297 -187 322 -242 q 272 -68 272 -133 q 281 4 272 -29 q 103 124 167 36 q 39 360 39 211 q 39 364 39 363 q 39 367 39 365 q 90 569 40 488 q 228 694 139 651 q 435 736 317 736 q 658 684 571 736 q 788 547 746 632 q 831 358 831 461 l 831 317 q 819 290 831 301 q 793 279 808 279 l 379 279 l 379 272 q 384 226 379 244 q 401 197 389 207 q 433 188 414 188 q 448 190 442 188 q 460 199 454 193 q 474 213 467 206 q 494 228 486 225 q 519 232 503 232 l 782 232 q 805 224 796 232 q 813 201 814 215 q 780 127 811 171 q 687 45 749 83 q 528 -7 625 7 q 466 -30 485 -14 q 447 -68 447 -46 q 462 -113 447 -90 q 517 -136 476 -136 l 531 -136 q 557 -147 546 -136 q 568 -174 568 -158 l 568 -268 q 557 -294 568 -283 q 531 -306 546 -306 l 511 -306 m 379 453 l 490 453 l 490 454 q 484 504 490 485 q 465 533 478 524 q 435 542 453 542 q 404 533 417 542 q 385 504 392 524 q 379 454 379 485 l 379 453 z "},"f":{"ha":683,"x_min":21,"x_max":682,"o":"m 192 0 q 165 11 176 0 q 154 38 154 22 l 154 479 l 58 479 q 32 490 43 479 q 21 517 21 501 l 21 685 q 32 711 21 700 q 58 722 43 722 l 154 722 l 154 746 q 203 921 154 860 q 333 1005 251 982 q 515 1028 415 1028 l 644 1028 q 671 1017 660 1028 q 682 990 682 1006 l 682 822 q 671 796 682 807 q 644 785 660 785 l 532 785 q 487 773 501 785 q 472 739 472 761 l 472 722 l 631 722 q 657 711 646 722 q 668 685 668 700 l 668 517 q 657 490 668 501 q 631 479 646 479 l 472 479 l 472 38 q 461 11 472 22 q 435 0 450 0 l 192 0 z "},"g":{"ha":925,"x_min":42,"x_max":863,"o":"m 469 -306 q 273 -276 351 -306 q 147 -203 194 -246 q 79 -120 100 -161 q 57 -57 58 -79 q 67 -31 56 -42 q 94 -19 79 -19 l 365 -19 q 390 -27 381 -19 q 404 -47 399 -35 q 418 -67 411 -58 q 435 -78 425 -75 q 463 -82 446 -82 q 497 -73 483 -82 q 516 -46 510 -64 q 522 0 522 -28 l 522 92 q 444 48 490 64 q 338 32 399 32 q 219 49 272 32 q 129 102 167 65 q 69 199 92 139 q 43 346 47 258 q 43 417 42 382 q 69 559 47 499 q 128 658 90 619 q 219 717 167 697 q 338 736 272 736 q 458 710 406 736 q 543 642 510 683 l 543 685 q 554 711 543 700 q 581 722 565 722 l 824 722 q 850 711 839 722 q 861 685 861 700 l 863 24 q 810 -165 863 -93 q 668 -272 757 -237 q 469 -306 579 -306 m 453 274 q 491 282 476 274 q 513 306 506 290 q 522 343 521 321 q 524 381 524 354 q 522 418 524 408 q 513 456 521 440 q 491 479 506 471 q 453 488 476 488 q 413 478 428 488 q 392 450 399 468 q 383 407 386 432 q 383 354 381 381 q 392 311 386 329 q 413 283 399 293 q 453 274 428 274 z "},"ğ":{"ha":925,"x_min":42,"x_max":863,"o":"m 469 -306 q 273 -276 351 -306 q 147 -203 194 -246 q 79 -120 100 -161 q 57 -57 58 -79 q 67 -31 56 -42 q 94 -19 79 -19 l 365 -19 q 390 -27 381 -19 q 404 -47 399 -35 q 418 -67 411 -58 q 435 -78 425 -75 q 463 -82 446 -82 q 497 -73 483 -82 q 516 -46 510 -64 q 522 0 522 -28 l 522 92 q 444 48 490 64 q 338 32 399 32 q 219 49 272 32 q 129 102 167 65 q 69 199 92 139 q 43 346 47 258 q 43 417 42 382 q 69 559 47 499 q 128 658 90 619 q 219 717 167 697 q 338 736 272 736 q 458 710 406 736 q 543 642 510 683 l 543 685 q 554 711 543 700 q 581 722 565 722 l 824 722 q 850 711 839 722 q 861 685 861 700 l 863 24 q 810 -165 863 -93 q 668 -272 757 -237 q 469 -306 579 -306 m 453 274 q 491 282 476 274 q 513 306 506 290 q 522 343 521 321 q 524 381 524 354 q 522 418 524 408 q 513 456 521 440 q 491 479 506 471 q 453 488 476 488 q 413 478 428 488 q 392 450 399 468 q 383 407 386 432 q 383 354 381 381 q 392 311 386 329 q 413 283 399 293 q 453 274 428 274 m 454 819 q 324 848 378 819 q 243 925 271 876 q 215 1036 215 974 q 222 1055 215 1047 q 242 1063 229 1063 l 372 1063 q 392 1055 385 1063 q 399 1036 399 1047 q 411 983 399 1006 q 454 960 424 960 q 498 983 486 960 q 510 1038 510 1006 q 517 1055 510 1047 q 536 1063 524 1063 l 667 1063 q 686 1055 679 1063 q 693 1036 693 1047 q 665 925 693 974 q 584 848 638 876 q 454 819 531 819 z "},"ĝ":{"ha":925,"x_min":42,"x_max":863,"o":"m 469 -306 q 273 -276 351 -306 q 147 -203 194 -246 q 79 -120 100 -161 q 57 -57 58 -79 q 67 -31 56 -42 q 94 -19 79 -19 l 365 -19 q 390 -27 381 -19 q 404 -47 399 -35 q 418 -67 411 -58 q 435 -78 425 -75 q 463 -82 446 -82 q 497 -73 483 -82 q 516 -46 510 -64 q 522 0 522 -28 l 522 92 q 444 48 490 64 q 338 32 399 32 q 219 49 272 32 q 129 102 167 65 q 69 199 92 139 q 43 346 47 258 q 43 417 42 382 q 69 559 47 499 q 128 658 90 619 q 219 717 167 697 q 338 736 272 736 q 458 710 406 736 q 543 642 510 683 l 543 685 q 554 711 543 700 q 581 722 565 722 l 824 722 q 850 711 839 722 q 861 685 861 700 l 863 24 q 810 -165 863 -93 q 668 -272 757 -237 q 469 -306 579 -306 m 453 274 q 491 282 476 274 q 513 306 506 290 q 522 343 521 321 q 524 381 524 354 q 522 418 524 408 q 513 456 521 440 q 491 479 506 471 q 453 488 476 488 q 413 478 428 488 q 392 450 399 468 q 383 407 386 432 q 383 354 381 381 q 392 311 386 329 q 413 283 399 293 q 453 274 428 274 m 179 826 q 157 849 157 826 q 164 867 157 860 l 319 1036 q 344 1057 333 1051 q 371 1063 356 1063 l 538 1063 q 564 1057 553 1063 q 589 1036 575 1051 l 744 867 q 751 849 751 860 q 729 826 751 826 l 638 826 q 610 828 624 826 q 582 836 597 829 l 454 894 l 326 836 q 299 828 313 829 q 271 826 285 826 l 179 826 z "},"ģ":{"ha":925,"x_min":42,"x_max":863,"o":"m 469 -306 q 273 -276 351 -306 q 147 -203 194 -246 q 79 -120 100 -161 q 57 -57 58 -79 q 67 -31 56 -42 q 94 -19 79 -19 l 365 -19 q 390 -27 381 -19 q 404 -47 399 -35 q 418 -67 411 -58 q 435 -78 425 -75 q 463 -82 446 -82 q 497 -73 483 -82 q 516 -46 510 -64 q 522 0 522 -28 l 522 92 q 444 48 490 64 q 338 32 399 32 q 219 49 272 32 q 129 102 167 65 q 69 199 92 139 q 43 346 47 258 q 43 417 42 382 q 69 559 47 499 q 128 658 90 619 q 219 717 167 697 q 338 736 272 736 q 458 710 406 736 q 543 642 510 683 l 543 685 q 554 711 543 700 q 581 722 565 722 l 824 722 q 850 711 839 722 q 861 685 861 700 l 863 24 q 810 -165 863 -93 q 668 -272 757 -237 q 469 -306 579 -306 m 453 274 q 491 282 476 274 q 513 306 506 290 q 522 343 521 321 q 524 381 524 354 q 522 418 524 408 q 513 456 521 440 q 491 479 506 471 q 453 488 476 488 q 413 478 428 488 q 392 450 399 468 q 383 407 386 432 q 383 354 381 381 q 392 311 386 329 q 413 283 399 293 q 453 274 428 274 m 357 826 q 335 835 344 826 q 326 857 326 844 q 328 867 326 863 l 404 1060 q 424 1089 410 1074 q 464 1104 438 1104 l 610 1104 q 631 1095 622 1104 q 640 1074 640 1086 l 611 881 q 594 844 608 863 q 551 826 579 826 l 357 826 z "},"ġ":{"ha":925,"x_min":42,"x_max":863,"o":"m 469 -306 q 273 -276 351 -306 q 147 -203 194 -246 q 79 -120 100 -161 q 57 -57 58 -79 q 67 -31 56 -42 q 94 -19 79 -19 l 365 -19 q 390 -27 381 -19 q 404 -47 399 -35 q 418 -67 411 -58 q 435 -78 425 -75 q 463 -82 446 -82 q 497 -73 483 -82 q 516 -46 510 -64 q 522 0 522 -28 l 522 92 q 444 48 490 64 q 338 32 399 32 q 219 49 272 32 q 129 102 167 65 q 69 199 92 139 q 43 346 47 258 q 43 417 42 382 q 69 559 47 499 q 128 658 90 619 q 219 717 167 697 q 338 736 272 736 q 458 710 406 736 q 543 642 510 683 l 543 685 q 554 711 543 700 q 581 722 565 722 l 824 722 q 850 711 839 722 q 861 685 861 700 l 863 24 q 810 -165 863 -93 q 668 -272 757 -237 q 469 -306 579 -306 m 453 274 q 491 282 476 274 q 513 306 506 290 q 522 343 521 321 q 524 381 524 354 q 522 418 524 408 q 513 456 521 440 q 491 479 506 471 q 453 488 476 488 q 413 478 428 488 q 392 450 399 468 q 383 407 386 432 q 383 354 381 381 q 392 311 386 329 q 413 283 399 293 q 453 274 428 274 m 363 826 q 340 835 349 826 q 331 858 331 844 l 331 1040 q 340 1063 331 1054 q 363 1072 349 1072 l 544 1072 q 567 1063 558 1072 q 576 1040 576 1054 l 576 858 q 567 835 576 844 q 544 826 558 826 l 363 826 z "},"h":{"ha":951,"x_min":63,"x_max":896,"o":"m 100 0 q 74 11 85 0 q 63 38 63 22 l 63 949 q 74 975 63 964 q 100 986 85 986 l 371 986 q 397 975 386 986 q 408 949 408 964 l 408 650 q 500 713 444 690 q 619 736 556 736 q 753 703 690 736 q 856 600 817 669 q 896 421 896 531 l 896 38 q 885 11 896 22 q 858 0 874 0 l 586 0 q 560 11 571 0 q 549 38 549 22 l 549 411 q 531 468 549 449 q 479 488 513 488 q 427 468 446 488 q 408 411 408 449 l 408 38 q 397 11 408 22 q 371 0 386 0 l 100 0 z "},"ħ":{"ha":951,"x_min":-10,"x_max":896,"o":"m 28 747 q 1 758 13 747 q -10 785 -10 769 l -10 856 q 1 882 -10 871 q 28 893 13 893 l 443 893 q 469 882 458 893 q 481 856 481 871 l 481 785 q 469 758 481 769 q 443 747 458 747 l 28 747 m 100 0 q 74 11 85 0 q 63 38 63 22 l 63 949 q 74 975 63 964 q 100 986 85 986 l 371 986 q 397 975 386 986 q 408 949 408 964 l 408 650 q 500 713 444 690 q 619 736 556 736 q 753 703 690 736 q 856 600 817 669 q 896 421 896 531 l 896 38 q 885 11 896 22 q 858 0 874 0 l 586 0 q 560 11 571 0 q 549 38 549 22 l 549 411 q 531 468 549 449 q 479 488 513 488 q 427 468 446 488 q 408 411 408 449 l 408 38 q 397 11 408 22 q 371 0 386 0 l 100 0 z "},"ĥ":{"ha":951,"x_min":63,"x_max":896,"o":"m 100 0 q 74 11 85 0 q 63 38 63 22 l 63 949 q 74 975 63 964 q 100 986 85 986 l 371 986 q 397 975 386 986 q 408 949 408 964 l 408 650 q 500 713 444 690 q 619 736 556 736 q 753 703 690 736 q 856 600 817 669 q 896 421 896 531 l 896 38 q 885 11 896 22 q 858 0 874 0 l 586 0 q 560 11 571 0 q 549 38 549 22 l 549 411 q 531 468 549 449 q 479 488 513 488 q 427 468 446 488 q 408 411 408 449 l 408 38 q 397 11 408 22 q 371 0 386 0 l 100 0 m 201 1043 q 179 1065 179 1043 q 186 1083 179 1076 l 342 1253 q 367 1274 356 1268 q 393 1279 378 1279 l 560 1279 q 586 1274 575 1279 q 611 1253 597 1268 l 767 1083 q 774 1065 774 1076 q 751 1043 774 1043 l 660 1043 q 633 1044 646 1043 q 604 1053 619 1046 l 476 1111 l 349 1053 q 321 1044 335 1046 q 293 1043 307 1043 l 201 1043 z "},"i":{"ha":449,"x_min":63,"x_max":386,"o":"m 100 0 q 74 11 85 0 q 63 38 63 22 l 63 685 q 74 711 63 700 q 100 722 85 722 l 349 722 q 375 711 364 722 q 386 685 386 700 l 386 38 q 375 11 386 22 q 349 0 364 0 l 100 0 m 107 799 q 81 810 92 799 q 69 836 69 821 l 69 1004 q 81 1031 69 1019 q 107 1042 92 1042 l 342 1042 q 368 1031 357 1042 q 379 1004 379 1019 l 379 836 q 368 810 379 821 q 342 799 357 799 l 107 799 z "},"ı":{"ha":449,"x_min":63,"x_max":386,"o":"m 100 0 q 74 11 85 0 q 63 38 63 22 l 63 685 q 74 711 63 700 q 100 722 85 722 l 349 722 q 375 711 364 722 q 386 685 386 700 l 386 38 q 375 11 386 22 q 349 0 364 0 l 100 0 z "},"í":{"ha":449,"x_min":63,"x_max":567,"o":"m 100 0 q 74 11 85 0 q 63 38 63 22 l 63 685 q 74 711 63 700 q 100 722 85 722 l 349 722 q 375 711 364 722 q 386 685 386 700 l 386 38 q 375 11 386 22 q 349 0 364 0 l 100 0 m 107 826 q 85 849 85 826 q 92 867 85 860 l 231 1036 q 256 1058 246 1054 q 282 1063 267 1063 l 540 1063 q 567 1035 567 1063 q 560 1018 567 1025 l 356 850 q 332 833 344 840 q 297 826 319 826 l 107 826 z "},"ĭ":{"ha":449,"x_min":-14,"x_max":464,"o":"m 100 0 q 74 11 85 0 q 63 38 63 22 l 63 685 q 74 711 63 700 q 100 722 85 722 l 349 722 q 375 711 364 722 q 386 685 386 700 l 386 38 q 375 11 386 22 q 349 0 364 0 l 100 0 m 225 819 q 95 848 149 819 q 14 925 42 876 q -14 1036 -14 974 q -7 1055 -14 1047 q 13 1063 0 1063 l 143 1063 q 163 1055 156 1063 q 169 1036 169 1047 q 182 983 169 1006 q 225 960 194 960 q 269 983 257 960 q 281 1038 281 1006 q 288 1055 281 1047 q 307 1063 294 1063 l 438 1063 q 457 1055 450 1063 q 464 1036 464 1047 q 436 925 464 974 q 355 848 408 876 q 225 819 301 819 z "},"î":{"ha":449,"x_min":-72,"x_max":522,"o":"m 100 0 q 74 11 85 0 q 63 38 63 22 l 63 685 q 74 711 63 700 q 100 722 85 722 l 349 722 q 375 711 364 722 q 386 685 386 700 l 386 38 q 375 11 386 22 q 349 0 364 0 l 100 0 m -50 826 q -72 849 -72 826 q -65 867 -72 860 l 90 1036 q 115 1057 104 1051 q 142 1063 126 1063 l 308 1063 q 335 1057 324 1063 q 360 1036 346 1051 l 515 867 q 522 849 522 860 q 500 826 522 826 l 408 826 q 381 828 394 826 q 353 836 368 829 l 225 894 l 97 836 q 69 828 83 829 q 42 826 56 826 l -50 826 z "},"ï":{"ha":449,"x_min":-60,"x_max":508,"o":"m 100 0 q 74 11 85 0 q 63 38 63 22 l 63 685 q 74 711 63 700 q 100 722 85 722 l 349 722 q 375 711 364 722 q 386 685 386 700 l 386 38 q 375 11 386 22 q 349 0 364 0 l 100 0 m 304 826 q 281 835 290 826 q 272 858 272 844 l 272 1031 q 281 1053 272 1044 q 304 1063 290 1063 l 476 1063 q 499 1053 490 1063 q 508 1031 508 1044 l 508 858 q 499 835 508 844 q 476 826 490 826 l 304 826 m -28 826 q -51 835 -42 826 q -60 858 -60 844 l -60 1031 q -51 1053 -60 1044 q -28 1063 -42 1063 l 144 1063 q 167 1053 158 1063 q 176 1031 176 1044 l 176 858 q 167 835 176 844 q 144 826 158 826 l -28 826 z "},"ì":{"ha":449,"x_min":-119,"x_max":386,"o":"m 100 0 q 74 11 85 0 q 63 38 63 22 l 63 685 q 74 711 63 700 q 100 722 85 722 l 349 722 q 375 711 364 722 q 386 685 386 700 l 386 38 q 375 11 386 22 q 349 0 364 0 l 100 0 m 150 826 q 115 833 128 826 q 92 850 103 840 l -112 1018 q -119 1035 -119 1025 q -93 1063 -119 1063 l 165 1063 q 191 1058 181 1063 q 217 1036 201 1054 l 356 867 q 363 849 363 860 q 340 826 363 826 l 150 826 z "},"ĳ":{"ha":928,"x_min":63,"x_max":865,"o":"m 100 0 q 74 11 85 0 q 63 38 63 22 l 63 685 q 74 711 63 700 q 100 722 85 722 l 349 722 q 375 711 364 722 q 386 685 386 700 l 386 38 q 375 11 386 22 q 349 0 364 0 l 100 0 m 107 799 q 81 810 92 799 q 69 836 69 821 l 69 1004 q 81 1031 69 1019 q 107 1042 92 1042 l 342 1042 q 368 1031 357 1042 q 379 1004 379 1019 l 379 836 q 368 810 379 821 q 342 799 357 799 l 107 799 m 389 -264 q 363 -253 374 -264 q 351 -226 351 -242 l 351 -58 q 363 -32 351 -43 q 389 -21 374 -21 l 469 -21 q 503 -12 490 -21 q 523 12 517 -4 q 529 49 529 28 l 529 685 q 540 711 529 700 q 567 722 551 722 l 828 722 q 854 711 843 722 q 865 685 865 700 l 865 40 q 819 -131 865 -64 q 692 -231 772 -199 q 511 -264 613 -264 l 389 -264 m 574 799 q 547 810 558 799 q 536 836 536 821 l 536 1004 q 547 1031 536 1019 q 574 1042 558 1042 l 821 1042 q 847 1031 836 1042 q 858 1004 858 1019 l 858 836 q 847 810 858 821 q 821 799 836 799 l 574 799 z "},"ī":{"ha":449,"x_min":-35,"x_max":483,"o":"m 100 0 q 74 11 85 0 q 63 38 63 22 l 63 685 q 74 711 63 700 q 100 722 85 722 l 349 722 q 375 711 364 722 q 386 685 386 700 l 386 38 q 375 11 386 22 q 349 0 364 0 l 100 0 m -3 826 q -26 835 -17 826 q -35 858 -35 844 l -35 1003 q -26 1026 -35 1017 q -3 1035 -17 1035 l 451 1035 q 474 1026 465 1035 q 483 1003 483 1017 l 483 858 q 474 835 483 844 q 451 826 465 826 l -3 826 z "},"į":{"ha":449,"x_min":63,"x_max":386,"o":"m 329 -267 q 159 -206 214 -267 q 104 -56 104 -144 q 106 -26 104 -40 q 110 0 107 -12 l 100 0 q 74 11 85 0 q 63 38 63 22 l 63 685 q 74 711 63 700 q 100 722 85 722 l 349 722 q 375 711 364 722 q 386 685 386 700 l 386 38 q 375 11 386 22 q 349 0 364 0 l 335 0 q 280 -17 294 0 q 265 -56 265 -33 q 280 -94 265 -78 q 335 -111 294 -111 l 349 -111 q 375 -122 364 -111 q 386 -149 386 -133 l 386 -229 q 375 -256 386 -244 q 349 -267 364 -267 l 329 -267 m 107 799 q 81 810 92 799 q 69 836 69 821 l 69 1004 q 81 1031 69 1019 q 107 1042 92 1042 l 342 1042 q 368 1031 357 1042 q 379 1004 379 1019 l 379 836 q 368 810 379 821 q 342 799 357 799 l 107 799 z "},"ĩ":{"ha":449,"x_min":-58,"x_max":507,"o":"m 100 0 q 74 11 85 0 q 63 38 63 22 l 63 685 q 74 711 63 700 q 100 722 85 722 l 349 722 q 375 711 364 722 q 386 685 386 700 l 386 38 q 375 11 386 22 q 349 0 364 0 l 100 0 m 318 819 q 250 832 276 819 q 203 857 224 844 q 154 869 182 869 q 124 859 133 869 q 107 838 114 849 q 85 826 100 826 l -32 826 q -50 834 -42 826 q -58 851 -58 842 q -50 912 -58 875 q -21 985 -42 949 q 37 1045 0 1021 q 131 1069 74 1069 q 199 1057 172 1069 q 247 1032 225 1044 q 294 1019 268 1019 q 324 1031 315 1019 q 341 1052 333 1042 q 364 1063 349 1063 l 481 1063 q 500 1055 493 1063 q 507 1036 507 1047 q 499 976 507 1013 q 469 904 490 940 q 412 844 449 868 q 318 819 375 819 z "},"j":{"ha":479,"x_min":-97,"x_max":417,"o":"m -60 -264 q -86 -253 -75 -264 q -97 -226 -97 -242 l -97 -58 q -86 -32 -97 -43 q -60 -21 -75 -21 l 21 -21 q 55 -12 42 -21 q 74 12 68 -4 q 81 49 81 28 l 81 685 q 92 711 81 700 q 118 722 103 722 l 379 722 q 406 711 394 722 q 417 685 417 700 l 417 40 q 370 -131 417 -64 q 244 -231 324 -199 q 63 -264 164 -264 l -60 -264 m 125 799 q 99 810 110 799 q 88 836 88 821 l 88 1004 q 99 1031 88 1019 q 125 1042 110 1042 l 372 1042 q 399 1031 388 1042 q 410 1004 410 1019 l 410 836 q 399 810 410 821 q 372 799 388 799 l 125 799 z "},"ȷ":{"ha":669,"x_min":31,"x_max":607,"o":"m 68 -264 q 42 -253 53 -264 q 31 -226 31 -242 l 31 -10 q 42 17 31 6 q 68 28 53 28 l 208 28 q 242 36 229 28 q 262 60 256 44 q 268 97 268 76 l 268 468 l 72 468 q 46 479 57 468 q 35 506 35 490 l 35 685 q 46 711 35 700 q 72 722 57 722 l 569 722 q 596 711 585 722 q 607 685 607 700 l 607 97 q 560 -97 607 -17 q 434 -221 514 -178 q 253 -264 354 -264 l 68 -264 z "},"ĵ":{"ha":669,"x_min":31,"x_max":632,"o":"m 68 -264 q 42 -253 53 -264 q 31 -226 31 -242 l 31 -10 q 42 17 31 6 q 68 28 53 28 l 208 28 q 242 36 229 28 q 262 60 256 44 q 268 97 268 76 l 268 468 l 72 468 q 46 479 57 468 q 35 506 35 490 l 35 685 q 46 711 35 700 q 72 722 57 722 l 569 722 q 596 711 585 722 q 607 685 607 700 l 607 97 q 560 -97 607 -17 q 434 -221 514 -178 q 253 -264 354 -264 l 68 -264 m 60 826 q 38 849 38 826 q 44 867 38 860 l 200 1036 q 225 1057 214 1051 q 251 1063 236 1063 l 418 1063 q 444 1057 433 1063 q 469 1036 456 1051 l 625 867 q 632 849 632 860 q 610 826 632 826 l 518 826 q 491 828 504 826 q 463 836 478 829 l 335 894 l 207 836 q 179 828 193 829 q 151 826 165 826 l 60 826 z "},"k":{"ha":893,"x_min":63,"x_max":890,"o":"m 100 0 q 74 11 85 0 q 63 38 63 22 l 63 949 q 74 975 63 964 q 100 986 85 986 l 343 986 q 369 975 358 986 q 381 949 381 964 l 381 499 l 503 699 q 515 713 506 704 q 543 722 525 722 l 824 722 q 847 713 838 722 q 857 689 857 703 q 855 677 857 683 q 850 668 853 671 l 660 397 l 885 51 q 890 33 890 43 q 881 10 890 19 q 857 0 871 0 l 565 0 q 535 10 544 0 q 522 24 525 21 l 381 260 l 381 38 q 369 11 381 22 q 343 0 358 0 l 100 0 z "},"ķ":{"ha":893,"x_min":63,"x_max":890,"o":"m 100 0 q 74 11 85 0 q 63 38 63 22 l 63 949 q 74 975 63 964 q 100 986 85 986 l 343 986 q 369 975 358 986 q 381 949 381 964 l 381 499 l 503 699 q 515 713 506 704 q 543 722 525 722 l 824 722 q 847 713 838 722 q 857 689 857 703 q 855 677 857 683 q 850 668 853 671 l 660 397 l 885 51 q 890 33 890 43 q 881 10 890 19 q 857 0 871 0 l 565 0 q 535 10 544 0 q 522 24 525 21 l 381 260 l 381 38 q 369 11 381 22 q 343 0 358 0 l 100 0 m 301 -347 q 280 -338 289 -347 q 271 -317 271 -329 l 300 -124 q 317 -87 303 -104 q 360 -69 332 -69 l 554 -69 q 576 -78 567 -69 q 585 -100 585 -87 q 583 -110 585 -106 l 507 -303 q 488 -332 501 -317 q 447 -347 475 -347 l 301 -347 z "},"ĸ":{"ha":893,"x_min":63,"x_max":890,"o":"m 100 0 q 74 11 85 0 q 63 38 63 22 l 63 685 q 74 711 63 700 q 100 722 85 722 l 343 722 q 369 711 358 722 q 381 685 381 700 l 381 457 l 517 699 q 529 713 519 704 q 557 722 539 722 l 824 722 q 847 713 838 722 q 857 689 857 703 q 855 677 857 683 q 850 668 853 671 l 674 369 l 885 51 q 890 33 890 43 q 881 10 890 19 q 857 0 871 0 l 565 0 q 535 10 544 0 q 522 24 525 21 l 381 260 l 381 38 q 369 11 381 22 q 343 0 358 0 l 100 0 z "},"l":{"ha":449,"x_min":63,"x_max":386,"o":"m 100 0 q 74 11 85 0 q 63 38 63 22 l 63 949 q 74 975 63 964 q 100 986 85 986 l 349 986 q 375 975 364 986 q 386 949 386 964 l 386 38 q 375 11 386 22 q 349 0 364 0 l 100 0 z "},"ĺ":{"ha":449,"x_min":63,"x_max":567,"o":"m 100 0 q 74 11 85 0 q 63 38 63 22 l 63 949 q 74 975 63 964 q 100 986 85 986 l 349 986 q 375 975 364 986 q 386 949 386 964 l 386 38 q 375 11 386 22 q 349 0 364 0 l 100 0 m 107 1042 q 85 1064 85 1042 q 92 1082 85 1075 l 231 1251 q 256 1274 246 1269 q 282 1278 267 1278 l 540 1278 q 567 1250 567 1278 q 560 1233 567 1240 l 356 1065 q 332 1049 344 1056 q 297 1042 319 1042 l 107 1042 z "},"ľ":{"ha":657,"x_min":63,"x_max":768,"o":"m 100 0 q 74 11 85 0 q 63 38 63 22 l 63 949 q 74 975 63 964 q 100 986 85 986 l 349 986 q 375 975 364 986 q 386 949 386 964 l 386 38 q 375 11 386 22 q 349 0 364 0 l 100 0 m 485 708 q 463 717 472 708 q 454 739 454 726 l 483 932 q 501 969 486 951 q 543 986 515 986 l 738 986 q 759 977 750 986 q 768 956 768 968 q 767 946 768 950 l 690 753 q 672 724 685 739 q 631 708 658 708 l 485 708 z "},"ļ":{"ha":449,"x_min":49,"x_max":386,"o":"m 100 0 q 74 11 85 0 q 63 38 63 22 l 63 949 q 74 975 63 964 q 100 986 85 986 l 349 986 q 375 975 364 986 q 386 949 386 964 l 386 38 q 375 11 386 22 q 349 0 364 0 l 100 0 m 79 -347 q 58 -338 67 -347 q 49 -317 49 -329 l 78 -124 q 95 -87 81 -104 q 138 -69 110 -69 l 332 -69 q 353 -78 344 -69 q 363 -100 363 -87 q 361 -110 363 -106 l 285 -303 q 266 -332 279 -317 q 225 -347 253 -347 l 79 -347 z "},"ŀ":{"ha":694,"x_min":63,"x_max":694,"o":"m 100 0 q 74 11 85 0 q 63 38 63 22 l 63 949 q 74 975 63 964 q 100 986 85 986 l 349 986 q 375 975 364 986 q 386 949 386 964 l 386 38 q 375 11 386 22 q 349 0 364 0 l 100 0 m 481 379 q 458 388 467 379 q 449 411 449 397 l 449 593 q 458 616 449 607 q 481 625 467 625 l 663 625 q 685 616 676 625 q 694 593 694 607 l 694 411 q 685 388 694 397 q 663 379 676 379 l 481 379 z "},"ł":{"ha":556,"x_min":33,"x_max":524,"o":"m 154 0 q 128 11 139 0 q 117 38 117 22 l 117 318 l 78 303 q 63 299 68 299 q 42 307 50 299 q 33 328 33 315 l 33 478 q 40 508 33 497 q 64 524 47 518 l 117 543 l 117 949 q 128 975 117 964 q 154 986 139 986 l 403 986 q 429 975 418 986 q 440 949 440 964 l 440 669 l 479 685 q 494 689 490 689 q 515 681 507 689 q 524 660 524 672 l 524 510 q 517 481 524 492 q 493 464 510 471 l 440 443 l 440 38 q 429 11 440 22 q 403 0 418 0 l 154 0 z "},"m":{"ha":1303,"x_min":63,"x_max":1247,"o":"m 100 0 q 74 11 85 0 q 63 38 63 22 l 63 685 q 74 711 63 700 q 100 722 85 722 l 329 722 q 356 711 344 722 q 367 685 367 700 l 367 639 q 441 702 390 671 q 560 736 492 733 q 779 622 724 742 q 869 703 811 671 q 992 736 928 736 q 1120 704 1063 736 q 1213 604 1178 672 q 1247 426 1247 536 l 1247 38 q 1236 11 1247 22 q 1210 0 1225 0 l 965 0 q 939 11 950 0 q 928 38 928 22 l 928 419 q 921 457 928 442 q 902 480 914 472 q 872 488 890 488 q 843 480 856 488 q 824 457 831 472 q 818 419 818 442 l 818 38 q 807 11 818 22 q 781 0 796 0 l 536 0 q 510 11 521 0 q 499 38 499 22 l 499 419 q 492 457 499 442 q 473 480 485 472 q 443 488 461 488 q 414 479 426 488 q 394 456 401 471 q 388 419 388 442 l 388 38 q 376 11 388 22 q 350 0 365 0 l 100 0 z "},"n":{"ha":936,"x_min":63,"x_max":881,"o":"m 100 0 q 74 11 85 0 q 63 38 63 22 l 63 685 q 74 711 63 700 q 100 722 85 722 l 343 722 q 369 711 358 722 q 381 685 381 700 l 381 639 q 476 708 415 679 q 611 736 538 736 q 743 703 682 736 q 842 600 804 669 q 881 421 881 531 l 881 38 q 869 11 881 22 q 843 0 858 0 l 578 0 q 551 11 563 0 q 540 38 540 22 l 540 411 q 522 468 540 449 q 471 488 504 488 q 419 468 438 488 q 401 411 401 449 l 401 38 q 390 11 401 22 q 364 0 379 0 l 100 0 z "},"ń":{"ha":936,"x_min":63,"x_max":881,"o":"m 100 0 q 74 11 85 0 q 63 38 63 22 l 63 685 q 74 711 63 700 q 100 722 85 722 l 343 722 q 369 711 358 722 q 381 685 381 700 l 381 639 q 476 708 415 679 q 611 736 538 736 q 743 703 682 736 q 842 600 804 669 q 881 421 881 531 l 881 38 q 869 11 881 22 q 843 0 858 0 l 578 0 q 551 11 563 0 q 540 38 540 22 l 540 411 q 522 468 540 449 q 471 488 504 488 q 419 468 438 488 q 401 411 401 449 l 401 38 q 390 11 401 22 q 364 0 379 0 l 100 0 m 354 826 q 332 849 332 826 q 339 867 332 860 l 478 1036 q 503 1058 493 1054 q 529 1063 514 1063 l 788 1063 q 814 1035 814 1063 q 807 1018 814 1025 l 603 850 q 579 833 592 840 q 544 826 567 826 l 354 826 z "},"ŉ":{"ha":936,"x_min":-135,"x_max":881,"o":"m -104 764 q -126 773 -117 764 q -135 794 -135 782 l -106 988 q -88 1024 -103 1007 q -46 1042 -74 1042 l 149 1042 q 170 1033 161 1042 q 179 1011 179 1024 q 178 1001 179 1006 l 101 808 q 83 779 96 794 q 42 764 69 764 l -104 764 m 100 0 q 74 11 85 0 q 63 38 63 22 l 63 685 q 74 711 63 700 q 100 722 85 722 l 343 722 q 369 711 358 722 q 381 685 381 700 l 381 639 q 476 708 415 679 q 611 736 538 736 q 743 703 682 736 q 842 600 804 669 q 881 421 881 531 l 881 38 q 869 11 881 22 q 843 0 858 0 l 578 0 q 551 11 563 0 q 540 38 540 22 l 540 411 q 522 468 540 449 q 471 488 504 488 q 419 468 438 488 q 401 411 401 449 l 401 38 q 390 11 401 22 q 364 0 379 0 l 100 0 z "},"ň":{"ha":936,"x_min":63,"x_max":881,"o":"m 100 0 q 74 11 85 0 q 63 38 63 22 l 63 685 q 74 711 63 700 q 100 722 85 722 l 343 722 q 369 711 358 722 q 381 685 381 700 l 381 639 q 476 708 415 679 q 611 736 538 736 q 743 703 682 736 q 842 600 804 669 q 881 421 881 531 l 881 38 q 869 11 881 22 q 843 0 858 0 l 578 0 q 551 11 563 0 q 540 38 540 22 l 540 411 q 522 468 540 449 q 471 488 504 488 q 419 468 438 488 q 401 411 401 449 l 401 38 q 390 11 401 22 q 364 0 379 0 l 100 0 m 389 826 q 363 833 374 826 q 338 853 351 839 l 182 1022 q 175 1040 175 1029 q 197 1063 175 1063 l 289 1063 q 317 1061 303 1063 q 344 1053 331 1060 l 472 994 l 600 1053 q 628 1061 615 1060 q 656 1063 642 1063 l 747 1063 q 769 1040 769 1063 q 763 1022 769 1029 l 607 853 q 582 833 593 839 q 556 826 571 826 l 389 826 z "},"ņ":{"ha":936,"x_min":63,"x_max":881,"o":"m 100 0 q 74 11 85 0 q 63 38 63 22 l 63 685 q 74 711 63 700 q 100 722 85 722 l 343 722 q 369 711 358 722 q 381 685 381 700 l 381 639 q 476 708 415 679 q 611 736 538 736 q 743 703 682 736 q 842 600 804 669 q 881 421 881 531 l 881 38 q 869 11 881 22 q 843 0 858 0 l 578 0 q 551 11 563 0 q 540 38 540 22 l 540 411 q 522 468 540 449 q 471 488 504 488 q 419 468 438 488 q 401 411 401 449 l 401 38 q 390 11 401 22 q 364 0 379 0 l 100 0 m 331 -347 q 309 -338 318 -347 q 300 -317 300 -329 l 329 -124 q 347 -87 332 -104 q 389 -69 361 -69 l 583 -69 q 605 -78 596 -69 q 614 -100 614 -87 q 613 -110 614 -106 l 536 -303 q 517 -332 531 -317 q 476 -347 504 -347 l 331 -347 z "},"ñ":{"ha":936,"x_min":63,"x_max":881,"o":"m 100 0 q 74 11 85 0 q 63 38 63 22 l 63 685 q 74 711 63 700 q 100 722 85 722 l 343 722 q 369 711 358 722 q 381 685 381 700 l 381 639 q 476 708 415 679 q 611 736 538 736 q 743 703 682 736 q 842 600 804 669 q 881 421 881 531 l 881 38 q 869 11 881 22 q 843 0 858 0 l 578 0 q 551 11 563 0 q 540 38 540 22 l 540 411 q 522 468 540 449 q 471 488 504 488 q 419 468 438 488 q 401 411 401 449 l 401 38 q 390 11 401 22 q 364 0 379 0 l 100 0 m 565 819 q 497 832 524 819 q 450 857 471 844 q 401 869 429 869 q 371 859 381 869 q 354 838 361 849 q 332 826 347 826 l 215 826 q 197 834 206 826 q 189 851 189 842 q 197 912 189 875 q 226 985 206 949 q 284 1045 247 1021 q 378 1069 321 1069 q 446 1057 419 1069 q 494 1032 472 1044 q 542 1019 515 1019 q 572 1031 563 1019 q 588 1052 581 1042 q 611 1063 596 1063 l 728 1063 q 747 1055 740 1063 q 754 1036 754 1047 q 746 976 754 1013 q 717 904 738 940 q 659 844 696 868 q 565 819 622 819 z "},"ŋ":{"ha":936,"x_min":63,"x_max":881,"o":"m 393 -312 q 367 -301 378 -312 q 356 -275 356 -290 l 356 -68 q 367 -42 356 -53 q 393 -31 378 -31 l 447 -31 q 498 -20 478 -31 q 529 15 518 -10 q 540 82 540 39 l 540 411 q 522 468 540 449 q 471 488 504 488 q 419 468 438 488 q 401 411 401 449 l 401 38 q 390 11 401 22 q 364 0 379 0 l 100 0 q 74 11 85 0 q 63 38 63 22 l 63 685 q 74 711 63 700 q 100 722 85 722 l 343 722 q 369 711 358 722 q 381 685 381 700 l 381 639 q 476 708 415 679 q 611 736 538 736 q 743 703 682 736 q 842 600 804 669 q 881 421 881 531 l 881 67 q 822 -149 881 -65 q 661 -273 763 -233 q 433 -312 560 -312 l 393 -312 z "},"o":{"ha":892,"x_min":42,"x_max":851,"o":"m 446 -14 q 231 21 318 -14 q 97 125 143 56 q 43 296 50 194 q 42 362 42 328 q 43 426 42 396 q 100 598 50 529 q 238 701 150 667 q 446 736 325 736 q 654 701 567 736 q 792 598 742 667 q 849 426 842 529 q 851 362 851 396 q 849 296 851 328 q 795 125 842 194 q 661 21 749 56 q 446 -14 574 -14 m 446 208 q 496 231 486 208 q 508 303 506 254 q 510 361 510 324 q 508 419 510 399 q 496 490 506 465 q 446 514 486 514 q 397 490 407 514 q 383 419 386 465 q 382 361 382 399 q 383 303 382 324 q 397 231 386 254 q 446 208 407 208 z "},"ó":{"ha":892,"x_min":42,"x_max":851,"o":"m 446 -14 q 231 21 318 -14 q 97 125 143 56 q 43 296 50 194 q 42 362 42 328 q 43 426 42 396 q 100 598 50 529 q 238 701 150 667 q 446 736 325 736 q 654 701 567 736 q 792 598 742 667 q 849 426 842 529 q 851 362 851 396 q 849 296 851 328 q 795 125 842 194 q 661 21 749 56 q 446 -14 574 -14 m 446 208 q 496 231 486 208 q 508 303 506 254 q 510 361 510 324 q 508 419 510 399 q 496 490 506 465 q 446 514 486 514 q 397 490 407 514 q 383 419 386 465 q 382 361 382 399 q 383 303 382 324 q 397 231 386 254 q 446 208 407 208 m 328 826 q 306 849 306 826 q 313 867 306 860 l 451 1036 q 477 1058 467 1054 q 503 1063 488 1063 l 761 1063 q 788 1035 788 1063 q 781 1018 788 1025 l 576 850 q 553 833 565 840 q 518 826 540 826 l 328 826 z "},"ŏ":{"ha":892,"x_min":42,"x_max":851,"o":"m 446 -14 q 231 21 318 -14 q 97 125 143 56 q 43 296 50 194 q 42 362 42 328 q 43 426 42 396 q 100 598 50 529 q 238 701 150 667 q 446 736 325 736 q 654 701 567 736 q 792 598 742 667 q 849 426 842 529 q 851 362 851 396 q 849 296 851 328 q 795 125 842 194 q 661 21 749 56 q 446 -14 574 -14 m 446 208 q 496 231 486 208 q 508 303 506 254 q 510 361 510 324 q 508 419 510 399 q 496 490 506 465 q 446 514 486 514 q 397 490 407 514 q 383 419 386 465 q 382 361 382 399 q 383 303 382 324 q 397 231 386 254 q 446 208 407 208 m 446 819 q 316 848 369 819 q 235 925 263 876 q 207 1036 207 974 q 214 1055 207 1047 q 233 1063 221 1063 l 364 1063 q 383 1055 376 1063 q 390 1036 390 1047 q 403 983 390 1006 q 446 960 415 960 q 490 983 478 960 q 501 1038 501 1006 q 508 1055 501 1047 q 528 1063 515 1063 l 658 1063 q 678 1055 671 1063 q 685 1036 685 1047 q 657 925 685 974 q 576 848 629 876 q 446 819 522 819 z "},"ô":{"ha":892,"x_min":42,"x_max":851,"o":"m 446 -14 q 231 21 318 -14 q 97 125 143 56 q 43 296 50 194 q 42 362 42 328 q 43 426 42 396 q 100 598 50 529 q 238 701 150 667 q 446 736 325 736 q 654 701 567 736 q 792 598 742 667 q 849 426 842 529 q 851 362 851 396 q 849 296 851 328 q 795 125 842 194 q 661 21 749 56 q 446 -14 574 -14 m 446 208 q 496 231 486 208 q 508 303 506 254 q 510 361 510 324 q 508 419 510 399 q 496 490 506 465 q 446 514 486 514 q 397 490 407 514 q 383 419 386 465 q 382 361 382 399 q 383 303 382 324 q 397 231 386 254 q 446 208 407 208 m 171 826 q 149 849 149 826 q 156 867 149 860 l 311 1036 q 336 1057 325 1051 q 363 1063 347 1063 l 529 1063 q 556 1057 544 1063 q 581 1036 567 1051 l 736 867 q 743 849 743 860 q 721 826 743 826 l 629 826 q 602 828 615 826 q 574 836 589 829 l 446 894 l 318 836 q 290 828 304 829 q 263 826 276 826 l 171 826 z "},"ö":{"ha":892,"x_min":42,"x_max":851,"o":"m 446 -14 q 231 21 318 -14 q 97 125 143 56 q 43 296 50 194 q 42 362 42 328 q 43 426 42 396 q 100 598 50 529 q 238 701 150 667 q 446 736 325 736 q 654 701 567 736 q 792 598 742 667 q 849 426 842 529 q 851 362 851 396 q 849 296 851 328 q 795 125 842 194 q 661 21 749 56 q 446 -14 574 -14 m 446 208 q 496 231 486 208 q 508 303 506 254 q 510 361 510 324 q 508 419 510 399 q 496 490 506 465 q 446 514 486 514 q 397 490 407 514 q 383 419 386 465 q 382 361 382 399 q 383 303 382 324 q 397 231 386 254 q 446 208 407 208 m 525 826 q 502 835 511 826 q 493 858 493 844 l 493 1031 q 502 1053 493 1044 q 525 1063 511 1063 l 697 1063 q 720 1053 711 1063 q 729 1031 729 1044 l 729 858 q 720 835 729 844 q 697 826 711 826 l 525 826 m 193 826 q 170 835 179 826 q 161 858 161 844 l 161 1031 q 170 1053 161 1044 q 193 1063 179 1063 l 365 1063 q 388 1053 379 1063 q 397 1031 397 1044 l 397 858 q 388 835 397 844 q 365 826 379 826 l 193 826 z "},"ò":{"ha":892,"x_min":42,"x_max":851,"o":"m 446 -14 q 231 21 318 -14 q 97 125 143 56 q 43 296 50 194 q 42 362 42 328 q 43 426 42 396 q 100 598 50 529 q 238 701 150 667 q 446 736 325 736 q 654 701 567 736 q 792 598 742 667 q 849 426 842 529 q 851 362 851 396 q 849 296 851 328 q 795 125 842 194 q 661 21 749 56 q 446 -14 574 -14 m 446 208 q 496 231 486 208 q 508 303 506 254 q 510 361 510 324 q 508 419 510 399 q 496 490 506 465 q 446 514 486 514 q 397 490 407 514 q 383 419 386 465 q 382 361 382 399 q 383 303 382 324 q 397 231 386 254 q 446 208 407 208 m 371 826 q 336 833 349 826 q 313 850 324 840 l 108 1018 q 101 1035 101 1025 q 128 1063 101 1063 l 386 1063 q 412 1058 401 1063 q 438 1036 422 1054 l 576 867 q 583 849 583 860 q 561 826 583 826 l 371 826 z "},"ő":{"ha":892,"x_min":42,"x_max":875,"o":"m 446 -14 q 231 21 318 -14 q 97 125 143 56 q 43 296 50 194 q 42 362 42 328 q 43 426 42 396 q 100 598 50 529 q 238 701 150 667 q 446 736 325 736 q 654 701 567 736 q 792 598 742 667 q 849 426 842 529 q 851 362 851 396 q 849 296 851 328 q 795 125 842 194 q 661 21 749 56 q 446 -14 574 -14 m 446 208 q 496 231 486 208 q 508 303 506 254 q 510 361 510 324 q 508 419 510 399 q 496 490 506 465 q 446 514 486 514 q 397 490 407 514 q 383 419 386 465 q 382 361 382 399 q 383 303 382 324 q 397 231 386 254 q 446 208 407 208 m 532 826 q 510 849 510 826 q 513 860 510 854 q 517 869 515 865 l 592 1036 q 643 1063 604 1063 l 847 1063 q 875 1036 875 1063 q 867 1018 875 1026 l 708 846 q 661 826 692 826 l 532 826 m 176 826 q 154 849 154 826 q 157 860 154 854 q 161 869 160 865 l 236 1036 q 288 1063 249 1063 l 492 1063 q 519 1036 519 1063 q 511 1018 519 1026 l 353 846 q 306 826 336 826 l 176 826 z "},"ō":{"ha":892,"x_min":42,"x_max":851,"o":"m 446 -14 q 231 21 318 -14 q 97 125 143 56 q 43 296 50 194 q 42 362 42 328 q 43 426 42 396 q 100 598 50 529 q 238 701 150 667 q 446 736 325 736 q 654 701 567 736 q 792 598 742 667 q 849 426 842 529 q 851 362 851 396 q 849 296 851 328 q 795 125 842 194 q 661 21 749 56 q 446 -14 574 -14 m 446 208 q 496 231 486 208 q 508 303 506 254 q 510 361 510 324 q 508 419 510 399 q 496 490 506 465 q 446 514 486 514 q 397 490 407 514 q 383 419 386 465 q 382 361 382 399 q 383 303 382 324 q 397 231 386 254 q 446 208 407 208 m 218 826 q 195 835 204 826 q 186 858 186 844 l 186 1003 q 195 1026 186 1017 q 218 1035 204 1035 l 672 1035 q 695 1026 686 1035 q 704 1003 704 1017 l 704 858 q 695 835 704 844 q 672 826 686 826 l 218 826 z "},"ø":{"ha":892,"x_min":42,"x_max":851,"o":"m 446 -14 q 231 21 318 -14 q 97 125 143 56 q 43 296 50 194 q 42 362 42 328 q 43 426 42 396 q 100 598 50 529 q 238 701 150 667 q 446 736 325 736 q 654 701 567 736 q 792 598 742 667 q 849 426 842 529 q 851 362 851 396 q 849 296 851 328 q 795 125 842 194 q 661 21 749 56 q 446 -14 574 -14 m 446 208 q 496 231 486 208 q 508 303 506 254 q 510 361 510 324 q 508 419 510 399 q 496 490 506 465 q 446 514 486 514 q 397 490 407 514 q 383 419 386 465 q 382 361 382 399 q 383 303 382 324 q 397 231 386 254 q 446 208 407 208 m 81 -39 q 61 -31 69 -39 q 53 -11 53 -22 q 55 -1 53 -6 q 63 11 57 4 l 721 739 q 734 752 725 744 q 757 760 743 760 l 810 760 q 829 751 821 760 q 838 732 838 743 q 837 724 838 731 q 829 710 836 718 l 171 -18 q 158 -31 167 -24 q 136 -39 150 -39 l 81 -39 z "},"ǿ":{"ha":892,"x_min":42,"x_max":851,"o":"m 446 -14 q 231 21 318 -14 q 97 125 143 56 q 43 296 50 194 q 42 362 42 328 q 43 426 42 396 q 100 598 50 529 q 238 701 150 667 q 446 736 325 736 q 654 701 567 736 q 792 598 742 667 q 849 426 842 529 q 851 362 851 396 q 849 296 851 328 q 795 125 842 194 q 661 21 749 56 q 446 -14 574 -14 m 446 208 q 496 231 486 208 q 508 303 506 254 q 510 361 510 324 q 508 419 510 399 q 496 490 506 465 q 446 514 486 514 q 397 490 407 514 q 383 419 386 465 q 382 361 382 399 q 383 303 382 324 q 397 231 386 254 q 446 208 407 208 m 81 -39 q 61 -31 69 -39 q 53 -11 53 -22 q 55 -1 53 -6 q 63 11 57 4 l 721 739 q 734 752 725 744 q 757 760 743 760 l 810 760 q 829 751 821 760 q 838 732 838 743 q 837 724 838 731 q 829 710 836 718 l 171 -18 q 158 -31 167 -24 q 136 -39 150 -39 l 81 -39 m 328 826 q 306 849 306 826 q 313 867 306 860 l 451 1036 q 477 1058 467 1054 q 503 1063 488 1063 l 761 1063 q 788 1035 788 1063 q 781 1018 788 1025 l 576 850 q 553 833 565 840 q 518 826 540 826 l 328 826 z "},"õ":{"ha":892,"x_min":42,"x_max":851,"o":"m 446 -14 q 231 21 318 -14 q 97 125 143 56 q 43 296 50 194 q 42 362 42 328 q 43 426 42 396 q 100 598 50 529 q 238 701 150 667 q 446 736 325 736 q 654 701 567 736 q 792 598 742 667 q 849 426 842 529 q 851 362 851 396 q 849 296 851 328 q 795 125 842 194 q 661 21 749 56 q 446 -14 574 -14 m 446 208 q 496 231 486 208 q 508 303 506 254 q 510 361 510 324 q 508 419 510 399 q 496 490 506 465 q 446 514 486 514 q 397 490 407 514 q 383 419 386 465 q 382 361 382 399 q 383 303 382 324 q 397 231 386 254 q 446 208 407 208 m 539 819 q 471 832 497 819 q 424 857 444 844 q 375 869 403 869 q 344 859 354 869 q 328 838 335 849 q 306 826 321 826 l 189 826 q 171 834 179 826 q 163 851 163 842 q 171 912 163 875 q 200 985 179 949 q 258 1045 221 1021 q 351 1069 294 1069 q 419 1057 393 1069 q 467 1032 446 1044 q 515 1019 489 1019 q 545 1031 536 1019 q 562 1052 554 1042 q 585 1063 569 1063 l 701 1063 q 721 1055 714 1063 q 728 1036 728 1047 q 719 976 728 1013 q 690 904 711 940 q 633 844 669 868 q 539 819 596 819 z "},"œ":{"ha":1338,"x_min":42,"x_max":1303,"o":"m 446 -14 q 231 21 318 -14 q 97 125 143 56 q 43 296 50 194 q 42 362 42 328 q 43 426 42 396 q 100 598 50 529 q 238 701 150 667 q 446 736 325 736 q 578 724 517 736 q 686 686 639 711 q 788 724 732 711 q 907 736 843 736 q 1131 684 1043 736 q 1260 547 1218 632 q 1303 358 1303 461 l 1303 317 q 1292 290 1303 301 q 1265 279 1281 279 l 851 279 l 851 272 q 856 226 851 244 q 874 197 861 207 q 906 188 886 188 q 920 190 914 188 q 933 199 926 193 q 946 213 939 206 q 967 228 958 225 q 992 232 975 232 l 1254 232 q 1277 224 1268 232 q 1285 201 1286 215 q 1260 138 1283 175 q 1192 67 1238 101 q 1075 9 1146 32 q 908 -14 1004 -14 q 786 -3 843 -14 q 683 31 729 8 q 578 -3 638 8 q 446 -14 519 -14 m 446 208 q 496 231 486 208 q 508 303 506 254 q 510 361 510 324 q 508 419 510 399 q 496 490 506 465 q 446 514 486 514 q 397 490 407 514 q 383 419 386 465 q 382 361 382 399 q 383 303 382 324 q 397 231 386 254 q 446 208 407 208 m 851 453 l 963 453 l 963 454 q 956 504 963 485 q 938 533 950 524 q 907 542 925 542 q 876 533 889 542 q 858 504 864 524 q 851 454 851 485 l 851 453 z "},"p":{"ha":918,"x_min":63,"x_max":875,"o":"m 100 -264 q 74 -253 85 -264 q 63 -226 63 -242 l 63 685 q 74 711 63 700 q 100 722 85 722 l 336 722 q 363 711 351 722 q 374 685 374 700 l 374 643 q 456 710 406 683 q 579 736 507 736 q 692 719 640 736 q 783 663 743 701 q 846 564 822 625 q 874 415 869 503 q 875 361 875 385 q 874 306 875 338 q 847 163 871 224 q 784 64 824 103 q 692 6 744 25 q 579 -14 640 -14 q 474 6 521 -14 q 394 69 426 25 l 394 -226 q 383 -253 394 -242 q 357 -264 372 -264 l 100 -264 m 464 235 q 504 244 490 235 q 524 272 518 254 q 533 315 531 290 q 533 407 538 361 q 524 450 531 432 q 504 478 518 468 q 464 488 490 488 q 424 478 439 488 q 402 450 408 468 q 394 407 396 432 q 393 356 393 376 q 394 304 393 336 q 403 267 396 282 q 426 243 411 251 q 464 235 440 235 z "},"þ":{"ha":919,"x_min":64,"x_max":876,"o":"m 101 -264 q 75 -253 86 -264 q 64 -226 64 -242 l 64 949 q 75 975 64 964 q 101 986 86 986 l 358 986 q 385 975 374 986 q 396 949 396 964 l 396 657 q 468 717 428 697 q 581 736 508 736 q 693 719 642 736 q 784 663 744 701 q 847 564 824 625 q 875 415 871 503 q 876 361 876 385 q 875 306 876 338 q 849 163 872 224 q 785 64 825 103 q 694 6 746 25 q 581 -14 642 -14 q 475 6 522 -14 q 396 69 428 25 l 396 -226 q 385 -253 396 -242 q 358 -264 374 -264 l 101 -264 m 465 235 q 506 244 492 235 q 526 272 519 254 q 535 315 532 290 q 535 407 539 361 q 526 450 532 432 q 506 478 519 468 q 465 488 492 488 q 425 478 440 488 q 403 450 410 468 q 396 407 397 432 q 394 356 394 376 q 396 304 394 336 q 405 267 397 282 q 427 243 413 251 q 465 235 442 235 z "},"q":{"ha":918,"x_min":43,"x_max":856,"o":"m 561 -264 q 535 -253 546 -264 q 524 -226 524 -242 l 524 69 q 445 6 493 25 q 339 -14 397 -14 q 226 6 279 -14 q 134 64 174 25 q 71 163 94 103 q 44 306 47 224 q 43 361 43 338 q 44 415 43 385 q 72 564 49 503 q 135 663 96 625 q 227 719 175 701 q 339 736 279 736 q 463 710 411 736 q 544 643 514 683 l 544 685 q 556 711 544 700 q 582 722 567 722 l 818 722 q 844 711 833 722 q 856 685 856 700 l 856 -226 q 844 -253 856 -242 q 818 -264 833 -264 l 561 -264 m 454 235 q 492 243 478 235 q 515 267 507 251 q 524 304 522 282 q 526 356 526 336 q 524 407 526 376 q 516 450 522 432 q 495 478 510 468 q 454 488 481 488 q 415 478 429 488 q 394 450 400 468 q 385 407 388 432 q 385 315 381 361 q 394 272 388 290 q 415 244 400 254 q 454 235 429 235 z "},"r":{"ha":719,"x_min":63,"x_max":701,"o":"m 100 0 q 74 11 85 0 q 63 38 63 22 l 63 685 q 74 711 63 700 q 100 722 85 722 l 343 722 q 369 711 358 722 q 381 685 381 700 l 381 636 q 480 699 425 675 q 597 722 535 722 l 664 722 q 690 711 679 722 q 701 685 701 700 l 701 468 q 690 442 701 453 q 664 431 679 431 l 485 431 q 422 410 443 431 q 401 347 401 389 l 401 38 q 390 11 401 22 q 364 0 379 0 l 100 0 z "},"ŕ":{"ha":719,"x_min":63,"x_max":726,"o":"m 100 0 q 74 11 85 0 q 63 38 63 22 l 63 685 q 74 711 63 700 q 100 722 85 722 l 343 722 q 369 711 358 722 q 381 685 381 700 l 381 636 q 480 699 425 675 q 597 722 535 722 l 664 722 q 690 711 679 722 q 701 685 701 700 l 701 468 q 690 442 701 453 q 664 431 679 431 l 485 431 q 422 410 443 431 q 401 347 401 389 l 401 38 q 390 11 401 22 q 364 0 379 0 l 100 0 m 267 826 q 244 849 244 826 q 251 867 244 860 l 390 1036 q 416 1058 406 1054 q 442 1063 426 1063 l 700 1063 q 726 1035 726 1063 q 719 1018 726 1025 l 515 850 q 492 833 504 840 q 457 826 479 826 l 267 826 z "},"ř":{"ha":719,"x_min":63,"x_max":701,"o":"m 100 0 q 74 11 85 0 q 63 38 63 22 l 63 685 q 74 711 63 700 q 100 722 85 722 l 343 722 q 369 711 358 722 q 381 685 381 700 l 381 636 q 480 699 425 675 q 597 722 535 722 l 664 722 q 690 711 679 722 q 701 685 701 700 l 701 468 q 690 442 701 453 q 664 431 679 431 l 485 431 q 422 410 443 431 q 401 347 401 389 l 401 38 q 390 11 401 22 q 364 0 379 0 l 100 0 m 301 826 q 275 833 286 826 q 250 853 264 839 l 94 1022 q 88 1040 88 1029 q 110 1063 88 1063 l 201 1063 q 229 1061 215 1063 q 257 1053 243 1060 l 385 994 l 513 1053 q 541 1061 528 1060 q 568 1063 554 1063 l 660 1063 q 682 1040 682 1063 q 675 1022 682 1029 l 519 853 q 494 833 506 839 q 468 826 483 826 l 301 826 z "},"ŗ":{"ha":719,"x_min":51,"x_max":701,"o":"m 100 0 q 74 11 85 0 q 63 38 63 22 l 63 685 q 74 711 63 700 q 100 722 85 722 l 343 722 q 369 711 358 722 q 381 685 381 700 l 381 636 q 480 699 425 675 q 597 722 535 722 l 664 722 q 690 711 679 722 q 701 685 701 700 l 701 468 q 690 442 701 453 q 664 431 679 431 l 485 431 q 422 410 443 431 q 401 347 401 389 l 401 38 q 390 11 401 22 q 364 0 379 0 l 100 0 m 82 -347 q 60 -338 69 -347 q 51 -317 51 -329 l 81 -124 q 98 -87 83 -104 q 140 -69 113 -69 l 335 -69 q 356 -78 347 -69 q 365 -100 365 -87 q 364 -110 365 -106 l 288 -303 q 269 -332 282 -317 q 228 -347 256 -347 l 82 -347 z "},"s":{"ha":819,"x_min":29,"x_max":790,"o":"m 401 -14 q 231 6 301 -14 q 117 58 161 26 q 53 123 74 89 q 31 185 32 157 q 40 211 29 200 q 64 222 50 222 l 306 222 q 308 222 307 222 q 311 222 310 222 q 344 210 329 221 q 374 190 358 200 q 411 181 390 181 q 433 186 422 181 q 443 201 443 192 q 435 224 443 214 q 398 244 428 233 q 299 267 368 254 q 176 306 235 279 q 81 379 118 332 q 44 499 44 426 q 85 613 44 558 q 203 701 125 667 q 396 736 282 736 q 549 717 482 736 q 662 667 615 697 q 733 601 708 636 q 760 538 758 567 q 751 511 761 522 q 729 500 742 500 l 510 500 q 503 500 507 500 q 496 500 499 500 q 461 510 476 500 q 431 531 446 521 q 394 542 415 542 q 376 535 385 542 q 367 519 367 529 q 375 498 367 508 q 415 478 383 488 q 519 458 447 469 q 679 407 619 444 q 765 321 739 369 q 790 225 790 272 q 745 97 790 151 q 613 15 700 43 q 401 -14 526 -14 z "},"ś":{"ha":819,"x_min":29,"x_max":790,"o":"m 401 -14 q 231 6 301 -14 q 117 58 161 26 q 53 123 74 89 q 31 185 32 157 q 40 211 29 200 q 64 222 50 222 l 306 222 q 308 222 307 222 q 311 222 310 222 q 344 210 329 221 q 374 190 358 200 q 411 181 390 181 q 433 186 422 181 q 443 201 443 192 q 435 224 443 214 q 398 244 428 233 q 299 267 368 254 q 176 306 235 279 q 81 379 118 332 q 44 499 44 426 q 85 613 44 558 q 203 701 125 667 q 396 736 282 736 q 549 717 482 736 q 662 667 615 697 q 733 601 708 636 q 760 538 758 567 q 751 511 761 522 q 729 500 742 500 l 510 500 q 503 500 507 500 q 496 500 499 500 q 461 510 476 500 q 431 531 446 521 q 394 542 415 542 q 376 535 385 542 q 367 519 367 529 q 375 498 367 508 q 415 478 383 488 q 519 458 447 469 q 679 407 619 444 q 765 321 739 369 q 790 225 790 272 q 745 97 790 151 q 613 15 700 43 q 401 -14 526 -14 m 292 826 q 269 849 269 826 q 276 867 269 860 l 415 1036 q 441 1058 431 1054 q 467 1063 451 1063 l 725 1063 q 751 1035 751 1063 q 744 1018 751 1025 l 540 850 q 517 833 529 840 q 482 826 504 826 l 292 826 z "},"š":{"ha":819,"x_min":29,"x_max":790,"o":"m 401 -14 q 231 6 301 -14 q 117 58 161 26 q 53 123 74 89 q 31 185 32 157 q 40 211 29 200 q 64 222 50 222 l 306 222 q 308 222 307 222 q 311 222 310 222 q 344 210 329 221 q 374 190 358 200 q 411 181 390 181 q 433 186 422 181 q 443 201 443 192 q 435 224 443 214 q 398 244 428 233 q 299 267 368 254 q 176 306 235 279 q 81 379 118 332 q 44 499 44 426 q 85 613 44 558 q 203 701 125 667 q 396 736 282 736 q 549 717 482 736 q 662 667 615 697 q 733 601 708 636 q 760 538 758 567 q 751 511 761 522 q 729 500 742 500 l 510 500 q 503 500 507 500 q 496 500 499 500 q 461 510 476 500 q 431 531 446 521 q 394 542 415 542 q 376 535 385 542 q 367 519 367 529 q 375 498 367 508 q 415 478 383 488 q 519 458 447 469 q 679 407 619 444 q 765 321 739 369 q 790 225 790 272 q 745 97 790 151 q 613 15 700 43 q 401 -14 526 -14 m 326 826 q 300 833 311 826 q 275 853 289 839 l 119 1022 q 113 1040 113 1029 q 135 1063 113 1063 l 226 1063 q 254 1061 240 1063 q 282 1053 268 1060 l 410 994 l 538 1053 q 566 1061 553 1060 q 593 1063 579 1063 l 685 1063 q 707 1040 707 1063 q 700 1022 707 1029 l 544 853 q 519 833 531 839 q 493 826 508 826 l 326 826 z "},"ş":{"ha":819,"x_min":29,"x_max":790,"o":"m 415 -306 q 349 -294 379 -306 q 306 -265 318 -282 q 308 -235 293 -249 l 338 -210 q 358 -201 350 -199 q 379 -208 367 -203 q 415 -214 392 -214 q 444 -203 435 -214 q 454 -181 454 -193 q 445 -158 454 -168 q 415 -147 436 -147 q 389 -151 403 -147 q 363 -155 375 -154 q 340 -147 350 -156 l 311 -118 q 300 -100 301 -108 q 308 -72 299 -92 l 336 -10 q 160 35 228 1 q 63 110 93 68 q 31 185 32 151 q 40 211 29 200 q 64 222 50 222 l 294 222 q 300 222 297 222 q 306 222 303 222 q 341 212 326 222 q 372 191 356 201 q 411 181 389 181 q 433 186 422 181 q 443 201 443 192 q 435 224 443 214 q 398 244 428 233 q 299 267 368 254 q 176 306 235 279 q 81 379 118 332 q 44 499 44 426 q 85 613 44 558 q 203 701 125 667 q 396 736 282 736 q 549 717 482 736 q 662 667 615 697 q 733 601 708 636 q 760 538 758 567 q 751 511 761 522 q 729 500 742 500 l 507 500 q 501 500 504 500 q 496 500 499 500 q 461 510 476 500 q 431 531 446 521 q 394 542 415 542 q 376 535 385 542 q 367 519 367 529 q 375 498 367 508 q 415 478 383 488 q 519 458 447 469 q 679 407 619 444 q 765 321 739 369 q 790 225 790 272 q 695 53 790 117 q 424 -14 600 -10 l 399 -62 q 422 -58 407 -60 q 440 -56 436 -56 q 523 -90 493 -56 q 553 -181 553 -125 q 515 -271 553 -236 q 415 -306 478 -306 z "},"ŝ":{"ha":819,"x_min":29,"x_max":790,"o":"m 401 -14 q 231 6 301 -14 q 117 58 161 26 q 53 123 74 89 q 31 185 32 157 q 40 211 29 200 q 64 222 50 222 l 306 222 q 308 222 307 222 q 311 222 310 222 q 344 210 329 221 q 374 190 358 200 q 411 181 390 181 q 433 186 422 181 q 443 201 443 192 q 435 224 443 214 q 398 244 428 233 q 299 267 368 254 q 176 306 235 279 q 81 379 118 332 q 44 499 44 426 q 85 613 44 558 q 203 701 125 667 q 396 736 282 736 q 549 717 482 736 q 662 667 615 697 q 733 601 708 636 q 760 538 758 567 q 751 511 761 522 q 729 500 742 500 l 510 500 q 503 500 507 500 q 496 500 499 500 q 461 510 476 500 q 431 531 446 521 q 394 542 415 542 q 376 535 385 542 q 367 519 367 529 q 375 498 367 508 q 415 478 383 488 q 519 458 447 469 q 679 407 619 444 q 765 321 739 369 q 790 225 790 272 q 745 97 790 151 q 613 15 700 43 q 401 -14 526 -14 m 135 826 q 113 849 113 826 q 119 867 113 860 l 275 1036 q 300 1057 289 1051 q 326 1063 311 1063 l 493 1063 q 519 1057 508 1063 q 544 1036 531 1051 l 700 867 q 707 849 707 860 q 685 826 707 826 l 593 826 q 566 828 579 826 q 538 836 553 829 l 410 894 l 282 836 q 254 828 268 829 q 226 826 240 826 l 135 826 z "},"ș":{"ha":819,"x_min":29,"x_max":790,"o":"m 401 -14 q 231 6 301 -14 q 117 58 161 26 q 53 123 74 89 q 31 185 32 157 q 40 211 29 200 q 64 222 50 222 l 306 222 q 308 222 307 222 q 311 222 310 222 q 344 210 329 221 q 374 190 358 200 q 411 181 390 181 q 433 186 422 181 q 443 201 443 192 q 435 224 443 214 q 398 244 428 233 q 299 267 368 254 q 176 306 235 279 q 81 379 118 332 q 44 499 44 426 q 85 613 44 558 q 203 701 125 667 q 396 736 282 736 q 549 717 482 736 q 662 667 615 697 q 733 601 708 636 q 760 538 758 567 q 751 511 761 522 q 729 500 742 500 l 510 500 q 503 500 507 500 q 496 500 499 500 q 461 510 476 500 q 431 531 446 521 q 394 542 415 542 q 376 535 385 542 q 367 519 367 529 q 375 498 367 508 q 415 478 383 488 q 519 458 447 469 q 679 407 619 444 q 765 321 739 369 q 790 225 790 272 q 745 97 790 151 q 613 15 700 43 q 401 -14 526 -14 m 264 -347 q 242 -338 251 -347 q 233 -317 233 -329 l 263 -124 q 280 -87 265 -104 q 322 -69 294 -69 l 517 -69 q 538 -78 529 -69 q 547 -100 547 -87 q 546 -110 547 -106 l 469 -303 q 451 -332 464 -317 q 410 -347 438 -347 l 264 -347 z "},"ß":{"ha":947,"x_min":63,"x_max":910,"o":"m 100 0 q 74 11 85 0 q 63 38 63 22 l 63 628 q 106 810 63 729 q 239 938 149 890 q 472 986 329 986 q 702 944 615 986 q 828 837 789 903 q 868 697 868 771 q 860 628 868 660 q 833 569 851 596 q 786 521 815 543 q 851 474 824 503 q 894 403 879 444 q 910 300 910 361 q 887 193 910 246 q 817 97 864 140 q 696 26 769 53 q 521 0 622 0 l 472 0 q 438 11 450 0 q 426 38 426 22 l 426 196 q 438 223 426 211 q 472 233 450 235 l 475 233 q 542 256 515 233 q 568 315 568 278 q 543 374 568 351 q 469 397 518 397 l 467 397 q 435 408 444 397 q 426 435 426 419 l 426 571 q 433 597 426 586 q 467 608 440 608 l 471 608 q 535 629 510 610 q 560 679 560 649 q 536 731 560 710 q 472 751 513 751 q 408 725 432 751 q 385 638 385 699 l 385 38 q 374 11 385 22 q 347 0 363 0 l 100 0 z "},"ſ":{"ha":538,"x_min":22,"x_max":683,"o":"m 193 0 q 167 11 178 0 q 156 38 156 22 l 156 479 l 60 479 q 33 490 44 479 q 22 517 22 501 l 22 685 q 33 711 22 700 q 60 722 44 722 l 156 722 l 156 746 q 204 921 156 860 q 335 1005 253 982 q 517 1028 417 1028 l 646 1028 q 672 1017 661 1028 q 683 990 683 1006 l 683 822 q 672 796 683 807 q 646 785 661 785 l 533 785 q 499 779 513 785 q 480 764 486 774 q 474 739 474 754 l 474 38 q 463 11 474 22 q 436 0 451 0 l 193 0 z "},"t":{"ha":739,"x_min":15,"x_max":704,"o":"m 510 0 q 331 27 410 0 q 208 119 253 54 q 163 299 163 185 l 163 479 l 53 479 q 26 490 38 479 q 15 517 15 501 l 15 685 q 26 711 15 700 q 53 722 38 722 l 163 722 l 163 949 q 174 975 163 964 q 200 986 185 986 l 443 986 q 469 975 458 986 q 481 949 481 964 l 481 722 l 656 722 q 682 711 671 722 q 693 685 693 700 l 693 517 q 682 490 693 501 q 656 479 671 479 l 481 479 l 481 326 q 495 276 481 294 q 540 257 510 257 l 667 257 q 693 246 682 257 q 704 219 704 235 l 704 38 q 693 11 704 22 q 667 0 682 0 l 510 0 z "},"ŧ":{"ha":740,"x_min":17,"x_max":706,"o":"m 511 0 q 333 27 411 0 q 209 119 254 54 q 164 299 164 185 l 164 368 l 54 368 q 28 379 39 368 q 17 406 17 390 l 17 476 q 28 503 17 492 q 54 514 39 514 l 164 514 l 164 576 l 54 576 q 28 588 39 576 q 17 614 17 599 l 17 685 q 28 711 17 700 q 54 722 39 722 l 164 722 l 164 949 q 175 975 164 964 q 201 986 186 986 l 444 986 q 471 975 460 986 q 482 949 482 964 l 482 722 l 657 722 q 683 711 672 722 q 694 685 694 700 l 694 614 q 683 588 694 599 q 657 576 672 576 l 482 576 l 482 514 l 657 514 q 683 503 672 514 q 694 476 694 492 l 694 406 q 683 379 694 390 q 657 368 672 368 l 482 368 l 482 326 q 497 276 482 294 q 542 257 511 257 l 668 257 q 694 246 683 257 q 706 219 706 235 l 706 38 q 694 11 706 22 q 668 0 683 0 l 511 0 z "},"ť":{"ha":739,"x_min":15,"x_max":868,"o":"m 510 0 q 331 27 410 0 q 208 119 253 54 q 163 299 163 185 l 163 479 l 53 479 q 26 490 38 479 q 15 517 15 501 l 15 685 q 26 711 15 700 q 53 722 38 722 l 163 722 l 163 949 q 174 975 163 964 q 200 986 185 986 l 443 986 q 469 975 458 986 q 481 949 481 964 l 481 722 l 656 722 q 682 711 671 722 q 693 685 693 700 l 693 517 q 682 490 693 501 q 656 479 671 479 l 481 479 l 481 326 q 495 276 481 294 q 540 257 510 257 l 667 257 q 693 246 682 257 q 704 219 704 235 l 704 38 q 693 11 704 22 q 667 0 682 0 l 510 0 m 585 847 q 563 856 572 847 q 554 878 554 865 l 583 1071 q 601 1108 586 1090 q 643 1125 615 1125 l 838 1125 q 859 1116 850 1125 q 868 1094 868 1107 q 867 1085 868 1089 l 790 892 q 772 863 785 878 q 731 847 758 847 l 585 847 z "},"ț":{"ha":739,"x_min":15,"x_max":704,"o":"m 510 0 q 331 27 410 0 q 208 119 253 54 q 163 299 163 185 l 163 479 l 53 479 q 26 490 38 479 q 15 517 15 501 l 15 685 q 26 711 15 700 q 53 722 38 722 l 163 722 l 163 949 q 174 975 163 964 q 200 986 185 986 l 443 986 q 469 975 458 986 q 481 949 481 964 l 481 722 l 656 722 q 682 711 671 722 q 693 685 693 700 l 693 517 q 682 490 693 501 q 656 479 671 479 l 481 479 l 481 326 q 495 276 481 294 q 540 257 510 257 l 667 257 q 693 246 682 257 q 704 219 704 235 l 704 38 q 693 11 704 22 q 667 0 682 0 l 510 0 m 286 -347 q 265 -338 274 -347 q 256 -317 256 -329 l 285 -124 q 302 -87 288 -104 q 344 -69 317 -69 l 539 -69 q 560 -78 551 -69 q 569 -100 569 -87 q 568 -110 569 -106 l 492 -303 q 473 -332 486 -317 q 432 -347 460 -347 l 286 -347 z "},"u":{"ha":936,"x_min":56,"x_max":874,"o":"m 325 -14 q 194 19 256 -14 q 94 122 132 53 q 56 301 56 192 l 56 685 q 67 711 56 700 q 93 722 78 722 l 358 722 q 385 711 374 722 q 396 685 396 700 l 396 311 q 465 235 396 235 q 517 254 499 235 q 535 311 535 274 l 535 685 q 546 711 535 700 q 572 722 557 722 l 836 722 q 863 711 851 722 q 874 685 874 700 l 874 38 q 863 11 874 22 q 836 0 851 0 l 593 0 q 567 11 578 0 q 556 38 556 22 l 556 83 q 460 9 521 32 q 325 -14 399 -14 z "},"ú":{"ha":936,"x_min":56,"x_max":874,"o":"m 325 -14 q 194 19 256 -14 q 94 122 132 53 q 56 301 56 192 l 56 685 q 67 711 56 700 q 93 722 78 722 l 358 722 q 385 711 374 722 q 396 685 396 700 l 396 311 q 465 235 396 235 q 517 254 499 235 q 535 311 535 274 l 535 685 q 546 711 535 700 q 572 722 557 722 l 836 722 q 863 711 851 722 q 874 685 874 700 l 874 38 q 863 11 874 22 q 836 0 851 0 l 593 0 q 567 11 578 0 q 556 38 556 22 l 556 83 q 460 9 521 32 q 325 -14 399 -14 m 350 826 q 328 849 328 826 q 335 867 328 860 l 474 1036 q 499 1058 489 1054 q 525 1063 510 1063 l 783 1063 q 810 1035 810 1063 q 803 1018 810 1025 l 599 850 q 575 833 588 840 q 540 826 563 826 l 350 826 z "},"ŭ":{"ha":936,"x_min":56,"x_max":874,"o":"m 325 -14 q 194 19 256 -14 q 94 122 132 53 q 56 301 56 192 l 56 685 q 67 711 56 700 q 93 722 78 722 l 358 722 q 385 711 374 722 q 396 685 396 700 l 396 311 q 465 235 396 235 q 517 254 499 235 q 535 311 535 274 l 535 685 q 546 711 535 700 q 572 722 557 722 l 836 722 q 863 711 851 722 q 874 685 874 700 l 874 38 q 863 11 874 22 q 836 0 851 0 l 593 0 q 567 11 578 0 q 556 38 556 22 l 556 83 q 460 9 521 32 q 325 -14 399 -14 m 468 819 q 338 848 392 819 q 257 925 285 876 q 229 1036 229 974 q 236 1055 229 1047 q 256 1063 243 1063 l 386 1063 q 406 1055 399 1063 q 413 1036 413 1047 q 425 983 413 1006 q 468 960 438 960 q 512 983 500 960 q 524 1038 524 1006 q 531 1055 524 1047 q 550 1063 538 1063 l 681 1063 q 700 1055 693 1063 q 707 1036 707 1047 q 679 925 707 974 q 598 848 651 876 q 468 819 544 819 z "},"û":{"ha":936,"x_min":56,"x_max":874,"o":"m 325 -14 q 194 19 256 -14 q 94 122 132 53 q 56 301 56 192 l 56 685 q 67 711 56 700 q 93 722 78 722 l 358 722 q 385 711 374 722 q 396 685 396 700 l 396 311 q 465 235 396 235 q 517 254 499 235 q 535 311 535 274 l 535 685 q 546 711 535 700 q 572 722 557 722 l 836 722 q 863 711 851 722 q 874 685 874 700 l 874 38 q 863 11 874 22 q 836 0 851 0 l 593 0 q 567 11 578 0 q 556 38 556 22 l 556 83 q 460 9 521 32 q 325 -14 399 -14 m 193 826 q 171 849 171 826 q 178 867 171 860 l 333 1036 q 358 1057 347 1051 q 385 1063 369 1063 l 551 1063 q 578 1057 567 1063 q 603 1036 589 1051 l 758 867 q 765 849 765 860 q 743 826 765 826 l 651 826 q 624 828 638 826 q 596 836 611 829 l 468 894 l 340 836 q 313 828 326 829 q 285 826 299 826 l 193 826 z "},"ü":{"ha":936,"x_min":56,"x_max":874,"o":"m 325 -14 q 194 19 256 -14 q 94 122 132 53 q 56 301 56 192 l 56 685 q 67 711 56 700 q 93 722 78 722 l 358 722 q 385 711 374 722 q 396 685 396 700 l 396 311 q 465 235 396 235 q 517 254 499 235 q 535 311 535 274 l 535 685 q 546 711 535 700 q 572 722 557 722 l 836 722 q 863 711 851 722 q 874 685 874 700 l 874 38 q 863 11 874 22 q 836 0 851 0 l 593 0 q 567 11 578 0 q 556 38 556 22 l 556 83 q 460 9 521 32 q 325 -14 399 -14 m 547 826 q 524 835 533 826 q 515 858 515 844 l 515 1031 q 524 1053 515 1044 q 547 1063 533 1063 l 719 1063 q 742 1053 733 1063 q 751 1031 751 1044 l 751 858 q 742 835 751 844 q 719 826 733 826 l 547 826 m 215 826 q 192 835 201 826 q 183 858 183 844 l 183 1031 q 192 1053 183 1044 q 215 1063 201 1063 l 388 1063 q 410 1053 401 1063 q 419 1031 419 1044 l 419 858 q 410 835 419 844 q 388 826 401 826 l 215 826 z "},"ù":{"ha":936,"x_min":56,"x_max":874,"o":"m 325 -14 q 194 19 256 -14 q 94 122 132 53 q 56 301 56 192 l 56 685 q 67 711 56 700 q 93 722 78 722 l 358 722 q 385 711 374 722 q 396 685 396 700 l 396 311 q 465 235 396 235 q 517 254 499 235 q 535 311 535 274 l 535 685 q 546 711 535 700 q 572 722 557 722 l 836 722 q 863 711 851 722 q 874 685 874 700 l 874 38 q 863 11 874 22 q 836 0 851 0 l 593 0 q 567 11 578 0 q 556 38 556 22 l 556 83 q 460 9 521 32 q 325 -14 399 -14 m 393 826 q 358 833 371 826 q 335 850 346 840 l 131 1018 q 124 1035 124 1025 q 150 1063 124 1063 l 408 1063 q 434 1058 424 1063 q 460 1036 444 1054 l 599 867 q 606 849 606 860 q 583 826 606 826 l 393 826 z "},"ű":{"ha":936,"x_min":56,"x_max":897,"o":"m 325 -14 q 194 19 256 -14 q 94 122 132 53 q 56 301 56 192 l 56 685 q 67 711 56 700 q 93 722 78 722 l 358 722 q 385 711 374 722 q 396 685 396 700 l 396 311 q 465 235 396 235 q 517 254 499 235 q 535 311 535 274 l 535 685 q 546 711 535 700 q 572 722 557 722 l 836 722 q 863 711 851 722 q 874 685 874 700 l 874 38 q 863 11 874 22 q 836 0 851 0 l 593 0 q 567 11 578 0 q 556 38 556 22 l 556 83 q 460 9 521 32 q 325 -14 399 -14 m 554 826 q 532 849 532 826 q 535 860 532 854 q 539 869 538 865 l 614 1036 q 665 1063 626 1063 l 869 1063 q 897 1036 897 1063 q 889 1018 897 1026 l 731 846 q 683 826 714 826 l 554 826 m 199 826 q 176 849 176 826 q 179 860 176 854 q 183 869 182 865 l 258 1036 q 310 1063 271 1063 l 514 1063 q 542 1036 542 1063 q 533 1018 542 1026 l 375 846 q 328 826 358 826 l 199 826 z "},"ū":{"ha":936,"x_min":56,"x_max":874,"o":"m 325 -14 q 194 19 256 -14 q 94 122 132 53 q 56 301 56 192 l 56 685 q 67 711 56 700 q 93 722 78 722 l 358 722 q 385 711 374 722 q 396 685 396 700 l 396 311 q 465 235 396 235 q 517 254 499 235 q 535 311 535 274 l 535 685 q 546 711 535 700 q 572 722 557 722 l 836 722 q 863 711 851 722 q 874 685 874 700 l 874 38 q 863 11 874 22 q 836 0 851 0 l 593 0 q 567 11 578 0 q 556 38 556 22 l 556 83 q 460 9 521 32 q 325 -14 399 -14 m 240 826 q 217 835 226 826 q 208 858 208 844 l 208 1003 q 217 1026 208 1017 q 240 1035 226 1035 l 694 1035 q 717 1026 708 1035 q 726 1003 726 1017 l 726 858 q 717 835 726 844 q 694 826 708 826 l 240 826 z "},"ų":{"ha":936,"x_min":56,"x_max":874,"o":"m 817 -306 q 681 -274 733 -306 q 603 -187 628 -242 q 578 -68 578 -133 q 578 -44 578 -56 q 581 -22 579 -33 q 585 0 583 -10 q 564 13 572 3 q 556 38 556 24 l 556 83 q 460 9 521 32 q 325 -14 399 -14 q 194 19 256 -14 q 94 122 132 53 q 56 301 56 192 l 56 685 q 67 711 56 700 q 93 722 78 722 l 358 722 q 385 711 374 722 q 396 685 396 700 l 396 311 q 465 235 396 235 q 517 254 499 235 q 535 311 535 274 l 535 685 q 546 711 535 700 q 572 722 557 722 l 836 722 q 863 711 851 722 q 874 685 874 700 l 874 38 q 863 11 874 22 q 836 0 851 0 l 814 0 q 766 -24 779 -1 q 753 -68 753 -47 q 767 -113 753 -90 q 822 -136 782 -136 l 836 -136 q 863 -147 851 -136 q 874 -174 874 -158 l 874 -268 q 863 -294 874 -283 q 836 -306 851 -306 l 817 -306 z "},"ů":{"ha":936,"x_min":56,"x_max":874,"o":"m 325 -14 q 194 19 256 -14 q 94 122 132 53 q 56 301 56 192 l 56 685 q 67 711 56 700 q 93 722 78 722 l 358 722 q 385 711 374 722 q 396 685 396 700 l 396 311 q 465 235 396 235 q 517 254 499 235 q 535 311 535 274 l 535 685 q 546 711 535 700 q 572 722 557 722 l 836 722 q 863 711 851 722 q 874 685 874 700 l 874 38 q 863 11 874 22 q 836 0 851 0 l 593 0 q 567 11 578 0 q 556 38 556 22 l 556 83 q 460 9 521 32 q 325 -14 399 -14 m 468 819 q 370 857 411 819 q 329 951 329 894 q 370 1046 329 1008 q 468 1083 411 1083 q 566 1046 525 1083 q 607 951 607 1008 q 566 857 607 894 q 468 819 525 819 m 468 910 q 498 922 486 910 q 510 951 510 933 q 498 981 510 969 q 468 993 486 993 q 438 981 450 993 q 426 951 426 969 q 438 922 426 933 q 468 910 450 910 z "},"ũ":{"ha":936,"x_min":56,"x_max":874,"o":"m 325 -14 q 194 19 256 -14 q 94 122 132 53 q 56 301 56 192 l 56 685 q 67 711 56 700 q 93 722 78 722 l 358 722 q 385 711 374 722 q 396 685 396 700 l 396 311 q 465 235 396 235 q 517 254 499 235 q 535 311 535 274 l 535 685 q 546 711 535 700 q 572 722 557 722 l 836 722 q 863 711 851 722 q 874 685 874 700 l 874 38 q 863 11 874 22 q 836 0 851 0 l 593 0 q 567 11 578 0 q 556 38 556 22 l 556 83 q 460 9 521 32 q 325 -14 399 -14 m 561 819 q 493 832 519 819 q 446 857 467 844 q 397 869 425 869 q 367 859 376 869 q 350 838 357 849 q 328 826 343 826 l 211 826 q 193 834 201 826 q 185 851 185 842 q 193 912 185 875 q 222 985 201 949 q 280 1045 243 1021 q 374 1069 317 1069 q 442 1057 415 1069 q 490 1032 468 1044 q 538 1019 511 1019 q 567 1031 558 1019 q 584 1052 576 1042 q 607 1063 592 1063 l 724 1063 q 743 1055 736 1063 q 750 1036 750 1047 q 742 976 750 1013 q 713 904 733 940 q 655 844 692 868 q 561 819 618 819 z "},"v":{"ha":875,"x_min":13,"x_max":863,"o":"m 326 0 q 297 11 306 0 q 281 35 288 22 l 14 679 q 13 689 13 683 q 22 713 13 703 q 46 722 32 722 l 281 722 q 312 711 301 722 q 326 689 322 700 l 438 365 l 549 689 q 563 711 553 700 q 594 722 574 722 l 829 722 q 853 713 843 722 q 863 689 863 703 q 861 679 863 683 l 594 35 q 579 11 589 22 q 549 0 569 0 l 326 0 z "},"w":{"ha":1207,"x_min":22,"x_max":1185,"o":"m 272 0 q 241 11 251 0 q 226 35 231 22 l 24 678 q 22 689 22 683 q 32 713 22 703 q 56 722 42 722 l 269 722 q 302 711 290 722 q 317 689 314 700 l 401 400 l 492 689 q 506 711 494 700 q 539 722 518 722 l 668 722 q 701 711 689 722 q 715 689 713 700 l 806 400 l 890 689 q 905 711 893 700 q 938 722 917 722 l 1151 722 q 1175 713 1165 722 q 1185 689 1185 703 q 1183 678 1185 683 l 981 35 q 966 11 976 22 q 935 0 956 0 l 749 0 q 717 11 728 0 q 703 35 707 22 l 604 315 l 504 35 q 490 11 500 22 q 458 0 479 0 l 272 0 z "},"ẃ":{"ha":1207,"x_min":22,"x_max":1185,"o":"m 272 0 q 241 11 251 0 q 226 35 231 22 l 24 678 q 22 689 22 683 q 32 713 22 703 q 56 722 42 722 l 269 722 q 302 711 290 722 q 317 689 314 700 l 401 400 l 492 689 q 506 711 494 700 q 539 722 518 722 l 668 722 q 701 711 689 722 q 715 689 713 700 l 806 400 l 890 689 q 905 711 893 700 q 938 722 917 722 l 1151 722 q 1175 713 1165 722 q 1185 689 1185 703 q 1183 678 1185 683 l 981 35 q 966 11 976 22 q 935 0 956 0 l 749 0 q 717 11 728 0 q 703 35 707 22 l 604 315 l 504 35 q 490 11 500 22 q 458 0 479 0 l 272 0 m 486 826 q 464 849 464 826 q 471 867 464 860 l 610 1036 q 635 1058 625 1054 q 661 1063 646 1063 l 919 1063 q 946 1035 946 1063 q 939 1018 946 1025 l 735 850 q 711 833 724 840 q 676 826 699 826 l 486 826 z "},"ŵ":{"ha":1207,"x_min":22,"x_max":1185,"o":"m 272 0 q 241 11 251 0 q 226 35 231 22 l 24 678 q 22 689 22 683 q 32 713 22 703 q 56 722 42 722 l 269 722 q 302 711 290 722 q 317 689 314 700 l 401 400 l 492 689 q 506 711 494 700 q 539 722 518 722 l 668 722 q 701 711 689 722 q 715 689 713 700 l 806 400 l 890 689 q 905 711 893 700 q 938 722 917 722 l 1151 722 q 1175 713 1165 722 q 1185 689 1185 703 q 1183 678 1185 683 l 981 35 q 966 11 976 22 q 935 0 956 0 l 749 0 q 717 11 728 0 q 703 35 707 22 l 604 315 l 504 35 q 490 11 500 22 q 458 0 479 0 l 272 0 m 329 826 q 307 849 307 826 q 314 867 307 860 l 469 1036 q 494 1057 483 1051 q 521 1063 506 1063 l 688 1063 q 714 1057 703 1063 q 739 1036 725 1051 l 894 867 q 901 849 901 860 q 879 826 901 826 l 788 826 q 760 828 774 826 q 732 836 747 829 l 604 894 l 476 836 q 449 828 463 829 q 421 826 435 826 l 329 826 z "},"ẅ":{"ha":1207,"x_min":22,"x_max":1185,"o":"m 272 0 q 241 11 251 0 q 226 35 231 22 l 24 678 q 22 689 22 683 q 32 713 22 703 q 56 722 42 722 l 269 722 q 302 711 290 722 q 317 689 314 700 l 401 400 l 492 689 q 506 711 494 700 q 539 722 518 722 l 668 722 q 701 711 689 722 q 715 689 713 700 l 806 400 l 890 689 q 905 711 893 700 q 938 722 917 722 l 1151 722 q 1175 713 1165 722 q 1185 689 1185 703 q 1183 678 1185 683 l 981 35 q 966 11 976 22 q 935 0 956 0 l 749 0 q 717 11 728 0 q 703 35 707 22 l 604 315 l 504 35 q 490 11 500 22 q 458 0 479 0 l 272 0 m 683 826 q 660 835 669 826 q 651 858 651 844 l 651 1031 q 660 1053 651 1044 q 683 1063 669 1063 l 856 1063 q 878 1053 869 1063 q 888 1031 888 1044 l 888 858 q 878 835 888 844 q 856 826 869 826 l 683 826 m 351 826 q 328 835 338 826 q 319 858 319 844 l 319 1031 q 328 1053 319 1044 q 351 1063 338 1063 l 524 1063 q 547 1053 538 1063 q 556 1031 556 1044 l 556 858 q 547 835 556 844 q 524 826 538 826 l 351 826 z "},"ẁ":{"ha":1207,"x_min":22,"x_max":1185,"o":"m 272 0 q 241 11 251 0 q 226 35 231 22 l 24 678 q 22 689 22 683 q 32 713 22 703 q 56 722 42 722 l 269 722 q 302 711 290 722 q 317 689 314 700 l 401 400 l 492 689 q 506 711 494 700 q 539 722 518 722 l 668 722 q 701 711 689 722 q 715 689 713 700 l 806 400 l 890 689 q 905 711 893 700 q 938 722 917 722 l 1151 722 q 1175 713 1165 722 q 1185 689 1185 703 q 1183 678 1185 683 l 981 35 q 966 11 976 22 q 935 0 956 0 l 749 0 q 717 11 728 0 q 703 35 707 22 l 604 315 l 504 35 q 490 11 500 22 q 458 0 479 0 l 272 0 m 529 826 q 494 833 507 826 q 471 850 482 840 l 267 1018 q 260 1035 260 1025 q 286 1063 260 1063 l 544 1063 q 570 1058 560 1063 q 596 1036 581 1054 l 735 867 q 742 849 742 860 q 719 826 742 826 l 529 826 z "},"x":{"ha":875,"x_min":6,"x_max":869,"o":"m 39 0 q 15 10 25 0 q 6 33 6 19 q 7 42 6 36 q 11 51 8 47 l 236 372 l 36 671 q 33 678 35 674 q 31 689 31 683 q 40 713 31 703 q 64 722 50 722 l 318 722 q 349 713 339 722 q 363 696 358 703 l 443 572 l 524 696 q 538 713 528 703 q 568 722 547 722 l 811 722 q 835 713 825 722 q 844 690 844 703 q 843 678 844 683 q 839 671 842 674 l 635 374 l 864 51 q 868 42 867 47 q 869 33 869 38 q 860 10 869 19 q 836 0 850 0 l 569 0 q 542 8 551 0 q 528 24 533 17 l 436 158 l 340 24 q 327 9 336 18 q 299 0 318 0 l 39 0 z "},"y":{"ha":883,"x_min":18,"x_max":875,"o":"m 206 -264 q 184 -256 193 -264 q 175 -235 175 -247 q 175 -228 175 -232 q 176 -221 175 -225 l 288 46 l 19 679 q 18 689 18 683 q 30 713 21 703 q 53 722 39 722 l 288 722 q 318 711 308 722 q 332 689 328 700 l 446 372 l 564 689 q 580 712 569 701 q 611 722 590 722 l 843 722 q 865 713 856 722 q 875 693 875 704 q 874 679 875 685 l 482 -231 q 465 -253 476 -243 q 433 -264 454 -264 l 206 -264 z "},"ý":{"ha":883,"x_min":18,"x_max":875,"o":"m 206 -264 q 184 -256 193 -264 q 175 -235 175 -247 q 175 -228 175 -232 q 176 -221 175 -225 l 288 46 l 19 679 q 18 689 18 683 q 30 713 21 703 q 53 722 39 722 l 288 722 q 318 711 308 722 q 332 689 328 700 l 446 372 l 564 689 q 580 712 569 701 q 611 722 590 722 l 843 722 q 865 713 856 722 q 875 693 875 704 q 874 679 875 685 l 482 -231 q 465 -253 476 -243 q 433 -264 454 -264 l 206 -264 m 331 826 q 308 849 308 826 q 315 867 308 860 l 454 1036 q 480 1058 469 1054 q 506 1063 490 1063 l 764 1063 q 790 1035 790 1063 q 783 1018 790 1025 l 579 850 q 556 833 568 840 q 521 826 543 826 l 331 826 z "},"ŷ":{"ha":883,"x_min":18,"x_max":875,"o":"m 206 -264 q 184 -256 193 -264 q 175 -235 175 -247 q 175 -228 175 -232 q 176 -221 175 -225 l 288 46 l 19 679 q 18 689 18 683 q 30 713 21 703 q 53 722 39 722 l 288 722 q 318 711 308 722 q 332 689 328 700 l 446 372 l 564 689 q 580 712 569 701 q 611 722 590 722 l 843 722 q 865 713 856 722 q 875 693 875 704 q 874 679 875 685 l 482 -231 q 465 -253 476 -243 q 433 -264 454 -264 l 206 -264 m 174 826 q 151 849 151 826 q 158 867 151 860 l 314 1036 q 339 1057 328 1051 q 365 1063 350 1063 l 532 1063 q 558 1057 547 1063 q 583 1036 569 1051 l 739 867 q 746 849 746 860 q 724 826 746 826 l 632 826 q 605 828 618 826 q 576 836 592 829 l 449 894 l 321 836 q 293 828 307 829 q 265 826 279 826 l 174 826 z "},"ÿ":{"ha":883,"x_min":18,"x_max":875,"o":"m 206 -264 q 184 -256 193 -264 q 175 -235 175 -247 q 175 -228 175 -232 q 176 -221 175 -225 l 288 46 l 19 679 q 18 689 18 683 q 30 713 21 703 q 53 722 39 722 l 288 722 q 318 711 308 722 q 332 689 328 700 l 446 372 l 564 689 q 580 712 569 701 q 611 722 590 722 l 843 722 q 865 713 856 722 q 875 693 875 704 q 874 679 875 685 l 482 -231 q 465 -253 476 -243 q 433 -264 454 -264 l 206 -264 m 528 826 q 505 835 514 826 q 496 858 496 844 l 496 1031 q 505 1053 496 1044 q 528 1063 514 1063 l 700 1063 q 723 1053 714 1063 q 732 1031 732 1044 l 732 858 q 723 835 732 844 q 700 826 714 826 l 528 826 m 196 826 q 173 835 182 826 q 164 858 164 844 l 164 1031 q 173 1053 164 1044 q 196 1063 182 1063 l 368 1063 q 391 1053 382 1063 q 400 1031 400 1044 l 400 858 q 391 835 400 844 q 368 826 382 826 l 196 826 z "},"ỳ":{"ha":883,"x_min":18,"x_max":875,"o":"m 206 -264 q 184 -256 193 -264 q 175 -235 175 -247 q 175 -228 175 -232 q 176 -221 175 -225 l 288 46 l 19 679 q 18 689 18 683 q 30 713 21 703 q 53 722 39 722 l 288 722 q 318 711 308 722 q 332 689 328 700 l 446 372 l 564 689 q 580 712 569 701 q 611 722 590 722 l 843 722 q 865 713 856 722 q 875 693 875 704 q 874 679 875 685 l 482 -231 q 465 -253 476 -243 q 433 -264 454 -264 l 206 -264 m 374 826 q 339 833 351 826 q 315 850 326 840 l 111 1018 q 104 1035 104 1025 q 131 1063 104 1063 l 389 1063 q 415 1058 404 1063 q 440 1036 425 1054 l 579 867 q 586 849 586 860 q 564 826 586 826 l 374 826 z "},"z":{"ha":819,"x_min":50,"x_max":778,"o":"m 88 0 q 61 11 72 0 q 50 38 50 22 l 50 197 q 56 226 50 214 q 72 246 63 238 l 349 483 l 97 483 q 71 494 82 483 q 60 521 60 506 l 60 685 q 71 711 60 700 q 97 722 82 722 l 711 722 q 738 711 726 722 q 749 685 749 700 l 749 510 q 744 488 749 497 q 729 469 739 478 l 465 239 l 740 239 q 767 228 756 239 q 778 201 778 217 l 778 38 q 767 11 778 22 q 740 0 756 0 l 88 0 z "},"ź":{"ha":819,"x_min":50,"x_max":778,"o":"m 88 0 q 61 11 72 0 q 50 38 50 22 l 50 197 q 56 226 50 214 q 72 246 63 238 l 349 483 l 97 483 q 71 494 82 483 q 60 521 60 506 l 60 685 q 71 711 60 700 q 97 722 82 722 l 711 722 q 738 711 726 722 q 749 685 749 700 l 749 510 q 744 488 749 497 q 729 469 739 478 l 465 239 l 740 239 q 767 228 756 239 q 778 201 778 217 l 778 38 q 767 11 778 22 q 740 0 756 0 l 88 0 m 294 826 q 272 849 272 826 q 279 867 272 860 l 418 1036 q 444 1058 433 1054 q 469 1063 454 1063 l 728 1063 q 754 1035 754 1063 q 747 1018 754 1025 l 543 850 q 519 833 532 840 q 485 826 507 826 l 294 826 z "},"ž":{"ha":819,"x_min":50,"x_max":778,"o":"m 88 0 q 61 11 72 0 q 50 38 50 22 l 50 197 q 56 226 50 214 q 72 246 63 238 l 349 483 l 97 483 q 71 494 82 483 q 60 521 60 506 l 60 685 q 71 711 60 700 q 97 722 82 722 l 711 722 q 738 711 726 722 q 749 685 749 700 l 749 510 q 744 488 749 497 q 729 469 739 478 l 465 239 l 740 239 q 767 228 756 239 q 778 201 778 217 l 778 38 q 767 11 778 22 q 740 0 756 0 l 88 0 m 329 826 q 303 833 314 826 q 278 853 292 839 l 122 1022 q 115 1040 115 1029 q 138 1063 115 1063 l 229 1063 q 257 1061 243 1063 q 285 1053 271 1060 l 413 994 l 540 1053 q 569 1061 556 1060 q 596 1063 582 1063 l 688 1063 q 710 1040 710 1063 q 703 1022 710 1029 l 547 853 q 522 833 533 839 q 496 826 511 826 l 329 826 z "},"ż":{"ha":819,"x_min":50,"x_max":778,"o":"m 88 0 q 61 11 72 0 q 50 38 50 22 l 50 197 q 56 226 50 214 q 72 246 63 238 l 349 483 l 97 483 q 71 494 82 483 q 60 521 60 506 l 60 685 q 71 711 60 700 q 97 722 82 722 l 711 722 q 738 711 726 722 q 749 685 749 700 l 749 510 q 744 488 749 497 q 729 469 739 478 l 465 239 l 740 239 q 767 228 756 239 q 778 201 778 217 l 778 38 q 767 11 778 22 q 740 0 756 0 l 88 0 m 321 826 q 298 835 307 826 q 289 858 289 844 l 289 1040 q 298 1063 289 1054 q 321 1072 307 1072 l 503 1072 q 526 1063 517 1072 q 535 1040 535 1054 l 535 858 q 526 835 535 844 q 503 826 517 826 l 321 826 z "},"ﬁ":{"ha":1090,"x_min":21,"x_max":1028,"o":"m 192 0 q 165 11 176 0 q 154 38 154 22 l 154 479 l 58 479 q 32 490 43 479 q 21 517 21 501 l 21 685 q 32 711 21 700 q 58 722 43 722 l 154 722 l 154 746 q 203 921 154 860 q 333 1005 251 982 q 515 1028 415 1028 l 990 1028 q 1017 1017 1006 1028 q 1028 990 1028 1006 l 1028 822 q 1017 796 1028 807 q 990 785 1006 785 l 532 785 q 487 773 501 785 q 472 739 472 761 l 472 722 l 990 722 q 1017 711 1006 722 q 1028 685 1028 700 l 1028 38 q 1017 11 1028 22 q 990 0 1006 0 l 747 0 q 721 11 732 0 q 710 38 710 22 l 710 479 l 472 479 l 472 38 q 461 11 472 22 q 435 0 450 0 l 192 0 z "},"ﬂ":{"ha":1107,"x_min":21,"x_max":1044,"o":"m 192 0 q 165 11 176 0 q 154 38 154 22 l 154 479 l 58 479 q 32 490 43 479 q 21 517 21 501 l 21 685 q 32 711 21 700 q 58 722 43 722 l 154 722 l 154 746 q 203 921 154 860 q 333 1005 251 982 q 515 1028 415 1028 l 617 1028 q 643 1017 632 1028 q 654 990 654 1006 l 654 822 q 643 796 654 807 q 617 785 632 785 l 532 785 q 487 773 501 785 q 472 739 472 761 l 472 722 l 726 722 l 726 990 q 738 1017 726 1006 q 764 1028 749 1028 l 1007 1028 q 1033 1017 1022 1028 q 1044 990 1044 1006 l 1044 38 q 1033 11 1044 22 q 1007 0 1022 0 l 764 0 q 738 11 749 0 q 726 38 726 22 l 726 479 l 472 479 l 472 38 q 461 11 472 22 q 435 0 450 0 l 192 0 z "}}}
